<svg xmlns="http://www.w3.org/2000/svg" width="100" height="200" viewBox="0 0 100 200">
  <defs>
    <style>
      .a {
        fill: #3b5a9e;
      }

      .b {
        fill: #261e72;
      }

      .c {
        fill: #913922;
      }

      .d {
        fill: #c17542;
      }

      .e {
        fill: #934f21;
      }

      .f {
        fill: #f7be08;
      }

      .g {
        fill: none;
        stroke: #000;
        stroke-miterlimit: 10;
        stroke-width: 0.5px;
      }
    </style>
  </defs>
  <title>skolelaerer</title>
  <path d="M39,149s8,3,23,0a29.9,29.9,0,0,1,1.8,7.9,31.8,31.8,0,0,0,2.1,8.6A37.4,37.4,0,0,0,70,174s-7,3-14,2c0,0-2-2-8,0,0,0-7,2-12,0,0,0-2-2-6-1a60.1,60.1,0,0,0,5.4-10.9A8.5,8.5,0,0,0,36,161,41.2,41.2,0,0,1,39,149Z"/>
  <g>
    <g>
      <path class="a" d="M33.8,145.3c-.1,1.3-.2,3.8-.2,4.9s-.1,1.3,0,2.1V155a2.5,2.5,0,0,0,.4,1.3l.9,1.2.8,1.3,1.7,1.7c.5.1.8,0,.4-.6l-.5-.6c-.8-.8-1.6-2.6-1.3-3.5a2.8,2.8,0,0,1,.9-1.6c.5.4.6,1.4,1,2.1s0,1.4.1,1.5a3.4,3.4,0,0,0,.7-2.3,7.1,7.1,0,0,0-1.8-3.7c-.7-.5.5-5.6.6-5.9Z"/>
      <line class="b" x1="34.5" y1="155.7" x2="34.8" y2="157.2"/>
    </g>
    <path class="a" d="M80,128.5l4.2-1.4a5.3,5.3,0,0,1,2.5-.1l3.8.8a1.7,1.7,0,0,0,1,0l3.2-.4a2.4,2.4,0,0,0,1.4-.5l2.1-1.9s.5-1-1-.6l-2.5,1.7,2.5-1.7c.4-2-1.3-.9-1.3-.9s-1.4-.3-1.4-.3l-2.3,1.5a2.9,2.9,0,0,1-2.2.4l-2.3-.4,2.1.4a9.9,9.9,0,0,0,2.4-1c.8-.5-.6-.8-.6-.8l-1.3.3a.4.4,0,0,1-.5,0l-1.6-.3h-.4a6.2,6.2,0,0,0-3.4,0h-.2l-4.5,1.2Z"/>
  </g>
  <path class="c" d="M38,125c.5-3.1-.5,7.5-.5,7.5,1,6,0,17,0,17s-5,0-5,0c1-5,0-17,0-17-2-10,1.1-15.1,2-16s5-2,10-6h11a14.1,14.1,0,0,0,5,3l4.7,1.4a5.8,5.8,0,0,1,2.3,1.8,10,10,0,0,1,2,3.6,14.7,14.7,0,0,1,1,5.6v1.6s8-4,12-4c0,0,0,3,1,4s-7.9,4.4-12.2,5.8a4.4,4.4,0,0,1-2,.1,4,4,0,0,1-2.8-1.9,24.1,24.1,0,0,1-3-8,8.7,8.7,0,0,1-2,9s-2.5,10.5,1,17c0,0-17,3-24,0,0,0,3.5-10.5,3-16A8.1,8.1,0,0,1,38,125Z"/>
  <path class="b" d="M46,102s2,5,0,7c0,0,4.5,7.5,8.5.5,0,0-1.5-4.5.5-7.5Z"/>
  <g>
    <polygon class="d" points="45.4 107.8 50 112.3 47.6 116.1 44 110 45.4 107.8"/>
    <polygon class="e" points="54.6 107.8 50 112.3 51.4 116.2 56 110 54.6 107.8"/>
  </g>
  <path class="a" d="M63.5,90.5c0,7.5-5.7,11.1-12,13.9a3.1,3.1,0,0,1-2.5.2c-5.9-2.2-12-6.6-12-14.1S42.9,76,50.3,76,63.5,82.5,63.5,90.5Z"/>
  <g>
    <path class="f" d="M45.4,80.7a20,20,0,0,1-5.7,5.6,5.6,5.6,0,0,0-2.5,3.3A24.4,24.4,0,0,0,36,95s0-7,1-9c0,0,3-7,6-8Z"/>
    <rect class="g" x="52.5" y="88.5" width="6" height="4" rx="1.4" ry="1.4"/>
    <rect class="g" x="40.5" y="88.5" width="6" height="4" rx="1.4" ry="1.4"/>
    <path class="f" d="M43,78s7.5,9.5,15,11a6.8,6.8,0,0,1,4,4c1,3-.5,2.5,1.5,6.5,0,0-.7-3.5.2-5.8a10.5,10.5,0,0,0,1-5.2,14.4,14.4,0,0,0-5.2-10S52.5,71.5,43,78Z"/>
    <path class="g" d="M46.5,90.5a10.6,10.6,0,0,1,6,0"/>
    <ellipse class="f" cx="50" cy="73" rx="6" ry="4.8"/>
  </g>
</svg>
