<?xml version="1.0" encoding="utf-8"?>
<!-- Generator: Adobe Illustrator 21.1.0, SVG Export Plug-In . SVG Version: 6.00 Build 0)  -->
<svg version="1.1" id="offer9" xmlns="http://www.w3.org/2000/svg" xmlns:xlink="http://www.w3.org/1999/xlink" x="0px" y="0px"
	 viewBox="0 0 900 800" style="enable-background:new 0 0 900 800;" xml:space="preserve">
<style type="text/css">
	.st0{fill:none;}
	.st1{fill:#0C508F;}
	.st2{fill:#EF8EE6;}
	.st3{fill:#3785BF;}
	.st4{fill:#FAFCFC;}
	.st5{fill:#89CDE5;}
	.st6{fill:#F3912E;}
	.st7{fill:#C4628A;}
	.st8{fill:none;stroke:#000000;stroke-width:0.5;stroke-miterlimit:10;}
	.st9{fill:#DB761B;}
	.st10{fill:#FCFAFC;}
	.st11{fill:#B83917;}
	.st12{fill:#D27C9D;}
	.st13{fill:none;stroke:#C4628A;stroke-miterlimit:10;}
</style>
<symbol  id="_1" viewBox="-50 -100 100 200">
	<g id="baggrund_1_">
		<rect x="-50" y="-100" class="st0" width="100" height="200"/>
	</g>
	<g id="ben_1_">
		<path class="st1" d="M6.4,87.7c0,0-5.2-12.1,0.2-11.4S6.4,87.7,6.4,87.7z"/>
		<path class="st1" d="M-6.6,87.7c0,0-5.2-12.1,0.2-11.4S-6.6,87.7-6.6,87.7z"/>
		<path class="st2" d="M-9,34c0,0,2,7,0,11c0,0-2.9,5.8,1.7,23.1c0.2,0.6,0.3,1.2,0.3,1.9c0,2.2,0.2,7.9,1,11.1c1,4,6,3,5,0
			s0-16,0-16s2.3-14.6,1.5-18.9c-0.3-1.7-0.5-3.5-0.4-5.2c0-2.3,0.3-4.7,0.9-6.9C2,31-9,34-9,34z"/>
		<path class="st3" d="M-4.7,82.7c0.4,0.5,1.4,1,3.6-0.2c0.2-0.1,0.3,0,0.4,0.1c0,0,0,0,0,0C0,83.9,2.3,89-2,89
			c-5.8,0-5,0.3-3.2-6.2c0-0.2,0.2-0.3,0.4-0.2C-4.8,82.6-4.7,82.6-4.7,82.7z"/>
		<path class="st2" d="M15.1,34c0,0-2,7,0,11c0,0,2.8,5.7-1.7,22.7c-0.2,0.8-0.3,1.7-0.4,2.6c0,3.6-0.3,7.2-1,10.7c-1,4-6,3-5,0
			s0-16,0-16S4.6,49.4,5.7,45.7c0.3-1,0.4-1.9,0.4-2.9C6,40.2,5.8,36,5.1,34C4.1,31,15.1,34,15.1,34z"/>
		<path class="st3" d="M8.6,83c1.2,0,2.4-0.4,3.4-1c0.7,1.3,3.4,7-1,7c-5.6,0-5.7-0.1-4-6C7.1,82.6,8,83,8.6,83z"/>
		<path class="st4" d="M-13-6c0,0-5-2-6,41h45c0,0-3-30-10-41H-13z"/>
	</g>
	<g id="trøje_1_">
		<path class="st5" d="M24-47c-0.6-2.6-2.5-7.7-8-7h-29c0,0-5.2-1-5.6,9.5c0,0,0.6,6.3-1.9,10.9S-25-21-25-21s-2,4-1,7
			c0.5,1.3,0.8,2.6,1,4c0,0,1,2,4,0s6-3,6-8c0,0,0-2,2-6c0,0,2,13-1,17s3,2,3,2s23,1,24-1c0,0,6,2,3-3s-3-7-3-7S24.2-46,24-47z"/>
		<path class="st1" d="M24-47c-1,9,1.5,25.5,1.5,25.5s1,3-1,3c0,0-2,5-8,10c0,0-3-4-3-7l5-7l-2-4c0,0,2.5-8.5,2.5-14.5L24-47z"/>
	</g>
	<g id="hår2_1_">
		<path class="st6" d="M19-73.5c0,3.5-0.9,6.9-2.5,10c-3.1,5.7-8.6,9.5-15,9.5c-6,0-10.8,2.2-13.9-3c-1.9-3.1-3.6-12.5-3.6-16.5
			C-16-84.3-8.2-93,1.5-93S19-84.3,19-73.5z"/>
		<path class="st6" d="M-8-27l-6-33.8L18-67l-8,40C10-27-2.5-20.9-8-27z"/>
	</g>
</symbol>
<symbol  id="_1_2" viewBox="-50 -100 100 200">
	<g id="baggrund_copy-2_1_">
		<rect x="-50" y="-100" class="st0" width="100" height="200"/>
	</g>
	<g id="ben_copy-2_1_">
		<path class="st7" d="M9.1,35.4c0,0-1.6,3.2,3.2,8.6s7.5,17.1,9.7,33s-5,0.7-5,0.7L0.2,43.1l-1.5-1.7l0.2-6.5L9.1,35.4z"/>
		<path class="st2" d="M0.7,40.3c0,0-3.3,1.5-3.1,8.7s-5.4,17.9-13.9,31.4s-4.2-2.7-4.2-2.7l9.6-37.4v-2.3l4.3-4.8L0.7,40.3z"/>
		<path class="st1" d="M22.3,80.9l-4.4,0.6c0,0-0.2,5.4-5.5,6.5s0,5.9,0,5.9l8-4.7l6.6-3.5C27,85.7,28.2,82.1,22.3,80.9z"/>
		<path class="st3" d="M-17,82.6l-3.1-3.2c0,0-4.4,3.1-8.5-0.5s-4.7,3.5-4.7,3.5l8.5,3.6l6.8,3.2C-18,89.2-14.4,88-17,82.6z"/>
	</g>
	<g id="krop_copy_1_">
		<path class="st8" d="M-17.8-96"/>
		<path class="st2" d="M-15.9-88.6l-2.4,15.8l2.2,5.4l-0.5,3c0,0-1.7,3.3,1,3.7c0,0,1,0.2-0.2,1s0.1,2.5,2.1,2.8c0,0-2.1,0.7-0.3,2
			c-0.5,1.3-0.1,2.8,1,3.7c1,1,2.1,1,4,0.6C-2.6-52,6.4-55,6.8-58.1L8-63.7c0.7,0.6,1.9,0.5,2.5-0.2c0.1-0.1,0.2-0.2,0.2-0.4
			c1.3-1.8,1.6-2.7,3.2-4c1.6-1.3-0.8-5.7-3.4-2.1c0,0-18.2-8.6-19.1-10.6S-15.9-88.6-15.9-88.6z"/>
		<path class="st6" d="M-15.9-88.6c0,0,5.5-9.3,21.1-5.8C20.9-91,18.8-71.1,18.8-71.1S16-55,5-56l3-8c0,0,2.3,1.5,4-3
			c0.3-0.9,2.4-1.9,2.2-2.9c-0.2-1.3-1.1-2.4-3.6-0.5c0,0-16.4-5-19.4-8.2c-0.6-0.7-1.2-1.3-1.9-1.8C-12.3-81.4-14.7-83.9-15.9-88.6
			z"/>
		<path class="st9" d="M-14-54.9c0,0-2,6.9,9,2.9c1-0.4,3.5,26.1,3,27l-18,3l-2.9-54.5c0,0,1.5-9.9,6.9-12.1l-2.4,15.8l2.2,5.4
			l-0.5,3c0,0-1.5,2.8,0.5,3.1s0.8,1.1,0.8,1.1s-1.5,2.8,1.5,3.3C-13.7-56.9-15.9-56.2-14-54.9z"/>
		<path class="st7" d="M-5.5-51.5c0,0,2.5,5.5-0.5,7.5s-8,10-8,10s-5,6,0,12s3,19,3,19l-3,9h27l-1-18c4-36-2-32-5-34S5-56,5-56"/>
		<path class="st10" d="M21,47c0-40-8-41-8-41h-27l-9,41H21z"/>
		<path class="st7" d="M-32.3-15.5l-9.2-2c0,0-2.2-0.3-0.6,1.3c0.9,0.9,2.3,1.2,3.5,0.9l-7.3,0.5c0,0-1.9,0.7-0.6,1.3l1.3,0.6
			c0,0-4.1,0.4-0.6,1.3c0,0-1.5,1.6,0.7,1.9l3.2-0.1c0,0-1.9,0.7,0.3,0.9c0,0,3.2-0.1,4.7-1.7c0.9-0.9,2-1.6,3.3-1.9l0.9,0.5
			L-32.3-15.5z"/>
		<path class="st3" d="M-11.2-27.8c0,0,8.3-8.3,8.1,3.8c0,0-3.4,7.2-7.8,11.8S-34.1-12-34.1-12l0.8-4c0,0,15.6-2.7,18.3-1.4
			C-15-17.4-13.8-24.6-11.2-27.8z"/>
		<path class="st5" d="M-8.6-41.5C-8.6-41.5-7-37,7-46c0,0,12-2,5,34l1,18h-27l3-9c0,0,1-13-1.7-17C-15.2-23.7-21.1-30.1-8.6-41.5z"
			/>
		<path class="st2" d="M-5.4-6.2L-14.3-3c0,0-2,1,0.2,1.4c1.3,0.3,2.6-0.2,3.4-1.1l-5.9,4.3c0,0-1.2,1.6,0.2,1.4l1.4-0.2
			c0,0-3.3,2.5,0.2,1.4c0,0-0.5,2.2,1.6,1.2l2.6-1.7c0,0-1.2,1.6,0.8,0.6c0,0,2.6-1.7,3.1-3.9C-6.5-0.9-5.9-2.1-5-3h1L-5.4-6.2z"/>
	</g>
	<g id="arme_copy_1_">
		<path class="st3" d="M-0.6-29.4c0,0-0.2-11.7,8.4-3.2c0,0,2.8,7.5,3.1,13.8S-5.2-2-5.2-2l-2.3-3.4c0,0,9-13,11.8-14.1
			C4.2-19.5-0.1-25.3-0.6-29.4z"/>
	</g>
</symbol>
<symbol  id="_2" viewBox="-50 -100 100 200">
	<g id="baggrund_copy_1_">
		<rect x="-50" y="-100" class="st0" width="100" height="200"/>
	</g>
	<g id="ben_copy_1_">
		<path class="st1" d="M6.4,87.7c0,0-5.2-12.1,0.2-11.4S6.4,87.7,6.4,87.7z"/>
		<path class="st1" d="M-6.6,87.7c0,0-5.2-12.1,0.2-11.4S-6.6,87.7-6.6,87.7z"/>
		<path class="st2" d="M-9,34c0,0,2,7,0,11c0,0-2.9,5.8,1.7,23.1c0.2,0.6,0.3,1.2,0.3,1.9c0,2.2,0.2,7.9,1,11.1c1,4,6,3,5,0
			s0-16,0-16s2.3-14.6,1.5-18.9c-0.3-1.7-0.5-3.5-0.4-5.2c0-2.3,0.3-4.7,0.9-6.9C2,31-9,34-9,34z"/>
		<path class="st3" d="M-4.7,82.7c0.4,0.5,1.4,1,3.6-0.2c0.2-0.1,0.3,0,0.4,0.1c0,0,0,0,0,0C0,83.9,2.3,89-2,89
			c-5.8,0-5,0.3-3.2-6.2c0-0.2,0.2-0.3,0.4-0.2C-4.8,82.6-4.7,82.6-4.7,82.7z"/>
		<path class="st2" d="M15.1,34c0,0-2,7,0,11c0,0,2.8,5.7-1.7,22.7c-0.2,0.8-0.3,1.7-0.4,2.6c0,3.6-0.3,7.2-1,10.7c-1,4-6,3-5,0
			s0-16,0-16S4.6,49.4,5.7,45.7c0.3-1,0.4-1.9,0.4-2.9C6,40.2,5.8,36,5.1,34C4.1,31,15.1,34,15.1,34z"/>
		<path class="st3" d="M8.6,83c1.2,0,2.4-0.4,3.4-1c0.7,1.3,3.4,7-1,7c-5.6,0-5.7-0.1-4-6C7.1,82.6,8,83,8.6,83z"/>
		<path class="st4" d="M-13-6c0,0-5-2-6,41h45c0,0-3-30-10-41H-13z"/>
	</g>
	<g id="trøje_copy_1_">
		<path class="st5" d="M24-47c-0.6-2.6-2.5-7.7-8-7h-29c0,0-5.2-1-5.6,9.5c0,0,0.6,6.3-1.9,10.9S-25-21-25-21s-2,4-1,7
			c0.5,1.3,0.8,2.6,1,4c0,0,1,2,4,0s6-3,6-8c0,0,0-2,2-6c0,0,2,13-1,17s3,2,3,2s23,1,24-1c0,0,6,2,3-3s-3-7-3-7S24.2-46,24-47z"/>
		<path class="st1" d="M24-47c-1,9,1.5,25.5,1.5,25.5s1,3-1,3c0,0-2,5-8,10c0,0-3-4-3-7l5-7l-2-4c0,0,2.5-8.5,2.5-14.5L24-47z"/>
	</g>
	<g id="blod_1_">
		<path class="st11" d="M2,14c0,0-2,0-1,1s0,1,0,1s0,1,1,0s1,0,1,0s1,0,0-1C3,15,3,12,2,14z"/>
		<g id="hår2_copy_1_">
			<path class="st6" d="M19-73.5c0,3.5-0.9,6.9-2.5,10c-3.1,5.7-8.6,9.5-15,9.5c-6,0-10.8,2.2-13.9-3c-1.9-3.1-3.6-12.5-3.6-16.5
				C-16-84.3-8.2-93,1.5-93S19-84.3,19-73.5z"/>
			<path class="st6" d="M-8-27l-6-33.8L18-67l-8,40C10-27-2.5-20.9-8-27z"/>
		</g>
	</g>
</symbol>
<symbol  id="_2_2" viewBox="-50 -100 100 200">
	<g id="baggrund_copy_2-2_1_">
		<rect x="-50" y="-100" class="st0" width="100" height="200"/>
	</g>
	<g id="ben_copy_2-2_1_">
		<path class="st7" d="M9.1,35.4c0,0,7.7,0.4,6.9,7.6c-1,9,37.8,26,21,26C30,69,2.4,46.8,0,43l0.2,0.1l-1.5-1.7l0.2-6.5L9.1,35.4z"
			/>
		<path class="st2" d="M-2.6,35.9c0,0-2.9,2.1-1.2,9.1s-1.5,18.6-7,33.6s-4.7-1.7-4.7-1.7l1.5-38.5l-0.5-2.2l3.2-5.6L-2.6,35.9z"/>
		<path class="st1" d="M39.2,65.1l-3,3.3c0,0,3.3,4.2-0.1,8.5s3.8,4.6,3.8,4.6l3.1-8.7l2.8-7C45.9,65.7,44.5,62.1,39.2,65.1z"/>
		<path class="st3" d="M-11.9,80.5l-3.8-2.4c0,0-3.6,4-8.4,1.5s-3.8,4.5-3.8,4.5l9.1,1.5l7.4,1.6C-11.3,87.2-8,85.2-11.9,80.5z"/>
	</g>
	<g id="krop_copy_2_1_">
		<path class="st8" d="M-17.8-96"/>
		<path class="st2" d="M-15.9-88.6l-2.4,15.8l2.2,5.4l-0.5,3c0,0-1.7,3.3,1,3.7c0,0,1,0.2-0.2,1s0.1,2.5,2.1,2.8c0,0-2.1,0.7-0.3,2
			c-0.5,1.3-0.1,2.8,1,3.7c1,1,2.1,1,4,0.6C-2.6-52,6.4-55,6.8-58.1L8-63.7c0.7,0.6,1.9,0.5,2.5-0.2c0.1-0.1,0.2-0.2,0.2-0.4
			c1.3-1.8,1.6-2.7,3.2-4c1.6-1.3-0.8-5.7-3.4-2.1c0,0-18.2-8.6-19.1-10.6S-15.9-88.6-15.9-88.6z"/>
		<path class="st6" d="M-15.9-88.6c0,0,5.5-9.3,21.1-5.8C20.9-91,18.8-71.1,18.8-71.1S16-55,5-56l3-8c0,0,2.3,1.5,4-3
			c0.3-0.9,2.4-1.9,2.2-2.9c-0.2-1.3-1.1-2.4-3.6-0.5c0,0-16.4-5-19.4-8.2c-0.6-0.7-1.2-1.3-1.9-1.8C-12.3-81.4-14.7-83.9-15.9-88.6
			z"/>
		<path class="st9" d="M-14-54.9c0,0-2,6.9,9,2.9c1-0.4,3.5,26.1,3,27l-18,3l-2.9-54.5c0,0,1.5-9.9,6.9-12.1l-2.4,15.8l2.2,5.4
			l-0.5,3c0,0-1.5,2.8,0.5,3.1s0.8,1.1,0.8,1.1s-1.5,2.8,1.5,3.3C-13.7-56.9-15.9-56.2-14-54.9z"/>
		<path class="st7" d="M-5.5-51.5c0,0,2.5,5.5-0.5,7.5s-8,10-8,10s-5,6,0,12s3,19,3,19l-3,9h27l-1-18c4-36-2-32-5-34S5-56,5-56"/>
		<path class="st10" d="M21,47c0-40-8-41-8-41h-27l-9,41H21z"/>
		<path class="st7" d="M-23.2-12.6l-9.4,0.8c0,0-2.2,0.4-0.2,1.4c1.1,0.6,2.5,0.5,3.6-0.2L-36-8c0,0-1.6,1.2-0.2,1.4l1.4,0.2
			c0,0-3.8,1.5-0.2,1.4c0,0-1,2,1.2,1.6l3-1c0,0-1.6,1.2,0.6,0.8c0,0,3-1,4-3c0.6-1.2,1.5-2.1,2.6-2.8l1,0.3L-23.2-12.6z"/>
		<path class="st3" d="M-7.3-29.3c0,0,5.9-10.1,8.9,1.6c0,0-1.4,7.9-4.5,13.4s-22.5,6.1-22.5,6.1l-0.3-4.1c0,0,14.4-6.5,17.3-6
			C-8.3-18.3-9-25.6-7.3-29.3z"/>
		<path class="st5" d="M-8.6-41.5C-8.6-41.5-7-37,7-46c0,0,12-2,5,34l1,18h-27l3-9c0,0,1-13-1.7-17C-15.2-23.7-21.1-30.1-8.6-41.5z"
			/>
		<path class="st2" d="M-2.3-7l-8.3,4.5c0,0-1.8,1.3,0.4,1.4C-8.9-1-7.7-1.6-7-2.7l-5.2,5.1c0,0-1,1.8,0.4,1.4l1.4-0.4
			c0,0-2.8,3,0.4,1.4c0,0-0.1,2.2,1.8,1l2.3-2.1c0,0-1,1.8,0.9,0.5c0,0,2.3-2.1,2.4-4.4c0-1.3,0.5-2.6,1.2-3.6l1-0.2L-2.3-7z"/>
	</g>
	<g id="arme_copy_2_1_">
		<path class="st3" d="M-2.3-29.2c0,0-2.2-11.5,7.7-4.6c0,0,4.1,6.9,5.4,13.1S-2.1-1.4-2.1-1.4L-5-4.3c0,0,6.6-14.4,9.1-15.9
			C4.2-20.2-1.1-25.2-2.3-29.2z"/>
	</g>
</symbol>
<symbol  id="_3" viewBox="-50 -100 100 200">
	<g id="baggrund_copy_2_1_">
		<rect x="-50" y="-100" class="st0" width="100" height="200"/>
	</g>
	<g id="ansigt_copy_2_1_">
		<path class="st8" d="M-24.5-93.5"/>
		<path class="st7" d="M14-53L8-66c0,0-3,1-3,0l0.5,7.5C5.5-58.5,4-54,1-53H14z"/>
		<path class="st2" d="M-21.5-86.5v16l3,5v3c0,0-1.2,3.5,1.5,3.5c0,0,1,0,0,1s0.5,2.5,2.5,2.5c0,0-2,1,0,2h17c0,0,3.2-0.7,3.1-6.3
			l0.3-5.7c0.8,0.5,1.9,0.2,2.4-0.6c0.1-0.1,0.1-0.3,0.2-0.4c1-2,1.2-2.9,2.6-4.4c1.4-1.5-1.6-5.5-3.6-1.5c0,0-19.3-5.7-20.5-7.5
			S-21.5-86.5-21.5-86.5z"/>
		<path class="st12" d="M-37-65"/>
	</g>
	<g id="ben_copy_2_1_">
		<path class="st1" d="M6.4,87.7c0,0-5.2-12.1,0.2-11.4S6.4,87.7,6.4,87.7z"/>
		<path class="st1" d="M-6.6,87.7c0,0-5.2-12.1,0.2-11.4S-6.6,87.7-6.6,87.7z"/>
		<path class="st2" d="M-9,34c0,0,2,7,0,11c0,0-2.9,5.8,1.7,23.1c0.2,0.6,0.3,1.2,0.3,1.9c0,2.2,0.2,7.9,1,11.1c1,4,6,3,5,0
			s0-16,0-16s2.3-14.6,1.5-18.9c-0.3-1.7-0.5-3.5-0.4-5.2c0-2.3,0.3-4.7,0.9-6.9C2,31-9,34-9,34z"/>
		<path class="st3" d="M-4.7,82.7c0.4,0.5,1.4,1,3.6-0.2c0.2-0.1,0.3,0,0.4,0.1c0,0,0,0,0,0C0,83.9,2.3,89-2,89
			c-5.8,0-5,0.3-3.2-6.2c0-0.2,0.2-0.3,0.4-0.2C-4.8,82.6-4.7,82.6-4.7,82.7z"/>
		<path class="st2" d="M15.1,34c0,0-2,7,0,11c0,0,2.8,5.7-1.7,22.7c-0.2,0.8-0.3,1.7-0.4,2.6c0,3.6-0.3,7.2-1,10.7c-1,4-6,3-5,0
			s0-16,0-16S4.6,49.4,5.7,45.7c0.3-1,0.4-1.9,0.4-2.9C6,40.2,5.8,36,5.1,34C4.1,31,15.1,34,15.1,34z"/>
		<path class="st3" d="M8.6,83c1.2,0,2.4-0.4,3.4-1c0.7,1.3,3.4,7-1,7c-5.6,0-5.7-0.1-4-6C7.1,82.6,8,83,8.6,83z"/>
		<path class="st4" d="M-13-6c0,0-5-2-6,41h45c0,0-3-30-10-41H-13z"/>
	</g>
	<g id="hår_copy_2_1_">
		<path class="st6" d="M-21.5-86.5c0,0,4-10,20-9s17,21,17,21s1,10-5,14L8-66c0,0,0.6-3,2-4c0.9-0.5,1.4-1.6,1.2-2.6
			c-0.4-1.2-1.4-2.2-3.7,0.1c0,0-17-2.4-20.4-5.1c-0.7-0.6-1.4-1.1-2.2-1.5C-16.8-80-19.6-82-21.5-86.5z"/>
		<path class="st9" d="M-14.5-53.5c0,0-4,1-3.5,12.5c0,1.1,0.4,2,0,3l-7,18l-1.5-53.5c0,0,0-10,5-13v16l3,5v3c0,0-1,3,1,3s1,1,1,1
			s-1,3,2,3C-14.5-55.5-16.5-54.5-14.5-53.5z"/>
	</g>
	<g id="trøje_copy_2_1_">
		<path class="st5" d="M24-47c-0.6-2.6-2.5-7.7-8-7h-29c0,0-5.2-1-5.6,9.5c0,0,0.6,6.3-1.9,10.9S-25-21-25-21s-2,4-1,7
			c0.5,1.3,0.8,2.6,1,4c0,0,1,2,4,0s6-3,6-8c0,0,0-2,2-6c0,0,2,13-1,17s3,2,3,2s23,1,24-1c0,0,6,2,3-3s-3-7-3-7S24.2-46,24-47z"/>
		<path class="st1" d="M24-47c-1,9,1.5,25.5,1.5,25.5s1,3-1,3c0,0-2,5-8,10c0,0-3-4-3-7l5-7l-2-4c0,0,2.5-8.5,2.5-14.5L24-47z"/>
	</g>
	<g id="blod_copy_1_">
		<path class="st11" d="M1.7,14c0,0-3.1,0-1.6,1.4s0,1.4,0,1.4s0,1.4,1.6,0s1.6,0,1.6,0s1.6,0,0-1.4C3.3,15.4,3.3,11.1,1.7,14z"/>
	</g>
</symbol>
<symbol  id="_3_2" viewBox="-50 -100 100 200">
	<g id="baggrund_copy_3-2_1_">
		<rect x="-50" y="-100" class="st0" width="100" height="200"/>
	</g>
	<g id="ben_copy_3-2_1_">
		<path class="st7" d="M-9.9,35.4c0,0,7.7,0.4,6.9,7.6c-1,9,37.8,26,21,26c-7,0-34.6-22.2-37-26l0.2,0.1l-1.5-1.7l0.1-6.5L-9.9,35.4
			z"/>
		<path class="st2" d="M1.8,34.6c0,0-2.6,2.5,0.2,9.2s1.3,18.6-1.9,34.3s-4.9-1-4.9-1l-4.3-38.3l-0.8-2.1l2.3-6L1.8,34.6z"/>
		<path class="st1" d="M20.2,65.1l-3,3.3c0,0,3.3,4.2-0.1,8.5s3.8,4.6,3.8,4.6l3.1-8.7l2.8-7C26.9,65.7,25.5,62.1,20.2,65.1z"/>
		<path class="st3" d="M-0.7,80l-4.1-1.8c0,0-2.9,4.5-8.1,2.7S-16,86-16,86l9.3,0.1l7.5,0.4C0.8,86.6,3.8,84.1-0.7,80z"/>
	</g>
	<g id="krop_copy_3_1_">
		<path class="st8" d="M-17.8-96"/>
		<path class="st2" d="M-15.9-88.6l-2.4,15.8l2.2,5.4l-0.5,3c0,0-1.7,3.3,1,3.7c0,0,1,0.2-0.2,1s0.1,2.5,2.1,2.8c0,0-2.1,0.7-0.3,2
			c-0.5,1.3-0.1,2.8,1,3.7c1,1,2.1,1,4,0.6C-2.6-52,6.4-55,6.8-58.1L8-63.7c0.7,0.6,1.9,0.5,2.5-0.2c0.1-0.1,0.2-0.2,0.2-0.4
			c1.3-1.8,1.6-2.7,3.2-4c1.6-1.3-0.8-5.7-3.4-2.1c0,0-18.2-8.6-19.1-10.6S-15.9-88.6-15.9-88.6z"/>
		<path class="st6" d="M-15.9-88.6c0,0,5.5-9.3,21.1-5.8C20.9-91,18.8-71.1,18.8-71.1S16-55,5-56l3-8c0,0,2.3,1.5,4-3
			c0.3-0.9,2.4-1.9,2.2-2.9c-0.2-1.3-1.1-2.4-3.6-0.5c0,0-16.4-5-19.4-8.2c-0.6-0.7-1.2-1.3-1.9-1.8C-12.3-81.4-14.7-83.9-15.9-88.6
			z"/>
		<path class="st9" d="M-14-54.9c0,0-2,6.9,9,2.9c1-0.4,3.5,26.1,3,27l-18,3l-2.9-54.5c0,0,1.5-9.9,6.9-12.1l-2.4,15.8l2.2,5.4
			l-0.5,3c0,0-1.5,2.8,0.5,3.1s0.8,1.1,0.8,1.1s-1.5,2.8,1.5,3.3C-13.7-56.9-15.9-56.2-14-54.9z"/>
		<path class="st7" d="M-5.5-51.5c0,0,2.5,5.5-0.5,7.5s-8,10-8,10s-5,6,0,12s3,19,3,19l-3,9h27l-1-18c4-36-2-32-5-34S5-56,5-56"/>
		<path class="st10" d="M21,47c0-40-8-41-8-41h-27l-9,41H21z"/>
		<path class="st7" d="M-6-8.5l-7.3,5.9c0,0-1.6,1.6,0.6,1.3c1.3-0.2,2.4-1,2.9-2.2l-4.2,6c0,0-0.7,1.9,0.6,1.3l1.3-0.6
			c0,0-2.3,3.4,0.6,1.3c0,0,0.3,2.2,1.9,0.7l1.9-2.5c0,0-0.7,1.9,0.9,0.3c0,0,1.9-2.5,1.6-4.7c-0.2-1.3,0-2.6,0.5-3.8l0.9-0.3
			L-6-8.5z"/>
		<path class="st3" d="M-2.3-31.2c0,0-0.8-11.7,8.2-3.7c0,0,3.2,7.3,3.9,13.6S-5.3-3.6-5.3-3.6l-2.5-3.2c0,0,8.2-13.5,11-14.7
			C3.1-21.6-1.6-27.1-2.3-31.2z"/>
		<path class="st5" d="M-8.6-41.5C-8.6-41.5-7-37,7-46c0,0,12-2,5,34l1,18h-27l3-9c0,0,1-13-1.7-17C-15.2-23.7-21.1-30.1-8.6-41.5z"
			/>
		<path class="st2" d="M-16.6-10.6l-9-2.9c0,0-2.2-0.5-0.7,1.2c0.8,1,2.1,1.4,3.4,1.2l-7.3-0.2c0,0-1.9,0.5-0.7,1.2l1.2,0.7
			c0,0-4.1,0-0.7,1.2c0,0-1.7,1.5,0.5,1.9l3.1,0.2c0,0-1.9,0.5,0.2,1c0,0,3.1,0.2,4.9-1.2c1-0.9,2.2-1.4,3.5-1.6l0.8,0.6L-16.6-10.6
			z"/>
	</g>
	<g id="arme_copy_3_1_">
		<path class="st3" d="M-0.5-27.9c0,0,6.8-9.5,8.7,2.4c0,0-2.2,7.7-5.7,12.9s-22.9,3.9-22.9,3.9l0.1-4.1c0,0,15-5.1,17.8-4.3
			C-2.5-17-2.5-24.3-0.5-27.9z"/>
	</g>
</symbol>
<symbol  id="_4" viewBox="-50 -100 100 200">
	<g id="baggrund_copy_3_1_">
		<rect x="-50" y="-100" class="st0" width="100" height="200"/>
	</g>
	<g id="ansigt_copy_3_1_">
		<path class="st8" d="M-24.5-93.5"/>
		<path class="st7" d="M14-53L8-66c0,0-3,1-3,0l0.5,7.5C5.5-58.5,4-54,1-53H14z"/>
		<path class="st2" d="M-21.5-86.5v16l3,5v3c0,0-1.2,3.5,1.5,3.5c0,0,1,0,0,1s0.5,2.5,2.5,2.5c0,0-2,1,0,2h17c0,0,3.2-0.7,3.1-6.3
			l0.3-5.7c0.8,0.5,1.9,0.2,2.4-0.6c0.1-0.1,0.1-0.3,0.2-0.4c1-2,1.2-2.9,2.6-4.4c1.4-1.5-1.6-5.5-3.6-1.5c0,0-19.3-5.7-20.5-7.5
			S-21.5-86.5-21.5-86.5z"/>
		<path class="st12" d="M-37-65"/>
	</g>
	<g id="ben_copy_3_1_">
		<path class="st1" d="M6.4,87.7c0,0-5.2-12.1,0.2-11.4S6.4,87.7,6.4,87.7z"/>
		<path class="st1" d="M-6.6,87.7c0,0-5.2-12.1,0.2-11.4S-6.6,87.7-6.6,87.7z"/>
		<path class="st2" d="M-9,34c0,0,2,7,0,11c0,0-2.9,5.8,1.7,23.1c0.2,0.6,0.3,1.2,0.3,1.9c0,2.2,0.2,7.9,1,11.1c1,4,6,3,5,0
			s0-16,0-16s2.3-14.6,1.5-18.9c-0.3-1.7-0.5-3.5-0.4-5.2c0-2.3,0.3-4.7,0.9-6.9C2,31-9,34-9,34z"/>
		<path class="st3" d="M-4.7,82.7c0.4,0.5,1.4,1,3.6-0.2c0.2-0.1,0.3,0,0.4,0.1c0,0,0,0,0,0C0,83.9,2.3,89-2,89
			c-5.8,0-5,0.3-3.2-6.2c0-0.2,0.2-0.3,0.4-0.2C-4.8,82.6-4.7,82.6-4.7,82.7z"/>
		<path class="st2" d="M15.1,34c0,0-2,7,0,11c0,0,2.8,5.7-1.7,22.7c-0.2,0.8-0.3,1.7-0.4,2.6c0,3.6-0.3,7.2-1,10.7c-1,4-6,3-5,0
			s0-16,0-16S4.6,49.4,5.7,45.7c0.3-1,0.4-1.9,0.4-2.9C6,40.2,5.8,36,5.1,34C4.1,31,15.1,34,15.1,34z"/>
		<path class="st3" d="M8.6,83c1.2,0,2.4-0.4,3.4-1c0.7,1.3,3.4,7-1,7c-5.6,0-5.7-0.1-4-6C7.1,82.6,8,83,8.6,83z"/>
		<path class="st4" d="M-13-6c0,0-5-2-6,41h45c0,0-3-30-10-41H-13z"/>
	</g>
	<g id="hår_copy_3_1_">
		<path class="st6" d="M-21.5-86.5c0,0,4-10,20-9s17,21,17,21s1,10-5,14L8-66c0,0,0.6-3,2-4c0.9-0.5,1.4-1.6,1.2-2.6
			c-0.4-1.2-1.4-2.2-3.7,0.1c0,0-17-2.4-20.4-5.1c-0.7-0.6-1.4-1.1-2.2-1.5C-16.8-80-19.6-82-21.5-86.5z"/>
		<path class="st9" d="M-14.5-53.5c0,0-4,1-3.5,12.5c0,1.1,0.4,2,0,3l-7,18l-1.5-53.5c0,0,0-10,5-13v16l3,5v3c0,0-1,3,1,3s1,1,1,1
			s-1,3,2,3C-14.5-55.5-16.5-54.5-14.5-53.5z"/>
	</g>
	<g id="trøje_copy_3_1_">
		<path class="st5" d="M24-47c-0.6-2.6-2.5-7.7-8-7h-29c0,0-5.2-1-5.6,9.5c0,0,0.6,6.3-1.9,10.9S-25-21-25-21s-2,4-1,7
			c0.5,1.3,0.8,2.6,1,4c0,0,1,2,4,0s6-3,6-8c0,0,0-2,2-6c0,0,2,13-1,17s3,2,3,2s23,1,24-1c0,0,6,2,3-3s-3-7-3-7S24.2-46,24-47z"/>
		<path class="st1" d="M24-47c-1,9,1.5,25.5,1.5,25.5s1,3-1,3c0,0-2,5-8,10c0,0-3-4-3-7l5-7l-2-4c0,0,2.5-8.5,2.5-14.5L24-47z"/>
	</g>
	<g id="blod_copy_2_1_">
		<path class="st11" d="M2.2,13.2c0,0-3.8,0-1.9,1.7s0,1.7,0,1.7s0,1.7,1.9,0s1.9,0,1.9,0s1.9,0,0-1.7C4.1,14.9,4.1,9.7,2.2,13.2z"
			/>
	</g>
</symbol>
<symbol  id="_4_2" viewBox="-50 -100 100 200">
	<g id="baggrund_copy_4-2_1_">
		<rect x="-50" y="-100" class="st0" width="100" height="200"/>
	</g>
	<g id="ben_copy_4-2_1_">
		<path class="st7" d="M-0.4,34.8c0,0,1.9,7.4-5.2,8.8c-8.9,1.7-13.7,43.8-18.6,27.7c-2.1-6.7,11-39.6,13.9-43v0.2l1.3-1.9l6.2-1.8
			L-0.4,34.8z"/>
		<path class="st2" d="M3.5,29.2c0,0-1.6,3.2,3.2,8.7S14,55,16.1,70.9s-5,0.6-5,0.6L-5.4,36.7l-1.5-1.7l0.2-6.5L3.5,29.2z"/>
		<path class="st1" d="M-19.8,72.4l-4.1-1.9c0,0-3.1,4.4-8.1,2.5s-3.2,4.9-3.2,4.9l9.3,0.4l7.5,0.7C-18.4,78.9-15.4,76.5-19.8,72.4z
			"/>
		<path class="st3" d="M16,73l-4.5-0.4c0,0-1.3,5.2-6.8,5.2s-1.3,5.8-1.3,5.8l8.8-2.9l7.2-2C19.6,78.7,21.5,75.4,16,73z"/>
	</g>
	<g id="krop_copy_4_1_">
		<path class="st8" d="M-17.8-96"/>
		<path class="st2" d="M-15.9-88.6l-2.4,15.8l2.2,5.4l-0.5,3c0,0-1.7,3.3,1,3.7c0,0,1,0.2-0.2,1s0.1,2.5,2.1,2.8c0,0-2.1,0.7-0.3,2
			c-0.5,1.3-0.1,2.8,1,3.7c1,1,2.1,1,4,0.6C-2.6-52,6.4-55,6.8-58.1L8-63.7c0.7,0.6,1.9,0.5,2.5-0.2c0.1-0.1,0.2-0.2,0.2-0.4
			c1.3-1.8,1.6-2.7,3.2-4c1.6-1.3-0.8-5.7-3.4-2.1c0,0-18.2-8.6-19.1-10.6S-15.9-88.6-15.9-88.6z"/>
		<path class="st6" d="M-15.9-88.6c0,0,5.5-9.3,21.1-5.8C20.9-91,18.8-71.1,18.8-71.1S16-55,5-56l3-8c0,0,2.3,1.5,4-3
			c0.3-0.9,2.4-1.9,2.2-2.9c-0.2-1.3-1.1-2.4-3.6-0.5c0,0-16.4-5-19.4-8.2c-0.6-0.7-1.2-1.3-1.9-1.8C-12.3-81.4-14.7-83.9-15.9-88.6
			z"/>
		<path class="st9" d="M-14-54.9c0,0-2,6.9,9,2.9c1-0.4,3.5,26.1,3,27l-18,3l-2.9-54.5c0,0,1.5-9.9,6.9-12.1l-2.4,15.8l2.2,5.4
			l-0.5,3c0,0-1.5,2.8,0.5,3.1s0.8,1.1,0.8,1.1s-1.5,2.8,1.5,3.3C-13.7-56.9-15.9-56.2-14-54.9z"/>
		<path class="st7" d="M-5.5-51.5c0,0,2.5,5.5-0.5,7.5s-8,10-8,10s-5,6,0,12s3,19,3,19l-3,9h27l-1-18c4-36-2-32-5-34S5-56,5-56"/>
		<path class="st10" d="M21,47c0-40-8-41-8-41h-27l-9,41H21z"/>
		<path class="st7" d="M-6-8.5l-7.3,5.9c0,0-1.6,1.6,0.6,1.3c1.3-0.2,2.4-1,2.9-2.2l-4.2,6c0,0-0.7,1.9,0.6,1.3l1.3-0.6
			c0,0-2.3,3.4,0.6,1.3c0,0,0.3,2.2,1.9,0.7l1.9-2.5c0,0-0.7,1.9,0.9,0.3c0,0,1.9-2.5,1.6-4.7c-0.2-1.3,0-2.6,0.5-3.8l0.9-0.3
			L-6-8.5z"/>
		<path class="st3" d="M-2.3-31.2c0,0-0.8-11.7,8.2-3.7c0,0,3.2,7.3,3.9,13.6S-5.3-3.6-5.3-3.6l-2.5-3.2c0,0,8.2-13.5,11-14.7
			C3.1-21.6-1.6-27.1-2.3-31.2z"/>
		<path class="st5" d="M-8.6-41.5C-8.6-41.5-7-37,7-46c0,0,12-2,5,34l1,18h-27l3-9c0,0,1-13-1.7-17C-15.2-23.7-21.1-30.1-8.6-41.5z"
			/>
		<path class="st2" d="M-16.6-10.6l-9-2.9c0,0-2.2-0.5-0.7,1.2c0.8,1,2.1,1.4,3.4,1.2l-7.3-0.2c0,0-1.9,0.5-0.7,1.2l1.2,0.7
			c0,0-4.1,0-0.7,1.2c0,0-1.7,1.5,0.5,1.9l3.1,0.2c0,0-1.9,0.5,0.2,1c0,0,3.1,0.2,4.9-1.2c1-0.9,2.2-1.4,3.5-1.6l0.8,0.6L-16.6-10.6
			z"/>
	</g>
	<g id="arme_copy_4_1_">
		<path class="st3" d="M-0.5-27.9c0,0,6.8-9.5,8.7,2.4c0,0-2.2,7.7-5.7,12.9s-22.9,3.9-22.9,3.9l0.1-4.1c0,0,15-5.1,17.8-4.3
			C-2.5-17-2.5-24.3-0.5-27.9z"/>
	</g>
</symbol>
<symbol  id="_5" viewBox="-50 -100 100 200">
	<g id="baggrund_copy_4_1_">
		<rect x="-50" y="-100" class="st0" width="100" height="200"/>
	</g>
	<g id="ansigt_copy_4_1_">
		<path class="st8" d="M-24.5-93.5"/>
		<path class="st7" d="M14-53L8-66c0,0-3,1-3,0l0.5,7.5C5.5-58.5,4-54,1-53H14z"/>
		<path class="st2" d="M-21.5-86.5v16l3,5v3c0,0-1.2,3.5,1.5,3.5c0,0,1,0,0,1s0.5,2.5,2.5,2.5c0,0-2,1,0,2h17c0,0,3.2-0.7,3.1-6.3
			l0.3-5.7c0.8,0.5,1.9,0.2,2.4-0.6c0.1-0.1,0.1-0.3,0.2-0.4c1-2,1.2-2.9,2.6-4.4c1.4-1.5-1.6-5.5-3.6-1.5c0,0-19.3-5.7-20.5-7.5
			S-21.5-86.5-21.5-86.5z"/>
		<path class="st12" d="M-37-65"/>
	</g>
	<g id="ben_copy_4_1_">
		<path class="st1" d="M6.4,87.7c0,0-5.2-12.1,0.2-11.4S6.4,87.7,6.4,87.7z"/>
		<path class="st1" d="M-6.6,87.7c0,0-5.2-12.1,0.2-11.4S-6.6,87.7-6.6,87.7z"/>
		<path class="st2" d="M-9,34c0,0,2,7,0,11c0,0-2.9,5.8,1.7,23.1c0.2,0.6,0.3,1.2,0.3,1.9c0,2.2,0.2,7.9,1,11.1c1,4,6,3,5,0
			s0-16,0-16s2.3-14.6,1.5-18.9c-0.3-1.7-0.5-3.5-0.4-5.2c0-2.3,0.3-4.7,0.9-6.9C2,31-9,34-9,34z"/>
		<path class="st3" d="M-4.7,82.7c0.4,0.5,1.4,1,3.6-0.2c0.2-0.1,0.3,0,0.4,0.1c0,0,0,0,0,0C0,83.9,2.3,89-2,89
			c-5.8,0-5,0.3-3.2-6.2c0-0.2,0.2-0.3,0.4-0.2C-4.8,82.6-4.7,82.6-4.7,82.7z"/>
		<path class="st2" d="M15.1,34c0,0-2,7,0,11c0,0,2.8,5.7-1.7,22.7c-0.2,0.8-0.3,1.7-0.4,2.6c0,3.6-0.3,7.2-1,10.7c-1,4-6,3-5,0
			s0-16,0-16S4.6,49.4,5.7,45.7c0.3-1,0.4-1.9,0.4-2.9C6,40.2,5.8,36,5.1,34C4.1,31,15.1,34,15.1,34z"/>
		<path class="st3" d="M8.6,83c1.2,0,2.4-0.4,3.4-1c0.7,1.3,3.4,7-1,7c-5.6,0-5.7-0.1-4-6C7.1,82.6,8,83,8.6,83z"/>
		<path class="st4" d="M-13-6c0,0-5-2-6,41h45c0,0-3-30-10-41H-13z"/>
	</g>
	<g id="hår_copy_4_1_">
		<path class="st6" d="M-21.5-86.5c0,0,4-10,20-9s17,21,17,21s1,10-5,14L8-66c0,0,0.6-3,2-4c0.9-0.5,1.4-1.6,1.2-2.6
			c-0.4-1.2-1.4-2.2-3.7,0.1c0,0-17-2.4-20.4-5.1c-0.7-0.6-1.4-1.1-2.2-1.5C-16.8-80-19.6-82-21.5-86.5z"/>
		<path class="st9" d="M-14.5-53.5c0,0-4,1-3.5,12.5c0,1.1,0.4,2,0,3l-7,18l-1.5-53.5c0,0,0-10,5-13v16l3,5v3c0,0-1,3,1,3s1,1,1,1
			s-1,3,2,3C-14.5-55.5-16.5-54.5-14.5-53.5z"/>
	</g>
	<g id="trøje_copy_4_1_">
		<path class="st5" d="M24-47c-0.6-2.6-2.5-7.7-8-7h-29c0,0-5.2-1-5.6,9.5c0,0,0.6,6.3-1.9,10.9S-25-21-25-21s-2,4-1,7
			c0.5,1.3,0.8,2.6,1,4c0,0,1,2,4,0s6-3,6-8c0,0,0-2,2-6c0,0,2,13-1,17s3,2,3,2s23,1,24-1c0,0,6,2,3-3s-3-7-3-7S24.2-46,24-47z"/>
		<path class="st1" d="M24-47c-1,9,1.5,25.5,1.5,25.5s1,3-1,3c0,0-2,5-8,10c0,0-3-4-3-7l5-7l-2-4c0,0,2.5-8.5,2.5-14.5L24-47z"/>
	</g>
	<g id="blod_copy_3_1_">
		<path class="st11" d="M1.6,12.4c0,0-4.6,0-2.3,2.1s0,2.1,0,2.1s0,2.1,2.3,0s2.3,0,2.3,0s2.3,0,0-2.1C3.9,14.5,3.9,8.3,1.6,12.4z"
			/>
	</g>
</symbol>
<symbol  id="_5_2" viewBox="-50 -100 100 200">
	<g id="baggrund-3_1_">
		<rect x="-50" y="-100" class="st0" width="100" height="200"/>
	</g>
	<g id="ben-2_1_">
		<path class="st2" d="M9.1,35.4c0,0-1.6,3.2,3.2,8.6s7.5,17.1,9.7,33s-5,0.7-5,0.7L0.2,43.1l-1.5-1.7l0.2-6.5L9.1,35.4z"/>
		<path class="st7" d="M0.7,40.3c0,0-3.3,1.5-3.1,8.7s-5.4,17.9-13.9,31.4s-4.2-2.7-4.2-2.7l9.6-37.4v-2.3l4.3-4.8L0.7,40.3z"/>
		<path class="st3" d="M22.3,80.9l-4.4,0.6c0,0-0.2,5.4-5.5,6.5s0,5.9,0,5.9l8-4.7l6.6-3.5C27,85.7,28.2,82.1,22.3,80.9z"/>
		<path class="st1" d="M-17,82.6l-3.1-3.2c0,0-4.4,3.1-8.5-0.5s-4.7,3.5-4.7,3.5l8.5,3.6l6.8,3.2C-18,89.2-14.4,88-17,82.6z"/>
	</g>
	<g id="krop_1_">
		<path class="st8" d="M-17.8-96"/>
		<path class="st2" d="M-15.9-88.6l-2.4,15.8l2.2,5.4l-0.5,3c0,0-1.7,3.3,1,3.7c0,0,1,0.2-0.2,1s0.1,2.5,2.1,2.8c0,0-2.1,0.7-0.3,2
			c-0.5,1.3-0.1,2.8,1,3.7c1,1,2.1,1,4,0.6C-2.6-52,6.4-55,6.8-58.1L8-63.7c0.7,0.6,1.9,0.5,2.5-0.2c0.1-0.1,0.2-0.2,0.2-0.4
			c1.3-1.8,1.6-2.7,3.2-4c1.6-1.3-0.8-5.7-3.4-2.1c0,0-18.2-8.6-19.1-10.6S-15.9-88.6-15.9-88.6z"/>
		<path class="st6" d="M-15.9-88.6c0,0,5.5-9.3,21.1-5.8C20.9-91,18.8-71.1,18.8-71.1S16-55,5-56l3-8c0,0,2.3,1.5,4-3
			c0.3-0.9,2.4-1.9,2.2-2.9c-0.2-1.3-1.1-2.4-3.6-0.5c0,0-16.4-5-19.4-8.2c-0.6-0.7-1.2-1.3-1.9-1.8C-12.3-81.4-14.7-83.9-15.9-88.6
			z"/>
		<path class="st9" d="M-14-54.9c0,0-2,6.9,9,2.9c1-0.4,3.5,26.1,3,27l-18,3l-2.9-54.5c0,0,1.5-9.9,6.9-12.1l-2.4,15.8l2.2,5.4
			l-0.5,3c0,0-1.5,2.8,0.5,3.1s0.8,1.1,0.8,1.1s-1.5,2.8,1.5,3.3C-13.7-56.9-15.9-56.2-14-54.9z"/>
		<path class="st7" d="M-5.5-51.5c0,0,2.5,5.5-0.5,7.5s-8,10-8,10s-5,6,0,12s3,19,3,19l-3,9h27l-1-18c4-36-2-32-5-34S5-56,5-56"/>
		<path class="st10" d="M21,47c0-40-8-41-8-41h-27l-9,41H21z"/>
		<path class="st7" d="M13.4-10.8l-1.6,9.3c0,0-0.2,2.2,1.3,0.6c0.9-1,1.1-2.3,0.7-3.5l0.8,7.2c0,0,0.8,1.8,1.3,0.6L16.5,2
			c0,0,0.6,4.1,1.3,0.6c0,0,1.7,1.5,1.8-0.8l-0.2-3.2c0,0,0.8,1.8,0.9-0.4c0,0-0.2-3.2-1.9-4.6c-1-0.8-1.7-1.9-2.1-3.2l0.5-0.9
			L13.4-10.8z"/>
		<path class="st3" d="M0.1-31.3c0,0-8.6-7.9,3.5-8.3c0,0,7.4,3.1,12.2,7.2S17-9.2,17-9.2l-4.1-0.6c0,0-3.3-15.5-2.2-18.2
			C10.7-28.1,3.5-28.9,0.1-31.3z"/>
		<path class="st5" d="M-8.6-41.5C-8.6-41.5-7-37,7-46c0,0,12-2,5,34l1,18h-27l3-9c0,0,1-13-1.7-17C-15.2-23.7-21.1-30.1-8.6-41.5z"
			/>
		<path class="st2" d="M-17.7-11.7l-9.2-2c0,0-2.2-0.3-0.6,1.3c0.9,0.9,2.3,1.2,3.5,0.9l-7.3,0.5c0,0-1.9,0.7-0.6,1.3l1.3,0.6
			c0,0-4.1,0.4-0.6,1.3c0,0-1.5,1.6,0.7,1.9l3.2-0.1c0,0-1.9,0.7,0.3,0.9c0,0,3.2-0.1,4.7-1.7c0.9-1,2-1.7,3.3-2l0.9,0.5L-17.7-11.7
			z"/>
	</g>
	<g id="arme_1_">
		<path class="st3" d="M-1.3-29c0,0,6-10,8.8,1.7c0,0-1.5,7.8-4.7,13.4s-22.5,5.8-22.5,5.8l-0.2-4.1c0,0,14.5-6.3,17.4-5.8
			C-2.5-18-3.1-25.2-1.3-29z"/>
	</g>
</symbol>
<symbol  id="_6" viewBox="-50 -100 100 200">
	<g id="baggrund_copy_5_1_">
		<rect x="-50" y="-100" class="st0" width="100" height="200"/>
	</g>
	<g id="ansigt_copy_5_1_">
		<path class="st8" d="M-24.5-93.5"/>
		<path class="st7" d="M14-53L8-66c0,0-3,1-3,0l0.5,7.5C5.5-58.5,4-54,1-53H14z"/>
		<path class="st2" d="M-21.5-86.5v16l3,5v3c0,0-1.2,3.5,1.5,3.5c0,0,1,0,0,1s0.5,2.5,2.5,2.5c0,0-2,1,0,2h17c0,0,3.2-0.7,3.1-6.3
			l0.3-5.7c0.8,0.5,1.9,0.2,2.4-0.6c0.1-0.1,0.1-0.3,0.2-0.4c1-2,1.2-2.9,2.6-4.4c1.4-1.5-1.6-5.5-3.6-1.5c0,0-19.3-5.7-20.5-7.5
			S-21.5-86.5-21.5-86.5z"/>
		<path class="st12" d="M-37-65"/>
	</g>
	<g id="ben_copy_5_1_">
		<path class="st1" d="M6.4,87.7c0,0-5.2-12.1,0.2-11.4S6.4,87.7,6.4,87.7z"/>
		<path class="st1" d="M-6.6,87.7c0,0-5.2-12.1,0.2-11.4S-6.6,87.7-6.6,87.7z"/>
		<path class="st2" d="M-9,34c0,0,2,7,0,11c0,0-2.9,5.8,1.7,23.1c0.2,0.6,0.3,1.2,0.3,1.9c0,2.2,0.2,7.9,1,11.1c1,4,6,3,5,0
			s0-16,0-16s2.3-14.6,1.5-18.9c-0.3-1.7-0.5-3.5-0.4-5.2c0-2.3,0.3-4.7,0.9-6.9C2,31-9,34-9,34z"/>
		<path class="st3" d="M-4.7,82.7c0.4,0.5,1.4,1,3.6-0.2c0.2-0.1,0.3,0,0.4,0.1c0,0,0,0,0,0C0,83.9,2.3,89-2,89
			c-5.8,0-5,0.3-3.2-6.2c0-0.2,0.2-0.3,0.4-0.2C-4.8,82.6-4.7,82.6-4.7,82.7z"/>
		<path class="st2" d="M15.1,34c0,0-2,7,0,11c0,0,2.8,5.7-1.7,22.7c-0.2,0.8-0.3,1.7-0.4,2.6c0,3.6-0.3,7.2-1,10.7c-1,4-6,3-5,0
			s0-16,0-16S4.6,49.4,5.7,45.7c0.3-1,0.4-1.9,0.4-2.9C6,40.2,5.8,36,5.1,34C4.1,31,15.1,34,15.1,34z"/>
		<path class="st3" d="M8.6,83c1.2,0,2.4-0.4,3.4-1c0.7,1.3,3.4,7-1,7c-5.6,0-5.7-0.1-4-6C7.1,82.6,8,83,8.6,83z"/>
		<path class="st4" d="M-13-6c0,0-5-2-6,41h45c0,0-3-30-10-41H-13z"/>
	</g>
	<g id="hår_copy_5_1_">
		<path class="st6" d="M-21.5-86.5c0,0,4-10,20-9s17,21,17,21s1,10-5,14L8-66c0,0,0.6-3,2-4c0.9-0.5,1.4-1.6,1.2-2.6
			c-0.4-1.2-1.4-2.2-3.7,0.1c0,0-17-2.4-20.4-5.1c-0.7-0.6-1.4-1.1-2.2-1.5C-16.8-80-19.6-82-21.5-86.5z"/>
		<path class="st9" d="M-14.5-53.5c0,0-4,1-3.5,12.5c0,1.1,0.4,2,0,3l-7,18l-1.5-53.5c0,0,0-10,5-13v16l3,5v3c0,0-1,3,1,3s1,1,1,1
			s-1,3,2,3C-14.5-55.5-16.5-54.5-14.5-53.5z"/>
	</g>
	<g id="trøje_copy_5_1_">
		<path class="st5" d="M24-47c-0.6-2.6-2.5-7.7-8-7h-29c0,0-5.2-1-5.6,9.5c0,0,0.6,6.3-1.9,10.9S-25-21-25-21s-2,4-1,7
			c0.5,1.3,0.8,2.6,1,4c0,0,1,2,4,0s6-3,6-8c0,0,0-2,2-6c0,0,2,13-1,17s3,2,3,2s23,1,24-1c0,0,6,2,3-3s-3-7-3-7S24.2-46,24-47z"/>
		<path class="st1" d="M24-47c-1,9,1.5,25.5,1.5,25.5s1,3-1,3c0,0-2,5-8,10c0,0-3-4-3-7l5-7l-2-4c0,0,2.5-8.5,2.5-14.5L24-47z"/>
	</g>
	<g id="blod_copy_4_1_">
		<path class="st11" d="M1.1,11.6c0,0-5.3,0-2.6,2.4s0,2.4,0,2.4s0,2.4,2.6,0s2.6,0,2.6,0s2.6,0,0-2.4C3.7,14,3.7,6.9,1.1,11.6z"/>
	</g>
</symbol>
<symbol  id="_7" viewBox="-50 -100 100 200">
	<g id="baggrund_copy_6_1_">
		<rect x="-50" y="-100" class="st0" width="100" height="200"/>
	</g>
	<g id="ansigt_copy_6_1_">
		<path class="st8" d="M-24.5-93.5"/>
		<path class="st7" d="M14-53L8-66c0,0-3,1-3,0l0.5,7.5C5.5-58.5,4-54,1-53H14z"/>
		<path class="st2" d="M-21.5-86.5v16l3,5v3c0,0-1.2,3.5,1.5,3.5c0,0,1,0,0,1s0.5,2.5,2.5,2.5c0,0-2,1,0,2h17c0,0,3.2-0.7,3.1-6.3
			l0.3-5.7c0.8,0.5,1.9,0.2,2.4-0.6c0.1-0.1,0.1-0.3,0.2-0.4c1-2,1.2-2.9,2.6-4.4c1.4-1.5-1.6-5.5-3.6-1.5c0,0-19.3-5.7-20.5-7.5
			S-21.5-86.5-21.5-86.5z"/>
		<path class="st12" d="M-37-65"/>
	</g>
	<g id="ben_copy_6_1_">
		<path class="st1" d="M6.4,87.7c0,0-5.2-12.1,0.2-11.4S6.4,87.7,6.4,87.7z"/>
		<path class="st1" d="M-6.6,87.7c0,0-5.2-12.1,0.2-11.4S-6.6,87.7-6.6,87.7z"/>
		<path class="st2" d="M-9,34c0,0,2,7,0,11c0,0-2.9,5.8,1.7,23.1c0.2,0.6,0.3,1.2,0.3,1.9c0,2.2,0.2,7.9,1,11.1c1,4,6,3,5,0
			s0-16,0-16s2.3-14.6,1.5-18.9c-0.3-1.7-0.5-3.5-0.4-5.2c0-2.3,0.3-4.7,0.9-6.9C2,31-9,34-9,34z"/>
		<path class="st3" d="M-4.7,82.7c0.4,0.5,1.4,1,3.6-0.2c0.2-0.1,0.3,0,0.4,0.1c0,0,0,0,0,0C0,83.9,2.3,89-2,89
			c-5.8,0-5,0.3-3.2-6.2c0-0.2,0.2-0.3,0.4-0.2C-4.8,82.6-4.7,82.6-4.7,82.7z"/>
		<path class="st2" d="M15.1,34c0,0-2,7,0,11c0,0,2.8,5.7-1.7,22.7c-0.2,0.8-0.3,1.7-0.4,2.6c0,3.6-0.3,7.2-1,10.7c-1,4-6,3-5,0
			s0-16,0-16S4.6,49.4,5.7,45.7c0.3-1,0.4-1.9,0.4-2.9C6,40.2,5.8,36,5.1,34C4.1,31,15.1,34,15.1,34z"/>
		<path class="st3" d="M8.6,83c1.2,0,2.4-0.4,3.4-1c0.7,1.3,3.4,7-1,7c-5.6,0-5.7-0.1-4-6C7.1,82.6,8,83,8.6,83z"/>
		<path class="st4" d="M-13-6c0,0-5-2-6,41h45c0,0-3-30-10-41H-13z"/>
	</g>
	<g id="hår_copy_6_1_">
		<path class="st6" d="M-21.5-86.5c0,0,4-10,20-9s17,21,17,21s1,10-5,14L8-66c0,0,0.6-3,2-4c0.9-0.5,1.4-1.6,1.2-2.6
			c-0.4-1.2-1.4-2.2-3.7,0.1c0,0-17-2.4-20.4-5.1c-0.7-0.6-1.4-1.1-2.2-1.5C-16.8-80-19.6-82-21.5-86.5z"/>
		<path class="st9" d="M-14.5-53.5c0,0-4,1-3.5,12.5c0,1.1,0.4,2,0,3l-7,18l-1.5-53.5c0,0,0-10,5-13v16l3,5v3c0,0-1,3,1,3s1,1,1,1
			s-1,3,2,3C-14.5-55.5-16.5-54.5-14.5-53.5z"/>
	</g>
	<g id="trøje_copy_6_1_">
		<path class="st5" d="M24-47c-0.6-2.6-2.5-7.7-8-7h-29c0,0-5.2-1-5.6,9.5c0,0,0.6,6.3-1.9,10.9S-25-21-25-21s-2,4-1,7
			c0.5,1.3,0.8,2.6,1,4c0,0,1,2,4,0s6-3,6-8c0,0,0-2,2-6c0,0,2,13-1,17s3,2,3,2s23,1,24-1c0,0,6,2,3-3s-3-7-3-7S24.2-46,24-47z"/>
		<path class="st1" d="M24-47c-1,9,1.5,25.5,1.5,25.5s1,3-1,3c0,0-2,5-8,10c0,0-3-4-3-7l5-7l-2-4c0,0,2.5-8.5,2.5-14.5L24-47z"/>
	</g>
	<g id="blod_copy_5_1_">
		<path class="st11" d="M0.6,10.8c0,0-6.1,0-3,2.7s0,2.7,0,2.7s0,2.7,3,0s3,0,3,0s3,0,0-2.7C3.7,13.6,3.7,5.5,0.6,10.8z"/>
	</g>
</symbol>
<symbol  id="_8" viewBox="-50 -100 100 200">
	<g id="baggrund_copy_7_1_">
		<rect x="-50" y="-100" class="st0" width="100" height="200"/>
	</g>
	<g id="ansigt_copy_7_1_">
		<path class="st8" d="M-24.5-93.5"/>
		<path class="st7" d="M14-53L8-66c0,0-3,1-3,0l0.5,7.5C5.5-58.5,4-54,1-53H14z"/>
		<path class="st2" d="M-21.5-86.5v16l3,5v3c0,0-1.2,3.5,1.5,3.5c0,0,1,0,0,1s0.5,2.5,2.5,2.5c0,0-2,1,0,2h17c0,0,3.2-0.7,3.1-6.3
			l0.3-5.7c0.8,0.5,1.9,0.2,2.4-0.6c0.1-0.1,0.1-0.3,0.2-0.4c1-2,1.2-2.9,2.6-4.4c1.4-1.5-1.6-5.5-3.6-1.5c0,0-19.3-5.7-20.5-7.5
			S-21.5-86.5-21.5-86.5z"/>
		<path class="st12" d="M-37-65"/>
	</g>
	<g id="ben_copy_7_1_">
		<path class="st1" d="M6.4,87.7c0,0-5.2-12.1,0.2-11.4S6.4,87.7,6.4,87.7z"/>
		<path class="st1" d="M-6.6,87.7c0,0-5.2-12.1,0.2-11.4S-6.6,87.7-6.6,87.7z"/>
		<path class="st2" d="M-9,34c0,0,2,7,0,11c0,0-2.9,5.8,1.7,23.1c0.2,0.6,0.3,1.2,0.3,1.9c0,2.2,0.2,7.9,1,11.1c1,4,6,3,5,0
			s0-16,0-16s2.3-14.6,1.5-18.9c-0.3-1.7-0.5-3.5-0.4-5.2c0-2.3,0.3-4.7,0.9-6.9C2,31-9,34-9,34z"/>
		<path class="st3" d="M-4.7,82.7c0.4,0.5,1.4,1,3.6-0.2c0.2-0.1,0.3,0,0.4,0.1c0,0,0,0,0,0C0,83.9,2.3,89-2,89
			c-5.8,0-5,0.3-3.2-6.2c0-0.2,0.2-0.3,0.4-0.2C-4.8,82.6-4.7,82.6-4.7,82.7z"/>
		<path class="st2" d="M15.1,34c0,0-2,7,0,11c0,0,2.8,5.7-1.7,22.7c-0.2,0.8-0.3,1.7-0.4,2.6c0,3.6-0.3,7.2-1,10.7c-1,4-6,3-5,0
			s0-16,0-16S4.6,49.4,5.7,45.7c0.3-1,0.4-1.9,0.4-2.9C6,40.2,5.8,36,5.1,34C4.1,31,15.1,34,15.1,34z"/>
		<path class="st3" d="M8.6,83c1.2,0,2.4-0.4,3.4-1c0.7,1.3,3.4,7-1,7c-5.6,0-5.7-0.1-4-6C7.1,82.6,8,83,8.6,83z"/>
		<path class="st4" d="M-13-6c0,0-5-2-6,41h45c0,0-3-30-10-41H-13z"/>
	</g>
	<g id="hår_copy_7_1_">
		<path class="st6" d="M-21.5-86.5c0,0,4-10,20-9s17,21,17,21s1,10-5,14L8-66c0,0,0.6-3,2-4c0.9-0.5,1.4-1.6,1.2-2.6
			c-0.4-1.2-1.4-2.2-3.7,0.1c0,0-17-2.4-20.4-5.1c-0.7-0.6-1.4-1.1-2.2-1.5C-16.8-80-19.6-82-21.5-86.5z"/>
		<path class="st9" d="M-14.5-53.5c0,0-4,1-3.5,12.5c0,1.1,0.4,2,0,3l-7,18l-1.5-53.5c0,0,0-10,5-13v16l3,5v3c0,0-1,3,1,3s1,1,1,1
			s-1,3,2,3C-14.5-55.5-16.5-54.5-14.5-53.5z"/>
	</g>
	<g id="trøje_copy_7_1_">
		<path class="st5" d="M24-47c-0.6-2.6-2.5-7.7-8-7h-29c0,0-5.2-1-5.6,9.5c0,0,0.6,6.3-1.9,10.9S-25-21-25-21s-2,4-1,7
			c0.5,1.3,0.8,2.6,1,4c0,0,1,2,4,0s6-3,6-8c0,0,0-2,2-6c0,0,2,13-1,17s3,2,3,2s23,1,24-1c0,0,6,2,3-3s-3-7-3-7S24.2-46,24-47z"/>
		<path class="st1" d="M24-47c-1,9,1.5,25.5,1.5,25.5s1,3-1,3c0,0-2,5-8,10c0,0-3-4-3-7l5-7l-2-4c0,0,2.5-8.5,2.5-14.5L24-47z"/>
	</g>
	<g id="blod_copy_6_1_">
		<path class="st11" d="M1.5,9.3c0,0-7.5,0-3.8,3.3s0,3.3,0,3.3s0,3.3,3.8,0s3.8,0,3.8,0s3.8,0,0-3.3C5.3,12.6,5.3,2.6,1.5,9.3z"/>
	</g>
</symbol>
<symbol  id="_9" viewBox="-50 -100 100 200">
	<g id="ansigt_copy_8_1_">
		<path class="st8" d="M-24.5-93.5"/>
		<path class="st7" d="M14-53L8-66c0,0-3,1-3,0l0.5,7.5C5.5-58.5,4-54,1-53H14z"/>
		<path class="st2" d="M-21.5-86.5v16l3,5v3c0,0-1.2,3.5,1.5,3.5c0,0,1,0,0,1s0.5,2.5,2.5,2.5c0,0-2,1,0,2h17c0,0,3.2-0.7,3.1-6.3
			l0.3-5.7c0.8,0.5,1.9,0.2,2.4-0.6c0.1-0.1,0.1-0.3,0.2-0.4c1-2,1.2-2.9,2.6-4.4c1.4-1.5-1.6-5.5-3.6-1.5c0,0-19.3-5.7-20.5-7.5
			S-21.5-86.5-21.5-86.5z"/>
		<path class="st12" d="M-37-65"/>
	</g>
	<g id="ben_copy_8_1_">
		<path class="st1" d="M6.4,87.7c0,0-5.2-12.1,0.2-11.4S6.4,87.7,6.4,87.7z"/>
		<path class="st1" d="M-6.6,87.7c0,0-5.2-12.1,0.2-11.4S-6.6,87.7-6.6,87.7z"/>
		<path class="st2" d="M-9,34c0,0,2,7,0,11c0,0-2.9,5.8,1.7,23.1c0.2,0.6,0.3,1.2,0.3,1.9c0,2.2,0.2,7.9,1,11.1c1,4,6,3,5,0
			s0-16,0-16s2.3-14.6,1.5-18.9c-0.3-1.7-0.5-3.5-0.4-5.2c0-2.3,0.3-4.7,0.9-6.9C2,31-9,34-9,34z"/>
		<path class="st3" d="M-4.7,82.7c0.4,0.5,1.4,1,3.6-0.2c0.2-0.1,0.3,0,0.4,0.1c0,0,0,0,0,0C0,83.9,2.3,89-2,89
			c-5.8,0-5,0.3-3.2-6.2c0-0.2,0.2-0.3,0.4-0.2C-4.8,82.6-4.7,82.6-4.7,82.7z"/>
		<path class="st2" d="M15.1,34c0,0-2,7,0,11c0,0,2.8,5.7-1.7,22.7c-0.2,0.8-0.3,1.7-0.4,2.6c0,3.6-0.3,7.2-1,10.7c-1,4-6,3-5,0
			s0-16,0-16S4.6,49.4,5.7,45.7c0.3-1,0.4-1.9,0.4-2.9C6,40.2,5.8,36,5.1,34C4.1,31,15.1,34,15.1,34z"/>
		<path class="st3" d="M8.6,83c1.2,0,2.4-0.4,3.4-1c0.7,1.3,3.4,7-1,7c-5.6,0-5.7-0.1-4-6C7.1,82.6,8,83,8.6,83z"/>
		<path class="st4" d="M-13-6c0,0-5-2-6,41h45c0,0-3-30-10-41H-13z"/>
	</g>
	<g id="hår_copy_8_1_">
		<path class="st6" d="M-21.5-86.5c0,0,4-10,20-9s17,21,17,21s1,10-5,14L8-66c0,0,0.6-3,2-4c0.9-0.5,1.4-1.6,1.2-2.6
			c-0.4-1.2-1.4-2.2-3.7,0.1c0,0-17-2.4-20.4-5.1c-0.7-0.6-1.4-1.1-2.2-1.5C-16.8-80-19.6-82-21.5-86.5z"/>
		<path class="st9" d="M-14.5-53.5c0,0-4,1-3.5,12.5c0,1.1,0.4,2,0,3l-7,18l-1.5-53.5c0,0,0-10,5-13v16l3,5v3c0,0-1,3,1,3s1,1,1,1
			s-1,3,2,3C-14.5-55.5-16.5-54.5-14.5-53.5z"/>
	</g>
	<g id="trøje_copy_8_1_">
		<path class="st5" d="M24-47c-0.6-2.6-2.5-7.7-8-7h-29c0,0-5.2-1-5.6,9.5c0,0,0.6,6.3-1.9,10.9S-25-21-25-21s-2,4-1,7
			c0.5,1.3,0.8,2.6,1,4c0,0,1,2,4,0s6-3,6-8c0,0,0-2,2-6c0,0,2,13-1,17s3,2,3,2s23,1,24-1c0,0,6,2,3-3s-3-7-3-7S24.2-46,24-47z"/>
		<path class="st1" d="M24-47c-1,9,1.5,25.5,1.5,25.5s1,3-1,3c0,0-2,5-8,10c0,0-3-4-3-7l5-7l-2-4c0,0,2.5-8.5,2.5-14.5L24-47z"/>
	</g>
	<g id="blod_copy_7_1_">
		<path class="st11" d="M1.5,7.7c0,0-9,0-4.5,4s0,4,0,4s0,4,4.5,0s4.5,0,4.5,0s4.5,0,0-4C5.9,11.7,5.9-0.2,1.5,7.7z"/>
	</g>
	<rect id="baggrund-2_1_" x="-50" y="-100" class="st0" width="100" height="200"/>
</symbol>
<title>offer_spritesheet</title>
<g id="baggrund_copy_8">
	<rect x="-1.1" y="200" class="st0" width="100" height="200"/>
</g>
<use xlink:href="#_1"  width="100" height="200" x="-50" y="-100" transform="matrix(1 0 0 1 48.8875 300)" style="overflow:visible;"/>
<use xlink:href="#_2"  width="100" height="200" id="_2-3" x="-50" y="-100" transform="matrix(1 0 0 1 151.1125 300)" style="overflow:visible;"/>
<use xlink:href="#_3"  width="100" height="200" id="_3-3" x="-50" y="-100" transform="matrix(1 0 0 1 251.1125 300)" style="overflow:visible;"/>
<use xlink:href="#_4"  width="100" height="200" id="_4-3" x="-50" y="-100" transform="matrix(1 0 0 1 351.1125 300)" style="overflow:visible;"/>
<use xlink:href="#_5"  width="100" height="200" id="_5-3" x="-50" y="-100" transform="matrix(1 0 0 1 451.1125 300)" style="overflow:visible;"/>
<use xlink:href="#_6"  width="100" height="200" id="_6-3" x="-50" y="-100" transform="matrix(1 0 0 1 551.1125 300)" style="overflow:visible;"/>
<use xlink:href="#_7"  width="100" height="200" id="_7-3" x="-50" y="-100" transform="matrix(1 0 0 1 651.1125 300)" style="overflow:visible;"/>
<use xlink:href="#_8"  width="100" height="200" id="_8-3" x="-50" y="-100" transform="matrix(1 0 0 1 751.1125 300)" style="overflow:visible;"/>
<use xlink:href="#_9"  width="100" height="200" id="_9-3" x="-50" y="-100" transform="matrix(1 0 0 1 851.1125 300)" style="overflow:visible;"/>
<polygon class="st9" points="31.6,433.5 45.3,447.2 41.6,455.5 27.6,451.5 "/>
<polygon class="st6" points="62.6,423.5 64.6,455.5 43.6,446.5 "/>
<path class="st10" d="M33.1,490c0,0-4,2-5,45l46-1c0,0-6-35-10-44S33.1,490,33.1,490z"/>
<path class="st2" d="M37.6,532.5c0,0,4,9,2,16s5,33,5,33s5,6,5-2s2-33,2-33l-3-15L37.6,532.5z"/>
<path class="st2" d="M58.6,533.5c0,0-2,3,2,9s5,18,5,34s-5,0-5,0l-11.8-36.7l-1.2-1.9l1-6.4L58.6,533.5z"/>
<path class="st13" d="M48.1,534c0,0-3,8,5,6"/>
<path class="st3" d="M61.1,578c0,0,3.6,3.1,4.8-0.5l2.2,9.5c0,0-4.5-5.9-9,0L61.1,578z"/>
<path class="st1" d="M61.4,584.4c1.3-1.2,3.3-1.2,4.5,0c2.5,2.4,5.2,6.1-2.3,6.1S58.9,586.8,61.4,584.4z"/>
<path class="st3" d="M44.1,579c0,0,3.9,3.6,5,0l2,9c0,0-4.5-5.9-9,0L44.1,579z"/>
<path class="st1" d="M44.4,585.4c1.3-1.2,3.3-1.2,4.5,0c2.5,2.4,5.2,6.1-2.3,6.1S41.9,587.8,44.4,585.4z"/>
<path class="st7" d="M53.1,442c0,0-2,10,10,8s-19,11-19,11l-11-11c0,0,11,2,9-7S53.1,442,53.1,442z"/>
<path class="st5" d="M36.1,450c0,0,12,15,21-1h8c0,0,7.2-2.7,10.5,22c0.3,2,0.8,4,1.3,6c0.4,1.4,0.3,2.5-1.9,3c-5,1,2,1-22-5l1-5
	l14,4c0,0-3-2-6-14c0,0-5,23,2,28s-29,5-29,5s-6,0-2-7s0-23,0-23l-1,11l14,11l-2,4c0,0-17-8-20-13c0,0-3,0-2-5s2-16,2-16
	S24.1,448,36.1,450z"/>
<path class="st2" d="M56.1,471l-8-5c0,0-2-1-1,1c0.6,1.2,1.7,1.9,3,2l-7-2c0,0-2,0-1,1l1,1c0,0-4-1-1,1c0,0-2,1,0,2l3,1c0,0-2,0,0,1
	c0,0,3,1,5,0s3,0,3,0l1,1L56.1,471z"/>
<path class="st2" d="M45.1,484l8.5,3c0,0,2,0.9-0.1,1.4c-1.2,0.3-2.6,0-3.5-1l6,4c0,0,1.3,1.5-0.1,1.4l-1.4-0.1c0,0,3.3,2.4-0.1,1.4
	c0,0,0.5,2.2-1.5,1.3l-2.7-1.6c0,0,1.3,1.5-0.8,0.6c0,0-2.7-1.6-3.2-3.8s-2-2.2-2-2.2l-1.2-0.5L45.1,484z"/>
<path class="st2" d="M31.1,425c0,0-3,13,12,20c3.1,2.3,7.4,1.9,10-1l6-6c0,0,2-3,1-9c0,0,3,0,4-6c0,0-1-4-4-1l-15-13l-12,9L31.1,425
	z"/>
<path class="st6" d="M46.6,413.5c0,0-22-2-12,58c0,0,2,8-5,12c0,0-5,9-4-53c0,0-2-20,17-23s20,13,20,13v2
	C62.6,422.5,49.6,423.5,46.6,413.5z"/>
<path class="st5" d="M55.6,427.5c-2.6,0.8-5.4,0.8-8,0c0,0-1,0,0,1c0.5,0.6,1.2,0.9,2,1c0,0,1,2,1,0h1c0,0,1,6,1,0h1c0,0,1,12,1,0
	C54.6,429.5,58.6,426.5,55.6,427.5z"/>
<path class="st11" d="M49.6,506.7c0,0-9,0-4.5,4c4.5,4,0,4,0,4s0,4,4.5,0c4.5-4,4.5,0,4.5,0s4.5,0,0-4C54,510.7,54,498.8,49.6,506.7
	z"/>
<rect x="1.1" y="400" class="st0" width="100" height="200"/>
<polygon class="st9" points="131.6,433.5 145.3,447.2 141.6,455.5 127.6,451.5 "/>
<polygon class="st6" points="162.6,423.5 164.6,455.5 143.6,446.5 "/>
<path class="st10" d="M133.1,490c0,0-4,2-5,45l46-1c0,0-6-35-10-44S133.1,490,133.1,490z"/>
<path class="st2" d="M137.6,532.5c0,0,4,9,2,16s5,33,5,33s5,6,5-2s2-33,2-33l-3-15L137.6,532.5z"/>
<path class="st2" d="M158.6,533.5c0,0-2,3,2,9s5,18,5,34s-5,0-5,0l-11.8-36.7l-1.2-1.9l1.1-6.4L158.6,533.5z"/>
<path class="st13" d="M148.1,534c0,0-3,8,5,6"/>
<path class="st3" d="M161.1,578c0,0,3.6,3.1,4.8-0.5l2.2,9.5c0,0-4.5-5.9-9,0L161.1,578z"/>
<path class="st1" d="M161.4,584.4c1.3-1.2,3.3-1.2,4.5,0c2.5,2.4,5.2,6.1-2.3,6.1S158.9,586.8,161.4,584.4z"/>
<path class="st3" d="M144.1,579c0,0,3.9,3.6,5,0l2,9c0,0-4.5-5.9-9,0L144.1,579z"/>
<path class="st1" d="M144.4,585.4c1.3-1.2,3.3-1.2,4.5,0c2.5,2.4,5.2,6.1-2.3,6.1S141.9,587.8,144.4,585.4z"/>
<path class="st7" d="M153.1,442c0,0-2,10,10,8s-19,11-19,11l-11-11c0,0,11,2,9-7S153.1,442,153.1,442z"/>
<path class="st5" d="M136.1,450c0,0,12,15,21-1h8c0,0,7.2-2.7,10.5,22c0.3,2,0.8,4,1.4,6c0.4,1.4,0.3,2.5-1.9,3c-5,1,2,1-22-5l1-5
	l14,4c0,0-3-2-6-14c0,0-5,23,2,28s-29,5-29,5s-6,0-2-7s0-23,0-23l-1,11l14,11l-2,4c0,0-17-8-20-13c0,0-3,0-2-5s2-16,2-16
	S124.1,448,136.1,450z"/>
<path class="st2" d="M156.1,471l-8-5c0,0-2-1-1,1c0.6,1.2,1.7,1.9,3,2l-7-2c0,0-2,0-1,1l1,1c0,0-4-1-1,1c0,0-2,1,0,2l3,1
	c0,0-2,0,0,1c0,0,3,1,5,0s3,0,3,0l1,1L156.1,471z"/>
<path class="st2" d="M145.1,484l8.5,3c0,0,2.1,0.9-0.1,1.4c-1.2,0.3-2.6,0-3.5-1l6.1,4c0,0,1.3,1.5-0.1,1.4l-1.4-0.1
	c0,0,3.4,2.4-0.1,1.4c0,0,0.5,2.2-1.5,1.3l-2.7-1.6c0,0,1.3,1.5-0.8,0.6c0,0-2.7-1.6-3.2-3.8s-1.9-2.2-1.9-2.2l-1.2-0.5L145.1,484z"
	/>
<path class="st2" d="M131.1,425c0,0-3,13,12,20c3.1,2.3,7.4,1.9,10-1l6-6c0,0,2-3,1-9c0,0,3,0,4-6c0,0-1-4-4-1l-15-13l-12,9
	L131.1,425z"/>
<path class="st6" d="M146.6,413.5c0,0-22-2-12,58c0,0,2,8-5,12c0,0-5,9-4-53c0,0-2-20,17-23s20,13,20,13v2
	C162.6,422.5,149.6,423.5,146.6,413.5z"/>
<path class="st5" d="M155.6,427.5c-2.6,0.8-5.4,0.8-8,0c0,0-1,0,0,1c0.5,0.6,1.2,0.9,2,1c0,0,1.5,6.5,1,0h1c0,0,1.5,11.5,1,0h1
	c0,0,1.5,17.5,1,0C154.6,429.5,158.6,426.5,155.6,427.5z"/>
<path class="st11" d="M149.6,506.7c0,0-9,0-4.5,4c4.5,4,0,4,0,4s0,4,4.5,0c4.5-4,4.5,0,4.5,0s4.5,0,0-4
	C154,510.7,154,498.8,149.6,506.7z"/>
<rect x="101.1" y="400" class="st0" width="100" height="200"/>
<use xlink:href="#_1_2"  width="100" height="200" x="-50" y="-100" transform="matrix(1 0 0 1 51.1125 700)" style="overflow:visible;"/>
<use xlink:href="#_2_2"  width="100" height="200" x="-50" y="-100" transform="matrix(1 0 0 1 151.1125 700)" style="overflow:visible;"/>
<use xlink:href="#_3_2"  width="100" height="200" x="-50" y="-100" transform="matrix(1 0 0 1 251.1125 700)" style="overflow:visible;"/>
<use xlink:href="#_4_2"  width="100" height="200" x="-50" y="-100" transform="matrix(1 0 0 1 351.1125 700)" style="overflow:visible;"/>
<use xlink:href="#_5_2"  width="100" height="200" x="-50" y="-100" transform="matrix(1 0 0 1 451.1125 700)" style="overflow:visible;"/>
<rect x="1.9" class="st0" width="100" height="200"/>
<path class="st7" d="M65.9,47l-6-13c0,0-3,1-3,0l0.5,7.5c0,0-1.5,4.5-4.5,5.5H65.9z"/>
<path class="st2" d="M30.4,13.5v16l3,5v3c0,0-1.2,3.5,1.5,3.5c0,0,1,0,0,1s0.5,2.5,2.5,2.5c0,0-2,1,0,2h17c0,0,3.2-0.7,3.1-6.3
	l0.3-5.7c0.8,0.5,1.9,0.2,2.4-0.6c0.1-0.1,0.1-0.3,0.2-0.4c1-2,1.2-2.9,2.6-4.4s-1.6-5.5-3.6-1.5c0,0-19.3-5.7-20.5-7.5
	S30.4,13.5,30.4,13.5z"/>
<path class="st1" d="M58.4,187.7c0,0-5.2-12.1,0.2-11.4S58.4,187.7,58.4,187.7z"/>
<path class="st1" d="M45.4,187.7c0,0-5.2-12.1,0.2-11.4S45.4,187.7,45.4,187.7z"/>
<path class="st2" d="M42.9,134c0,0,2,7,0,11c0,0-2.9,5.8,1.7,23.1c0.2,0.6,0.3,1.2,0.3,1.9c0,2.2,0.2,7.9,1,11.1c1,4,6,3,5,0
	s0-16,0-16s2.3-14.6,1.5-18.9c-0.3-1.7-0.5-3.5-0.4-5.2c0-2.3,0.3-4.7,0.9-6.9C53.9,131,42.9,134,42.9,134z"/>
<path class="st3" d="M47.3,182.7c0.4,0.5,1.4,1,3.6-0.2c0.2-0.1,0.3,0,0.4,0.1c0,0,0,0,0,0c0.7,1.3,3,6.4-1.3,6.4
	c-5.8,0-5,0.3-3.2-6.2c0-0.2,0.2-0.3,0.4-0.2C47.2,182.6,47.2,182.6,47.3,182.7z"/>
<path class="st2" d="M67.1,134c0,0-2,7,0,11c0,0,2.8,5.7-1.7,22.7c-0.2,0.8-0.3,1.7-0.4,2.6c0,3.6-0.3,7.2-1,10.7c-1,4-6,3-5,0
	s0-16,0-16s-2.5-15.6-1.4-19.3c0.3-1,0.4-1.9,0.4-2.9c-0.1-2.6-0.3-6.8-1-8.8C56.1,131,67.1,134,67.1,134z"/>
<path class="st3" d="M60.6,183c1.2,0,2.4-0.4,3.4-1c0.7,1.3,3.4,7-1,7c-5.6,0-5.7-0.1-4-6C59.1,182.6,59.9,183,60.6,183z"/>
<path class="st4" d="M38.9,94c0,0-5-2-6,41h45c0,0-3-30-10-41H38.9z"/>
<path class="st6" d="M30.4,13.5c0,0,4-10,20-9s17,21,17,21s1,10-5,14L59.9,34c0,0,0.6-3,2-4c0.9-0.5,1.4-1.6,1.2-2.6
	c-0.4-1.2-1.4-2.2-3.7,0.1c0,0-17-2.4-20.4-5.1c-0.7-0.6-1.4-1.1-2.2-1.5C35.1,20,32.4,18,30.4,13.5z"/>
<path class="st9" d="M37.4,46.5c0,0-4,1-3.5,12.5c0,1.1,0.4,2,0,3l-7,18l-1.5-53.5c0,0,0-10,5-13v16l3,5v3c0,0-1,3,1,3s1,1,1,1
	s-1,3,2,3C37.4,44.5,35.4,45.5,37.4,46.5z"/>
<path class="st5" d="M75.9,53c-0.6-2.6-2.5-7.7-8-7h-29c0,0-5.2-1-5.6,9.5c0,0,0.6,6.3-1.9,10.9S26.9,79,26.9,79s-2,4-1,7
	c0.5,1.3,0.8,2.6,1,4c0,0,1,2,4,0s6-3,6-8c0,0,0-2,2-6c0,0,2,13-1,17s3,2,3,2s23,1,24-1c0,0,6,2,3-3s-3-7-3-7S76.2,54,75.9,53z"/>
<path class="st1" d="M75.9,53c-1,9,1.5,25.5,1.5,25.5s1,3-1,3c0,0-2,5-8,10c0,0-3-4-3-7l5-7l-2-4c0,0,2.5-8.5,2.5-14.5L75.9,53z"/>
</svg>
