<svg id="offer9" xmlns="http://www.w3.org/2000/svg" xmlns:xlink="http://www.w3.org/1999/xlink" viewBox="0 0 900 800"><defs><style>.cls-1,.cls-14,.cls-9{fill:none;}.cls-2{fill:#0c508f;}.cls-3{fill:#ef8ee6;}.cls-4{fill:#3785bf;}.cls-5{fill:#fafcfc;}.cls-6{fill:#89cde5;}.cls-7{fill:#f3912e;}.cls-8{fill:#c4628a;}.cls-9{stroke:#000;stroke-width:0.5px;}.cls-14,.cls-9{stroke-miterlimit:10;}.cls-10{fill:#db761b;}.cls-11{fill:#fcfafc;}.cls-12{fill:#b83917;}.cls-13{fill:#d27c9d;}.cls-14{stroke:#c4628a;}</style><symbol id="_1" data-name=" 1" viewBox="0 0 100 200"><g id="baggrund"><rect class="cls-1" width="100" height="200"/></g><g id="ben"><path class="cls-2" d="M56.42,12.26s-5.19,12.11.23,11.43S56.42,12.26,56.42,12.26Z"/><path class="cls-2" d="M43.42,12.26s-5.19,12.11.23,11.43S43.42,12.26,43.42,12.26Z"/><path class="cls-3" d="M41,66s2-7,0-11c0,0-2.9-5.79,1.74-23.06A7.69,7.69,0,0,0,43,30.07,57.76,57.76,0,0,1,44,19c1-4,6-3,5,0s0,16,0,16,2.3,14.55,1.53,18.85a23.24,23.24,0,0,0-.42,5.2A31.8,31.8,0,0,0,51,66C52,69,41,66,41,66Z"/><path class="cls-4" d="M45.32,17.31c.42-.53,1.39-1,3.58.24a.32.32,0,0,0,.44-.12h0C50,16.14,52.34,11,48,11c-5.76,0-5-.26-3.22,6.17a.32.32,0,0,0,.54.14Z"/><path class="cls-3" d="M65.11,66s-2-7,0-11c0,0,2.85-5.71-1.65-22.7a10.86,10.86,0,0,1-.37-2.57,59.51,59.51,0,0,0-1-10.72c-1-4-6-3-5,0s0,16,0,16-2.46,15.58-1.44,19.27a9.93,9.93,0,0,1,.4,2.93c-.07,2.59-.3,6.8-1,8.8C54.13,69,65.11,66,65.11,66Z"/><path class="cls-4" d="M58.62,17A7,7,0,0,1,62,18c.66-1.28,3.38-7-1-7-5.62,0-5.68.06-4,6C57.12,17.43,58,17,58.62,17Z"/><path class="cls-5" d="M37,106s-5,2-6-41H76s-3,30-10,41Z"/></g><g id="trøje"><path class="cls-6" d="M74,147c-.6,2.57-2.46,7.69-8,7H37s-5.17,1-5.58-9.5c0,0,.58-6.34-1.92-10.92S25,121,25,121s-2-4-1-7a15.77,15.77,0,0,0,1-4s1-2,4,0,6,3,6,8c0,0,0,2,2,6,0,0,2-13-1-17s3-2,3-2,23-1,24,1c0,0,6-2,3,3s-3,7-3,7S74.23,146,74,147Z"/><path class="cls-2" d="M74,147c-1-9,1.5-25.5,1.5-25.5s1-3-1-3c0,0-2-5-8-10,0,0-3,4-3,7l5,7-2,4S69,135,69,141Z"/></g><g id="hår2"><path class="cls-7" d="M69,173.5a21.11,21.11,0,0,0-2.5-10c-3.06-5.71-8.63-9.5-15-9.5-6,0-10.77-2.19-13.91,3C35.7,160.11,34,169.46,34,173.5c0,10.77,7.84,19.5,17.5,19.5S69,184.27,69,173.5Z"/><path class="cls-7" d="M42,127l-6,33.79L68,167l-8-40S47.47,120.91,42,127Z"/></g></symbol><symbol id="_2" data-name=" 2" viewBox="0 0 100 200"><g id="baggrund_copy" data-name="baggrund copy"><rect class="cls-1" width="100" height="200"/></g><g id="ben_copy" data-name="ben copy"><path class="cls-2" d="M56.42,12.26s-5.19,12.11.23,11.43S56.42,12.26,56.42,12.26Z"/><path class="cls-2" d="M43.42,12.26s-5.19,12.11.23,11.43S43.42,12.26,43.42,12.26Z"/><path class="cls-3" d="M41,66s2-7,0-11c0,0-2.9-5.79,1.74-23.06A7.69,7.69,0,0,0,43,30.07,57.76,57.76,0,0,1,44,19c1-4,6-3,5,0s0,16,0,16,2.3,14.55,1.53,18.85a23.24,23.24,0,0,0-.42,5.2A31.8,31.8,0,0,0,51,66C52,69,41,66,41,66Z"/><path class="cls-4" d="M45.32,17.31c.42-.53,1.39-1,3.58.24a.32.32,0,0,0,.44-.12h0C50,16.14,52.34,11,48,11c-5.76,0-5-.26-3.22,6.17a.32.32,0,0,0,.54.14Z"/><path class="cls-3" d="M65.11,66s-2-7,0-11c0,0,2.85-5.71-1.65-22.7a10.86,10.86,0,0,1-.37-2.57,59.51,59.51,0,0,0-1-10.72c-1-4-6-3-5,0s0,16,0,16-2.46,15.58-1.44,19.27a9.93,9.93,0,0,1,.4,2.93c-.07,2.59-.3,6.8-1,8.8C54.13,69,65.11,66,65.11,66Z"/><path class="cls-4" d="M58.62,17A7,7,0,0,1,62,18c.66-1.28,3.38-7-1-7-5.62,0-5.68.06-4,6C57.12,17.43,58,17,58.62,17Z"/><path class="cls-5" d="M37,106s-5,2-6-41H76s-3,30-10,41Z"/></g><g id="trøje_copy" data-name="trøje copy"><path class="cls-6" d="M74,147c-.6,2.57-2.46,7.69-8,7H37s-5.17,1-5.58-9.5c0,0,.58-6.34-1.92-10.92S25,121,25,121s-2-4-1-7a15.77,15.77,0,0,0,1-4s1-2,4,0,6,3,6,8c0,0,0,2,2,6,0,0,2-13-1-17s3-2,3-2,23-1,24,1c0,0,6-2,3,3s-3,7-3,7S74.23,146,74,147Z"/><path class="cls-2" d="M74,147c-1-9,1.5-25.5,1.5-25.5s1-3-1-3c0,0-2-5-8-10,0,0-3,4-3,7l5,7-2,4S69,135,69,141Z"/></g><g id="blod"><path class="cls-12" d="M52,86s-2,0-1-1,0-1,0-1,0-1,1,0,1,0,1,0,1,0,0,1C53,85,53,88,52,86Z"/><g id="hår2_copy" data-name="hår2 copy"><path class="cls-7" d="M69,173.5a21.11,21.11,0,0,0-2.5-10c-3.06-5.71-8.63-9.5-15-9.5-6,0-10.77-2.19-13.91,3C35.7,160.11,34,169.46,34,173.5c0,10.77,7.84,19.5,17.5,19.5S69,184.27,69,173.5Z"/><path class="cls-7" d="M42,127l-6,33.79L68,167l-8-40S47.47,120.91,42,127Z"/></g></g></symbol><symbol id="_3" data-name=" 3" viewBox="0 0 100 200"><g id="baggrund_copy_2" data-name="baggrund copy 2"><rect class="cls-1" width="100" height="200"/></g><g id="ansigt_copy_2" data-name="ansigt copy 2"><path class="cls-9" d="M25.5,193.5"/><path class="cls-8" d="M64,153l-6,13s-3-1-3,0l.5-7.5S54,154,51,153Z"/><path class="cls-3" d="M28.5,186.5v-16l3-5v-3S30.31,159,33,159c0,0,1,0,0-1s.5-2.5,2.5-2.5c0,0-2-1,0-2h17s3.19.7,3.09,6.35l.31,5.67a1.76,1.76,0,0,1,2.6,1c1,2,1.18,2.89,2.59,4.44s-1.59,5.54-3.59,1.54c0,0-19.33,5.66-20.5,7.5S28.5,186.5,28.5,186.5Z"/><path class="cls-13" d="M13,165"/></g><g id="ben_copy_2" data-name="ben copy 2"><path class="cls-2" d="M56.42,12.26s-5.19,12.11.23,11.43S56.42,12.26,56.42,12.26Z"/><path class="cls-2" d="M43.42,12.26s-5.19,12.11.23,11.43S43.42,12.26,43.42,12.26Z"/><path class="cls-3" d="M41,66s2-7,0-11c0,0-2.9-5.79,1.74-23.06A7.69,7.69,0,0,0,43,30.07,57.76,57.76,0,0,1,44,19c1-4,6-3,5,0s0,16,0,16,2.3,14.55,1.53,18.85a23.24,23.24,0,0,0-.42,5.2A31.8,31.8,0,0,0,51,66C52,69,41,66,41,66Z"/><path class="cls-4" d="M45.32,17.31c.42-.53,1.39-1,3.58.24a.32.32,0,0,0,.44-.12h0C50,16.14,52.34,11,48,11c-5.76,0-5-.26-3.22,6.17a.32.32,0,0,0,.54.14Z"/><path class="cls-3" d="M65.11,66s-2-7,0-11c0,0,2.85-5.71-1.65-22.7a10.86,10.86,0,0,1-.37-2.57,59.51,59.51,0,0,0-1-10.72c-1-4-6-3-5,0s0,16,0,16-2.46,15.58-1.44,19.27a9.93,9.93,0,0,1,.4,2.93c-.07,2.59-.3,6.8-1,8.8C54.13,69,65.11,66,65.11,66Z"/><path class="cls-4" d="M58.62,17A7,7,0,0,1,62,18c.66-1.28,3.38-7-1-7-5.62,0-5.68.06-4,6C57.12,17.43,58,17,58.62,17Z"/><path class="cls-5" d="M37,106s-5,2-6-41H76s-3,30-10,41Z"/></g><g id="hår_copy_2" data-name="hår copy 2"><path class="cls-7" d="M28.5,186.5s4,10,20,9,17-21,17-21,1-10-5-14L58,166s.58,3,2,4a2.49,2.49,0,0,1,1.17,2.58c-.43,1.24-1.41,2.19-3.67-.08,0,0-17,2.43-20.41,5.1a13.24,13.24,0,0,1-2.17,1.5A14.25,14.25,0,0,0,28.5,186.5Z"/><path class="cls-10" d="M35.5,153.5s-4-1-3.5-12.5c0-1.08.37-2,0-3l-7-18-1.5,53.5s0,10,5,13v-16l3-5v-3s-1-3,1-3,1-1,1-1-1-3,2-3C35.5,155.5,33.5,154.5,35.5,153.5Z"/></g><g id="trøje_copy_2" data-name="trøje copy 2"><path class="cls-6" d="M74,147c-.6,2.57-2.46,7.69-8,7H37s-5.17,1-5.58-9.5c0,0,.58-6.34-1.92-10.92S25,121,25,121s-2-4-1-7a15.77,15.77,0,0,0,1-4s1-2,4,0,6,3,6,8c0,0,0,2,2,6,0,0,2-13-1-17s3-2,3-2,23-1,24,1c0,0,6-2,3,3s-3,7-3,7S74.23,146,74,147Z"/><path class="cls-2" d="M74,147c-1-9,1.5-25.5,1.5-25.5s1-3-1-3c0,0-2-5-8-10,0,0-3,4-3,7l5,7-2,4S69,135,69,141Z"/></g><g id="blod_copy" data-name="blod copy"><path class="cls-12" d="M51.73,86s-3.14,0-1.57-1.42,0-1.42,0-1.42,0-1.42,1.57,0,1.57,0,1.57,0,1.57,0,0,1.42C53.3,84.61,53.3,88.86,51.73,86Z"/></g></symbol><symbol id="_4" data-name=" 4" viewBox="0 0 100 200"><g id="baggrund_copy_3" data-name="baggrund copy 3"><rect class="cls-1" width="100" height="200"/></g><g id="ansigt_copy_3" data-name="ansigt copy 3"><path class="cls-9" d="M25.5,193.5"/><path class="cls-8" d="M64,153l-6,13s-3-1-3,0l.5-7.5S54,154,51,153Z"/><path class="cls-3" d="M28.5,186.5v-16l3-5v-3S30.31,159,33,159c0,0,1,0,0-1s.5-2.5,2.5-2.5c0,0-2-1,0-2h17s3.19.7,3.09,6.35l.31,5.67a1.76,1.76,0,0,1,2.6,1c1,2,1.18,2.89,2.59,4.44s-1.59,5.54-3.59,1.54c0,0-19.33,5.66-20.5,7.5S28.5,186.5,28.5,186.5Z"/><path class="cls-13" d="M13,165"/></g><g id="ben_copy_3" data-name="ben copy 3"><path class="cls-2" d="M56.42,12.26s-5.19,12.11.23,11.43S56.42,12.26,56.42,12.26Z"/><path class="cls-2" d="M43.42,12.26s-5.19,12.11.23,11.43S43.42,12.26,43.42,12.26Z"/><path class="cls-3" d="M41,66s2-7,0-11c0,0-2.9-5.79,1.74-23.06A7.69,7.69,0,0,0,43,30.07,57.76,57.76,0,0,1,44,19c1-4,6-3,5,0s0,16,0,16,2.3,14.55,1.53,18.85a23.24,23.24,0,0,0-.42,5.2A31.8,31.8,0,0,0,51,66C52,69,41,66,41,66Z"/><path class="cls-4" d="M45.32,17.31c.42-.53,1.39-1,3.58.24a.32.32,0,0,0,.44-.12h0C50,16.14,52.34,11,48,11c-5.76,0-5-.26-3.22,6.17a.32.32,0,0,0,.54.14Z"/><path class="cls-3" d="M65.11,66s-2-7,0-11c0,0,2.85-5.71-1.65-22.7a10.86,10.86,0,0,1-.37-2.57,59.51,59.51,0,0,0-1-10.72c-1-4-6-3-5,0s0,16,0,16-2.46,15.58-1.44,19.27a9.93,9.93,0,0,1,.4,2.93c-.07,2.59-.3,6.8-1,8.8C54.13,69,65.11,66,65.11,66Z"/><path class="cls-4" d="M58.62,17A7,7,0,0,1,62,18c.66-1.28,3.38-7-1-7-5.62,0-5.68.06-4,6C57.12,17.43,58,17,58.62,17Z"/><path class="cls-5" d="M37,106s-5,2-6-41H76s-3,30-10,41Z"/></g><g id="hår_copy_3" data-name="hår copy 3"><path class="cls-7" d="M28.5,186.5s4,10,20,9,17-21,17-21,1-10-5-14L58,166s.58,3,2,4a2.49,2.49,0,0,1,1.17,2.58c-.43,1.24-1.41,2.19-3.67-.08,0,0-17,2.43-20.41,5.1a13.24,13.24,0,0,1-2.17,1.5A14.25,14.25,0,0,0,28.5,186.5Z"/><path class="cls-10" d="M35.5,153.5s-4-1-3.5-12.5c0-1.08.37-2,0-3l-7-18-1.5,53.5s0,10,5,13v-16l3-5v-3s-1-3,1-3,1-1,1-1-1-3,2-3C35.5,155.5,33.5,154.5,35.5,153.5Z"/></g><g id="trøje_copy_3" data-name="trøje copy 3"><path class="cls-6" d="M74,147c-.6,2.57-2.46,7.69-8,7H37s-5.17,1-5.58-9.5c0,0,.58-6.34-1.92-10.92S25,121,25,121s-2-4-1-7a15.77,15.77,0,0,0,1-4s1-2,4,0,6,3,6,8c0,0,0,2,2,6,0,0,2-13-1-17s3-2,3-2,23-1,24,1c0,0,6-2,3,3s-3,7-3,7S74.23,146,74,147Z"/><path class="cls-2" d="M74,147c-1-9,1.5-25.5,1.5-25.5s1-3-1-3c0,0-2-5-8-10,0,0-3,4-3,7l5,7-2,4S69,135,69,141Z"/></g><g id="blod_copy_2" data-name="blod copy 2"><path class="cls-12" d="M52.18,86.8s-3.85,0-1.92-1.74,0-1.74,0-1.74,0-1.74,1.92,0,1.92,0,1.92,0,1.92,0,0,1.74C54.11,85.07,54.11,90.28,52.18,86.8Z"/></g></symbol><symbol id="_5" data-name=" 5" viewBox="0 0 100 200"><g id="baggrund_copy_4" data-name="baggrund copy 4"><rect class="cls-1" width="100" height="200"/></g><g id="ansigt_copy_4" data-name="ansigt copy 4"><path class="cls-9" d="M25.5,193.5"/><path class="cls-8" d="M64,153l-6,13s-3-1-3,0l.5-7.5S54,154,51,153Z"/><path class="cls-3" d="M28.5,186.5v-16l3-5v-3S30.31,159,33,159c0,0,1,0,0-1s.5-2.5,2.5-2.5c0,0-2-1,0-2h17s3.19.7,3.09,6.35l.31,5.67a1.76,1.76,0,0,1,2.6,1c1,2,1.18,2.89,2.59,4.44s-1.59,5.54-3.59,1.54c0,0-19.33,5.66-20.5,7.5S28.5,186.5,28.5,186.5Z"/><path class="cls-13" d="M13,165"/></g><g id="ben_copy_4" data-name="ben copy 4"><path class="cls-2" d="M56.42,12.26s-5.19,12.11.23,11.43S56.42,12.26,56.42,12.26Z"/><path class="cls-2" d="M43.42,12.26s-5.19,12.11.23,11.43S43.42,12.26,43.42,12.26Z"/><path class="cls-3" d="M41,66s2-7,0-11c0,0-2.9-5.79,1.74-23.06A7.69,7.69,0,0,0,43,30.07,57.76,57.76,0,0,1,44,19c1-4,6-3,5,0s0,16,0,16,2.3,14.55,1.53,18.85a23.24,23.24,0,0,0-.42,5.2A31.8,31.8,0,0,0,51,66C52,69,41,66,41,66Z"/><path class="cls-4" d="M45.32,17.31c.42-.53,1.39-1,3.58.24a.32.32,0,0,0,.44-.12h0C50,16.14,52.34,11,48,11c-5.76,0-5-.26-3.22,6.17a.32.32,0,0,0,.54.14Z"/><path class="cls-3" d="M65.11,66s-2-7,0-11c0,0,2.85-5.71-1.65-22.7a10.86,10.86,0,0,1-.37-2.57,59.51,59.51,0,0,0-1-10.72c-1-4-6-3-5,0s0,16,0,16-2.46,15.58-1.44,19.27a9.93,9.93,0,0,1,.4,2.93c-.07,2.59-.3,6.8-1,8.8C54.13,69,65.11,66,65.11,66Z"/><path class="cls-4" d="M58.62,17A7,7,0,0,1,62,18c.66-1.28,3.38-7-1-7-5.62,0-5.68.06-4,6C57.12,17.43,58,17,58.62,17Z"/><path class="cls-5" d="M37,106s-5,2-6-41H76s-3,30-10,41Z"/></g><g id="hår_copy_4" data-name="hår copy 4"><path class="cls-7" d="M28.5,186.5s4,10,20,9,17-21,17-21,1-10-5-14L58,166s.58,3,2,4a2.49,2.49,0,0,1,1.17,2.58c-.43,1.24-1.41,2.19-3.67-.08,0,0-17,2.43-20.41,5.1a13.24,13.24,0,0,1-2.17,1.5A14.25,14.25,0,0,0,28.5,186.5Z"/><path class="cls-10" d="M35.5,153.5s-4-1-3.5-12.5c0-1.08.37-2,0-3l-7-18-1.5,53.5s0,10,5,13v-16l3-5v-3s-1-3,1-3,1-1,1-1-1-3,2-3C35.5,155.5,33.5,154.5,35.5,153.5Z"/></g><g id="trøje_copy_4" data-name="trøje copy 4"><path class="cls-6" d="M74,147c-.6,2.57-2.46,7.69-8,7H37s-5.17,1-5.58-9.5c0,0,.58-6.34-1.92-10.92S25,121,25,121s-2-4-1-7a15.77,15.77,0,0,0,1-4s1-2,4,0,6,3,6,8c0,0,0,2,2,6,0,0,2-13-1-17s3-2,3-2,23-1,24,1c0,0,6-2,3,3s-3,7-3,7S74.23,146,74,147Z"/><path class="cls-2" d="M74,147c-1-9,1.5-25.5,1.5-25.5s1-3-1-3c0,0-2-5-8-10,0,0-3,4-3,7l5,7-2,4S69,135,69,141Z"/></g><g id="blod_copy_3" data-name="blod copy 3"><path class="cls-12" d="M51.64,87.59s-4.56,0-2.28-2.06,0-2.06,0-2.06,0-2.06,2.28,0,2.28,0,2.28,0,2.28,0,0,2.06C53.91,85.53,53.91,91.7,51.64,87.59Z"/></g></symbol><symbol id="_6" data-name=" 6" viewBox="0 0 100 200"><g id="baggrund_copy_5" data-name="baggrund copy 5"><rect class="cls-1" width="100" height="200"/></g><g id="ansigt_copy_5" data-name="ansigt copy 5"><path class="cls-9" d="M25.5,193.5"/><path class="cls-8" d="M64,153l-6,13s-3-1-3,0l.5-7.5S54,154,51,153Z"/><path class="cls-3" d="M28.5,186.5v-16l3-5v-3S30.31,159,33,159c0,0,1,0,0-1s.5-2.5,2.5-2.5c0,0-2-1,0-2h17s3.19.7,3.09,6.35l.31,5.67a1.76,1.76,0,0,1,2.6,1c1,2,1.18,2.89,2.59,4.44s-1.59,5.54-3.59,1.54c0,0-19.33,5.66-20.5,7.5S28.5,186.5,28.5,186.5Z"/><path class="cls-13" d="M13,165"/></g><g id="ben_copy_5" data-name="ben copy 5"><path class="cls-2" d="M56.42,12.26s-5.19,12.11.23,11.43S56.42,12.26,56.42,12.26Z"/><path class="cls-2" d="M43.42,12.26s-5.19,12.11.23,11.43S43.42,12.26,43.42,12.26Z"/><path class="cls-3" d="M41,66s2-7,0-11c0,0-2.9-5.79,1.74-23.06A7.69,7.69,0,0,0,43,30.07,57.76,57.76,0,0,1,44,19c1-4,6-3,5,0s0,16,0,16,2.3,14.55,1.53,18.85a23.24,23.24,0,0,0-.42,5.2A31.8,31.8,0,0,0,51,66C52,69,41,66,41,66Z"/><path class="cls-4" d="M45.32,17.31c.42-.53,1.39-1,3.58.24a.32.32,0,0,0,.44-.12h0C50,16.14,52.34,11,48,11c-5.76,0-5-.26-3.22,6.17a.32.32,0,0,0,.54.14Z"/><path class="cls-3" d="M65.11,66s-2-7,0-11c0,0,2.85-5.71-1.65-22.7a10.86,10.86,0,0,1-.37-2.57,59.51,59.51,0,0,0-1-10.72c-1-4-6-3-5,0s0,16,0,16-2.46,15.58-1.44,19.27a9.93,9.93,0,0,1,.4,2.93c-.07,2.59-.3,6.8-1,8.8C54.13,69,65.11,66,65.11,66Z"/><path class="cls-4" d="M58.62,17A7,7,0,0,1,62,18c.66-1.28,3.38-7-1-7-5.62,0-5.68.06-4,6C57.12,17.43,58,17,58.62,17Z"/><path class="cls-5" d="M37,106s-5,2-6-41H76s-3,30-10,41Z"/></g><g id="hår_copy_5" data-name="hår copy 5"><path class="cls-7" d="M28.5,186.5s4,10,20,9,17-21,17-21,1-10-5-14L58,166s.58,3,2,4a2.49,2.49,0,0,1,1.17,2.58c-.43,1.24-1.41,2.19-3.67-.08,0,0-17,2.43-20.41,5.1a13.24,13.24,0,0,1-2.17,1.5A14.25,14.25,0,0,0,28.5,186.5Z"/><path class="cls-10" d="M35.5,153.5s-4-1-3.5-12.5c0-1.08.37-2,0-3l-7-18-1.5,53.5s0,10,5,13v-16l3-5v-3s-1-3,1-3,1-1,1-1-1-3,2-3C35.5,155.5,33.5,154.5,35.5,153.5Z"/></g><g id="trøje_copy_5" data-name="trøje copy 5"><path class="cls-6" d="M74,147c-.6,2.57-2.46,7.69-8,7H37s-5.17,1-5.58-9.5c0,0,.58-6.34-1.92-10.92S25,121,25,121s-2-4-1-7a15.77,15.77,0,0,0,1-4s1-2,4,0,6,3,6,8c0,0,0,2,2,6,0,0,2-13-1-17s3-2,3-2,23-1,24,1c0,0,6-2,3,3s-3,7-3,7S74.23,146,74,147Z"/><path class="cls-2" d="M74,147c-1-9,1.5-25.5,1.5-25.5s1-3-1-3c0,0-2-5-8-10,0,0-3,4-3,7l5,7-2,4S69,135,69,141Z"/></g><g id="blod_copy_4" data-name="blod copy 4"><path class="cls-12" d="M51.09,88.37s-5.26,0-2.63-2.38,0-2.38,0-2.38,0-2.38,2.63,0,2.63,0,2.63,0,2.63,0,0,2.38C53.72,86,53.72,93.12,51.09,88.37Z"/></g></symbol><symbol id="_7" data-name=" 7" viewBox="0 0 100 200"><g id="baggrund_copy_6" data-name="baggrund copy 6"><rect class="cls-1" width="100" height="200"/></g><g id="ansigt_copy_6" data-name="ansigt copy 6"><path class="cls-9" d="M25.5,193.5"/><path class="cls-8" d="M64,153l-6,13s-3-1-3,0l.5-7.5S54,154,51,153Z"/><path class="cls-3" d="M28.5,186.5v-16l3-5v-3S30.31,159,33,159c0,0,1,0,0-1s.5-2.5,2.5-2.5c0,0-2-1,0-2h17s3.19.7,3.09,6.35l.31,5.67a1.76,1.76,0,0,1,2.6,1c1,2,1.18,2.89,2.59,4.44s-1.59,5.54-3.59,1.54c0,0-19.33,5.66-20.5,7.5S28.5,186.5,28.5,186.5Z"/><path class="cls-13" d="M13,165"/></g><g id="ben_copy_6" data-name="ben copy 6"><path class="cls-2" d="M56.42,12.26s-5.19,12.11.23,11.43S56.42,12.26,56.42,12.26Z"/><path class="cls-2" d="M43.42,12.26s-5.19,12.11.23,11.43S43.42,12.26,43.42,12.26Z"/><path class="cls-3" d="M41,66s2-7,0-11c0,0-2.9-5.79,1.74-23.06A7.69,7.69,0,0,0,43,30.07,57.76,57.76,0,0,1,44,19c1-4,6-3,5,0s0,16,0,16,2.3,14.55,1.53,18.85a23.24,23.24,0,0,0-.42,5.2A31.8,31.8,0,0,0,51,66C52,69,41,66,41,66Z"/><path class="cls-4" d="M45.32,17.31c.42-.53,1.39-1,3.58.24a.32.32,0,0,0,.44-.12h0C50,16.14,52.34,11,48,11c-5.76,0-5-.26-3.22,6.17a.32.32,0,0,0,.54.14Z"/><path class="cls-3" d="M65.11,66s-2-7,0-11c0,0,2.85-5.71-1.65-22.7a10.86,10.86,0,0,1-.37-2.57,59.51,59.51,0,0,0-1-10.72c-1-4-6-3-5,0s0,16,0,16-2.46,15.58-1.44,19.27a9.93,9.93,0,0,1,.4,2.93c-.07,2.59-.3,6.8-1,8.8C54.13,69,65.11,66,65.11,66Z"/><path class="cls-4" d="M58.62,17A7,7,0,0,1,62,18c.66-1.28,3.38-7-1-7-5.62,0-5.68.06-4,6C57.12,17.43,58,17,58.62,17Z"/><path class="cls-5" d="M37,106s-5,2-6-41H76s-3,30-10,41Z"/></g><g id="hår_copy_6" data-name="hår copy 6"><path class="cls-7" d="M28.5,186.5s4,10,20,9,17-21,17-21,1-10-5-14L58,166s.58,3,2,4a2.49,2.49,0,0,1,1.17,2.58c-.43,1.24-1.41,2.19-3.67-.08,0,0-17,2.43-20.41,5.1a13.24,13.24,0,0,1-2.17,1.5A14.25,14.25,0,0,0,28.5,186.5Z"/><path class="cls-10" d="M35.5,153.5s-4-1-3.5-12.5c0-1.08.37-2,0-3l-7-18-1.5,53.5s0,10,5,13v-16l3-5v-3s-1-3,1-3,1-1,1-1-1-3,2-3C35.5,155.5,33.5,154.5,35.5,153.5Z"/></g><g id="trøje_copy_6" data-name="trøje copy 6"><path class="cls-6" d="M74,147c-.6,2.57-2.46,7.69-8,7H37s-5.17,1-5.58-9.5c0,0,.58-6.34-1.92-10.92S25,121,25,121s-2-4-1-7a15.77,15.77,0,0,0,1-4s1-2,4,0,6,3,6,8c0,0,0,2,2,6,0,0,2-13-1-17s3-2,3-2,23-1,24,1c0,0,6-2,3,3s-3,7-3,7S74.23,146,74,147Z"/><path class="cls-2" d="M74,147c-1-9,1.5-25.5,1.5-25.5s1-3-1-3c0,0-2-5-8-10,0,0-3,4-3,7l5,7-2,4S69,135,69,141Z"/></g><g id="blod_copy_5" data-name="blod copy 5"><path class="cls-12" d="M50.61,89.15s-6.08,0-3-2.7,0-2.7,0-2.7,0-2.7,3,0,3,0,3,0,3,0,0,2.7C53.65,86.45,53.65,94.54,50.61,89.15Z"/></g></symbol><symbol id="_8" data-name=" 8" viewBox="0 0 100 200"><g id="baggrund_copy_7" data-name="baggrund copy 7"><rect class="cls-1" width="100" height="200"/></g><g id="ansigt_copy_7" data-name="ansigt copy 7"><path class="cls-9" d="M25.5,193.5"/><path class="cls-8" d="M64,153l-6,13s-3-1-3,0l.5-7.5S54,154,51,153Z"/><path class="cls-3" d="M28.5,186.5v-16l3-5v-3S30.31,159,33,159c0,0,1,0,0-1s.5-2.5,2.5-2.5c0,0-2-1,0-2h17s3.19.7,3.09,6.35l.31,5.67a1.76,1.76,0,0,1,2.6,1c1,2,1.18,2.89,2.59,4.44s-1.59,5.54-3.59,1.54c0,0-19.33,5.66-20.5,7.5S28.5,186.5,28.5,186.5Z"/><path class="cls-13" d="M13,165"/></g><g id="ben_copy_7" data-name="ben copy 7"><path class="cls-2" d="M56.42,12.26s-5.19,12.11.23,11.43S56.42,12.26,56.42,12.26Z"/><path class="cls-2" d="M43.42,12.26s-5.19,12.11.23,11.43S43.42,12.26,43.42,12.26Z"/><path class="cls-3" d="M41,66s2-7,0-11c0,0-2.9-5.79,1.74-23.06A7.69,7.69,0,0,0,43,30.07,57.76,57.76,0,0,1,44,19c1-4,6-3,5,0s0,16,0,16,2.3,14.55,1.53,18.85a23.24,23.24,0,0,0-.42,5.2A31.8,31.8,0,0,0,51,66C52,69,41,66,41,66Z"/><path class="cls-4" d="M45.32,17.31c.42-.53,1.39-1,3.58.24a.32.32,0,0,0,.44-.12h0C50,16.14,52.34,11,48,11c-5.76,0-5-.26-3.22,6.17a.32.32,0,0,0,.54.14Z"/><path class="cls-3" d="M65.11,66s-2-7,0-11c0,0,2.85-5.71-1.65-22.7a10.86,10.86,0,0,1-.37-2.57,59.51,59.51,0,0,0-1-10.72c-1-4-6-3-5,0s0,16,0,16-2.46,15.58-1.44,19.27a9.93,9.93,0,0,1,.4,2.93c-.07,2.59-.3,6.8-1,8.8C54.13,69,65.11,66,65.11,66Z"/><path class="cls-4" d="M58.62,17A7,7,0,0,1,62,18c.66-1.28,3.38-7-1-7-5.62,0-5.68.06-4,6C57.12,17.43,58,17,58.62,17Z"/><path class="cls-5" d="M37,106s-5,2-6-41H76s-3,30-10,41Z"/></g><g id="hår_copy_7" data-name="hår copy 7"><path class="cls-7" d="M28.5,186.5s4,10,20,9,17-21,17-21,1-10-5-14L58,166s.58,3,2,4a2.49,2.49,0,0,1,1.17,2.58c-.43,1.24-1.41,2.19-3.67-.08,0,0-17,2.43-20.41,5.1a13.24,13.24,0,0,1-2.17,1.5A14.25,14.25,0,0,0,28.5,186.5Z"/><path class="cls-10" d="M35.5,153.5s-4-1-3.5-12.5c0-1.08.37-2,0-3l-7-18-1.5,53.5s0,10,5,13v-16l3-5v-3s-1-3,1-3,1-1,1-1-1-3,2-3C35.5,155.5,33.5,154.5,35.5,153.5Z"/></g><g id="trøje_copy_7" data-name="trøje copy 7"><path class="cls-6" d="M74,147c-.6,2.57-2.46,7.69-8,7H37s-5.17,1-5.58-9.5c0,0,.58-6.34-1.92-10.92S25,121,25,121s-2-4-1-7a15.77,15.77,0,0,0,1-4s1-2,4,0,6,3,6,8c0,0,0,2,2,6,0,0,2-13-1-17s3-2,3-2,23-1,24,1c0,0,6-2,3,3s-3,7-3,7S74.23,146,74,147Z"/><path class="cls-2" d="M74,147c-1-9,1.5-25.5,1.5-25.5s1-3-1-3c0,0-2-5-8-10,0,0-3,4-3,7l5,7-2,4S69,135,69,141Z"/></g><g id="blod_copy_6" data-name="blod copy 6"><path class="cls-12" d="M51.53,90.71s-7.52,0-3.76-3.33,0-3.33,0-3.33,0-3.33,3.76,0,3.76,0,3.76,0,3.76,0,0,3.33C55.29,87.37,55.29,97.38,51.53,90.71Z"/></g></symbol><symbol id="_9" data-name=" 9" viewBox="0 0 100 200"><g id="ansigt_copy_8" data-name="ansigt copy 8"><path class="cls-9" d="M25.5,193.5"/><path class="cls-8" d="M64,153l-6,13s-3-1-3,0l.5-7.5S54,154,51,153Z"/><path class="cls-3" d="M28.5,186.5v-16l3-5v-3S30.31,159,33,159c0,0,1,0,0-1s.5-2.5,2.5-2.5c0,0-2-1,0-2h17s3.19.7,3.09,6.35l.31,5.67a1.76,1.76,0,0,1,2.6,1c1,2,1.18,2.89,2.59,4.44s-1.59,5.54-3.59,1.54c0,0-19.33,5.66-20.5,7.5S28.5,186.5,28.5,186.5Z"/><path class="cls-13" d="M13,165"/></g><g id="ben_copy_8" data-name="ben copy 8"><path class="cls-2" d="M56.42,12.26s-5.19,12.11.23,11.43S56.42,12.26,56.42,12.26Z"/><path class="cls-2" d="M43.42,12.26s-5.19,12.11.23,11.43S43.42,12.26,43.42,12.26Z"/><path class="cls-3" d="M41,66s2-7,0-11c0,0-2.9-5.79,1.74-23.06A7.69,7.69,0,0,0,43,30.07,57.76,57.76,0,0,1,44,19c1-4,6-3,5,0s0,16,0,16,2.3,14.55,1.53,18.85a23.24,23.24,0,0,0-.42,5.2A31.8,31.8,0,0,0,51,66C52,69,41,66,41,66Z"/><path class="cls-4" d="M45.32,17.31c.42-.53,1.39-1,3.58.24a.32.32,0,0,0,.44-.12h0C50,16.14,52.34,11,48,11c-5.76,0-5-.26-3.22,6.17a.32.32,0,0,0,.54.14Z"/><path class="cls-3" d="M65.11,66s-2-7,0-11c0,0,2.85-5.71-1.65-22.7a10.86,10.86,0,0,1-.37-2.57,59.51,59.51,0,0,0-1-10.72c-1-4-6-3-5,0s0,16,0,16-2.46,15.58-1.44,19.27a9.93,9.93,0,0,1,.4,2.93c-.07,2.59-.3,6.8-1,8.8C54.13,69,65.11,66,65.11,66Z"/><path class="cls-4" d="M58.62,17A7,7,0,0,1,62,18c.66-1.28,3.38-7-1-7-5.62,0-5.68.06-4,6C57.12,17.43,58,17,58.62,17Z"/><path class="cls-5" d="M37,106s-5,2-6-41H76s-3,30-10,41Z"/></g><g id="hår_copy_8" data-name="hår copy 8"><path class="cls-7" d="M28.5,186.5s4,10,20,9,17-21,17-21,1-10-5-14L58,166s.58,3,2,4a2.49,2.49,0,0,1,1.17,2.58c-.43,1.24-1.41,2.19-3.67-.08,0,0-17,2.43-20.41,5.1a13.24,13.24,0,0,1-2.17,1.5A14.25,14.25,0,0,0,28.5,186.5Z"/><path class="cls-10" d="M35.5,153.5s-4-1-3.5-12.5c0-1.08.37-2,0-3l-7-18-1.5,53.5s0,10,5,13v-16l3-5v-3s-1-3,1-3,1-1,1-1-1-3,2-3C35.5,155.5,33.5,154.5,35.5,153.5Z"/></g><g id="trøje_copy_8" data-name="trøje copy 8"><path class="cls-6" d="M74,147c-.6,2.57-2.46,7.69-8,7H37s-5.17,1-5.58-9.5c0,0,.58-6.34-1.92-10.92S25,121,25,121s-2-4-1-7a15.77,15.77,0,0,0,1-4s1-2,4,0,6,3,6,8c0,0,0,2,2,6,0,0,2-13-1-17s3-2,3-2,23-1,24,1c0,0,6-2,3,3s-3,7-3,7S74.23,146,74,147Z"/><path class="cls-2" d="M74,147c-1-9,1.5-25.5,1.5-25.5s1-3-1-3c0,0-2-5-8-10,0,0-3,4-3,7l5,7-2,4S69,135,69,141Z"/></g><g id="blod_copy_7" data-name="blod copy 7"><path class="cls-12" d="M51.45,92.27s-9,0-4.48-4,0-4,0-4,0-4,4.48,0,4.48,0,4.48,0,4.48,0,0,4C55.93,88.29,55.93,100.22,51.45,92.27Z"/></g><rect id="baggrund-2" class="cls-1" width="100" height="200"/></symbol><symbol id="_1_2" data-name=" 1 2" viewBox="0 0 100 200"><g id="baggrund_copy-2" data-name="baggrund copy-2"><rect class="cls-1" width="100" height="200"/></g><g id="ben_copy-2" data-name="ben copy-2"><path class="cls-8" d="M59.12,64.55s-1.56-3.25,3.24-8.63,7.47-17.12,9.7-33-5-.7-5-.7L50.2,56.92l-1.46,1.72.15,6.46Z"/><path class="cls-3" d="M50.68,59.71S47.39,58.24,47.57,51,42.19,33.14,33.65,19.61s-4.23,2.67-4.23,2.67L39,59.64V61.9l4.29,4.83Z"/><path class="cls-2" d="M72.28,19.05l-4.44-.62s-.16-5.35-5.48-6.53,0-5.9,0-5.9l8,4.72L77,14.27S78.21,17.93,72.28,19.05Z"/><path class="cls-4" d="M33,17.42l-3.14,3.19s-4.39-3.06-8.5.51-4.74-3.52-4.74-3.52L25.16,14,32,10.78S35.64,12,33,17.42Z"/></g><g id="krop_copy" data-name="krop copy"><path class="cls-9" d="M32.19,196"/><path class="cls-3" d="M34.08,188.62,31.64,172.8l2.2-5.4-.46-3s-1.72-3.29,1-3.69c0,0,1-.15-.15-1s.11-2.55,2.09-2.85c0,0-2.13-.68-.31-2a3.19,3.19,0,0,1,1-3.69c1-1,2.13-1,4-.61,6.45,1.44,15.45,4.44,15.87,7.57L58,163.69a1.76,1.76,0,0,1,2.72.57c1.29,1.82,1.6,2.67,3.24,4s-.77,5.74-3.36,2.08c0,0-18.24,8.56-19.11,10.55S34.08,188.62,34.08,188.62Z"/><path class="cls-7" d="M34.08,188.62s5.48,9.27,21.14,5.83,13.59-23.36,13.59-23.36S66,155,55,156l3,8s2.31-1.49,4,3c.34.92,2.41,1.89,2.24,2.86-.23,1.29-1.06,2.38-3.64.48,0,0-16.44,5-19.39,8.17a13.24,13.24,0,0,1-1.92,1.82C37.72,181.45,35.3,183.86,34.08,188.62Z"/><path class="cls-10" d="M36,154.93S34,148,45,152c1,.37,3.52-26.06,3-27l-18-3-2.85,54.53s1.53,9.88,6.93,12.08L31.64,172.8l2.2-5.4-.46-3s-1.45-2.81.53-3.12.84-1.14.84-1.14-1.45-2.81,1.52-3.27C36.26,156.91,34.13,156.23,36,154.93Z"/><path class="cls-8" d="M44.55,151.53S47,146,44,144s-8-10-8-10-5-6,0-12,3-19,3-19l-3-9H63l-1,18c4,36-2,32-5,34s-2,10-2,10"/><path class="cls-11" d="M71,53c0,40-8,41-8,41H36L27,53Z"/><path class="cls-8" d="M17.65,115.48l-9.21,2s-2.22.27-.61-1.28a3.55,3.55,0,0,1,3.5-.88l-7.27-.47s-1.88-.67-.61-1.28L4.73,113s-4.1-.4-.61-1.28c0,0-1.55-1.61.67-1.88l3.21.07s-1.88-.67.34-.94c0,0,3.16.07,4.71,1.68a6.85,6.85,0,0,0,3.29,1.95l.85-.53Z"/><path class="cls-4" d="M38.77,127.82s8.29,8.26,8.15-3.82c0,0-3.4-7.24-7.76-11.83S15.91,112,15.91,112l.79,4s15.59,2.71,18.3,1.44C35,117.44,36.17,124.62,38.77,127.82Z"/><path class="cls-6" d="M41.43,141.53S43,137,57,146c0,0,12,2,5-34l1-18H36l3,9s1,13-1.7,17C34.81,123.7,28.86,130.06,41.43,141.53Z"/><path class="cls-3" d="M44.62,106.17,35.73,103s-2-1,.17-1.4a3.55,3.55,0,0,1,3.43,1.12l-5.91-4.26s-1.24-1.57.17-1.4l1.4.17s-3.26-2.52.17-1.4c0,0-.45-2.19,1.57-1.24l2.64,1.74s-1.24-1.57.78-.62c0,0,2.64,1.74,3.1,3.92A6.85,6.85,0,0,0,45,103h1Z"/></g><g id="arme_copy" data-name="arme copy"><path class="cls-4" d="M49.41,129.44s-.16,11.7,8.41,3.19c0,0,2.84-7.48,3.1-13.8S44.84,102,44.84,102l-2.35,3.38s9,13,11.76,14.09C54.25,119.51,49.9,125.35,49.41,129.44Z"/></g></symbol><symbol id="_2_2" data-name=" 2 2" viewBox="0 0 100 200"><g id="baggrund_copy_2-2" data-name="baggrund copy 2-2"><rect class="cls-1" width="100" height="200"/></g><g id="ben_copy_2-2" data-name="ben copy 2-2"><path class="cls-8" d="M59.12,64.55S66.8,64.17,66,57c-1-9,37.76-26,21-26-7,0-34.61,22.19-37,26l.25-.05-1.46,1.72.15,6.46Z"/><path class="cls-3" d="M47.38,64.12S44.47,62,46.18,55s-1.47-18.62-7-33.65-4.7,1.71-4.7,1.71L36,61.58l-.48,2.21,3.17,5.63Z"/><path class="cls-2" d="M89.25,34.94l-3-3.31s3.29-4.22-.05-8.52S90,18.56,90,18.56l3.12,8.72,2.85,7S94.54,37.86,89.25,34.94Z"/><path class="cls-4" d="M38.13,19.5l-3.8,2.38s-3.56-4-8.39-1.48-3.79-4.52-3.79-4.52l9.14-1.5,7.37-1.55S42,14.83,38.13,19.5Z"/></g><g id="krop_copy_2" data-name="krop copy 2"><path class="cls-9" d="M32.19,196"/><path class="cls-3" d="M34.08,188.62,31.64,172.8l2.2-5.4-.46-3s-1.72-3.29,1-3.69c0,0,1-.15-.15-1s.11-2.55,2.09-2.85c0,0-2.13-.68-.31-2a3.19,3.19,0,0,1,1-3.69c1-1,2.13-1,4-.61,6.45,1.44,15.45,4.44,15.87,7.57L58,163.69a1.76,1.76,0,0,1,2.72.57c1.29,1.82,1.6,2.67,3.24,4s-.77,5.74-3.36,2.08c0,0-18.24,8.56-19.11,10.55S34.08,188.62,34.08,188.62Z"/><path class="cls-7" d="M34.08,188.62s5.48,9.27,21.14,5.83,13.59-23.36,13.59-23.36S66,155,55,156l3,8s2.31-1.49,4,3c.34.92,2.41,1.89,2.24,2.86-.23,1.29-1.06,2.38-3.64.48,0,0-16.44,5-19.39,8.17a13.24,13.24,0,0,1-1.92,1.82C37.72,181.45,35.3,183.86,34.08,188.62Z"/><path class="cls-10" d="M36,154.93S34,148,45,152c1,.37,3.52-26.06,3-27l-18-3-2.85,54.53s1.53,9.88,6.93,12.08L31.64,172.8l2.2-5.4-.46-3s-1.45-2.81.53-3.12.84-1.14.84-1.14-1.45-2.81,1.52-3.27C36.26,156.91,34.13,156.23,36,154.93Z"/><path class="cls-8" d="M44.55,151.53S47,146,44,144s-8-10-8-10-5-6,0-12,3-19,3-19l-3-9H63l-1,18c4,36-2,32-5,34s-2,10-2,10"/><path class="cls-11" d="M71,53c0,40-8,41-8,41H36L27,53Z"/><path class="cls-8" d="M26.83,112.58l-9.4-.76s-2.2-.39-.21-1.4a3.55,3.55,0,0,1,3.6.18L14,108s-1.61-1.19-.21-1.4l1.4-.21s-3.8-1.54-.19-1.39c0,0-1-2,1.19-1.61l3,1s-1.61-1.19.6-.8c0,0,3,1,4,3a6.85,6.85,0,0,0,2.57,2.83l1-.26Z"/><path class="cls-4" d="M42.65,129.31s5.9,10.11,8.86-1.6c0,0-1.43-7.87-4.46-13.42s-22.45-6.1-22.45-6.1l-.27,4.11s14.4,6.54,17.35,6C41.68,118.31,41,125.55,42.65,129.31Z"/><path class="cls-6" d="M41.43,141.53S43,137,57,146c0,0,12,2,5-34l1-18H36l3,9s1,13-1.7,17C34.81,123.7,28.86,130.06,41.43,141.53Z"/><path class="cls-3" d="M47.7,107l-8.27-4.54s-1.85-1.26.38-1.36A3.55,3.55,0,0,1,43,102.69l-5.16-5.13s-1-1.75.38-1.36l1.36.38s-2.83-3,.38-1.36c0,0-.1-2.23,1.75-1l2.34,2.13s-1-1.75.87-.49c0,0,2.34,2.13,2.44,4.36a6.85,6.85,0,0,0,1.19,3.63l1,.16Z"/></g><g id="arme_copy_2" data-name="arme copy 2"><path class="cls-4" d="M47.69,129.19s-2.19,11.5,7.73,4.6c0,0,4.09-6.87,5.44-13.05s-12.92-19.33-12.92-19.33L45,104.33s6.57,14.38,9.14,15.92C54.18,120.25,48.88,125.24,47.69,129.19Z"/></g></symbol><symbol id="_3_2" data-name=" 3 2" viewBox="0 0 100 200"><g id="baggrund_copy_3-2" data-name="baggrund copy 3-2"><rect class="cls-1" width="100" height="200"/></g><g id="ben_copy_3-2" data-name="ben copy 3-2"><path class="cls-8" d="M40.12,64.55S47.8,64.17,47,57c-1-9,37.76-26,21-26-7,0-34.61,22.19-37,26l.25-.05-1.46,1.72.15,6.46Z"/><path class="cls-3" d="M51.84,65.45s-2.56-2.54.16-9.22,1.3-18.64-1.9-34.31-4.9,1-4.9,1L40.94,61.26l-.8,2.11,2.3,6Z"/><path class="cls-2" d="M70.25,34.94l-3-3.31s3.29-4.22-.05-8.52S71,18.56,71,18.56l3.12,8.72,2.85,7S75.54,37.86,70.25,34.94Z"/><path class="cls-4" d="M49.29,20l-4.11,1.79s-2.93-4.47-8.08-2.71S34,14,34,14l9.26-.13,7.51-.45S53.77,15.9,49.29,20Z"/></g><g id="krop_copy_3" data-name="krop copy 3"><path class="cls-9" d="M32.19,196"/><path class="cls-3" d="M34.08,188.62,31.64,172.8l2.2-5.4-.46-3s-1.72-3.29,1-3.69c0,0,1-.15-.15-1s.11-2.55,2.09-2.85c0,0-2.13-.68-.31-2a3.19,3.19,0,0,1,1-3.69c1-1,2.13-1,4-.61,6.45,1.44,15.45,4.44,15.87,7.57L58,163.69a1.76,1.76,0,0,1,2.72.57c1.29,1.82,1.6,2.67,3.24,4s-.77,5.74-3.36,2.08c0,0-18.24,8.56-19.11,10.55S34.08,188.62,34.08,188.62Z"/><path class="cls-7" d="M34.08,188.62s5.48,9.27,21.14,5.83,13.59-23.36,13.59-23.36S66,155,55,156l3,8s2.31-1.49,4,3c.34.92,2.41,1.89,2.24,2.86-.23,1.29-1.06,2.38-3.64.48,0,0-16.44,5-19.39,8.17a13.24,13.24,0,0,1-1.92,1.82C37.72,181.45,35.3,183.86,34.08,188.62Z"/><path class="cls-10" d="M36,154.93S34,148,45,152c1,.37,3.52-26.06,3-27l-18-3-2.85,54.53s1.53,9.88,6.93,12.08L31.64,172.8l2.2-5.4-.46-3s-1.45-2.81.53-3.12.84-1.14.84-1.14-1.45-2.81,1.52-3.27C36.26,156.91,34.13,156.23,36,154.93Z"/><path class="cls-8" d="M44.55,151.53S47,146,44,144s-8-10-8-10-5-6,0-12,3-19,3-19l-3-9H63l-1,18c4,36-2,32-5,34s-2,10-2,10"/><path class="cls-11" d="M71,53c0,40-8,41-8,41H36L27,53Z"/><path class="cls-8" d="M44,108.47l-7.35-5.92s-1.6-1.56.62-1.27a3.55,3.55,0,0,1,2.87,2.18l-4.18-6s-.66-1.89.62-1.27l1.27.62s-2.26-3.45.62-1.27c0,0,.29-2.22,1.89-.66l1.93,2.51s-.66-1.89.94-.33c0,0,1.93,2.51,1.64,4.72a6.85,6.85,0,0,0,.54,3.78l.94.33Z"/><path class="cls-4" d="M47.71,131.2s-.82,11.68,8.22,3.66c0,0,3.25-7.31,3.87-13.6s-15.12-17.68-15.12-17.68l-2.54,3.25s8.22,13.51,11,14.73C53.1,121.56,48.42,127.14,47.71,131.2Z"/><path class="cls-6" d="M41.43,141.53S43,137,57,146c0,0,12,2,5-34l1-18H36l3,9s1,13-1.7,17C34.81,123.7,28.86,130.06,41.43,141.53Z"/><path class="cls-3" d="M33.39,110.56l-9,2.88s-2.18.48-.72-1.21a3.55,3.55,0,0,1,3.4-1.2l-7.28.22s-1.94-.49-.72-1.21l1.21-.72s-4.12,0-.72-1.21c0,0-1.69-1.46.49-1.94l3.15-.23s-1.94-.49.25-1c0,0,3.15-.23,4.85,1.23a6.85,6.85,0,0,0,3.45,1.63l.79-.61Z"/></g><g id="arme_copy_3" data-name="arme copy 3"><path class="cls-4" d="M49.53,127.86s6.84,9.5,8.66-2.45c0,0-2.18-7.7-5.73-12.93s-22.93-3.91-22.93-3.91l.13,4.12s15,5.12,17.84,4.31C47.5,117,47.48,124.28,49.53,127.86Z"/></g></symbol><symbol id="_4_2" data-name=" 4 2" viewBox="0 0 100 200"><g id="baggrund_copy_4-2" data-name="baggrund copy 4-2"><rect class="cls-1" width="100" height="200"/></g><g id="ben_copy_4-2" data-name="ben copy 4-2"><path class="cls-8" d="M49.63,65.19s1.91-7.45-5.18-8.8c-8.89-1.7-13.68-43.76-18.64-27.74-2.07,6.69,11,39.63,13.91,43V71.4L41,73.32l6.22,1.77Z"/><path class="cls-3" d="M53.55,70.84S52,67.6,56.71,62.18,64,45,66.09,29.12s-5-.65-5-.65L44.61,63.33l-1.45,1.73.21,6.46Z"/><path class="cls-2" d="M30.24,27.65l-4.06,1.91S23.12,25.17,18,27.09s-3.23-4.94-3.23-4.94l9.26-.41,7.5-.67S34.59,23.47,30.24,27.65Z"/><path class="cls-4" d="M66,27l-4.47.35s-1.31-5.18-6.75-5.19-1.27-5.77-1.27-5.77l8.8,2.89,7.25,2S71.52,24.63,66,27Z"/></g><g id="krop_copy_4" data-name="krop copy 4"><path class="cls-9" d="M32.19,196"/><path class="cls-3" d="M34.08,188.62,31.64,172.8l2.2-5.4-.46-3s-1.72-3.29,1-3.69c0,0,1-.15-.15-1s.11-2.55,2.09-2.85c0,0-2.13-.68-.31-2a3.19,3.19,0,0,1,1-3.69c1-1,2.13-1,4-.61,6.45,1.44,15.45,4.44,15.87,7.57L58,163.69a1.76,1.76,0,0,1,2.72.57c1.29,1.82,1.6,2.67,3.24,4s-.77,5.74-3.36,2.08c0,0-18.24,8.56-19.11,10.55S34.08,188.62,34.08,188.62Z"/><path class="cls-7" d="M34.08,188.62s5.48,9.27,21.14,5.83,13.59-23.36,13.59-23.36S66,155,55,156l3,8s2.31-1.49,4,3c.34.92,2.41,1.89,2.24,2.86-.23,1.29-1.06,2.38-3.64.48,0,0-16.44,5-19.39,8.17a13.24,13.24,0,0,1-1.92,1.82C37.72,181.45,35.3,183.86,34.08,188.62Z"/><path class="cls-10" d="M36,154.93S34,148,45,152c1,.37,3.52-26.06,3-27l-18-3-2.85,54.53s1.53,9.88,6.93,12.08L31.64,172.8l2.2-5.4-.46-3s-1.45-2.81.53-3.12.84-1.14.84-1.14-1.45-2.81,1.52-3.27C36.26,156.91,34.13,156.23,36,154.93Z"/><path class="cls-8" d="M44.55,151.53S47,146,44,144s-8-10-8-10-5-6,0-12,3-19,3-19l-3-9H63l-1,18c4,36-2,32-5,34s-2,10-2,10"/><path class="cls-11" d="M71,53c0,40-8,41-8,41H36L27,53Z"/><path class="cls-8" d="M44,108.47l-7.35-5.92s-1.6-1.56.62-1.27a3.55,3.55,0,0,1,2.87,2.18l-4.18-6s-.66-1.89.62-1.27l1.27.62s-2.26-3.45.62-1.27c0,0,.29-2.22,1.89-.66l1.93,2.51s-.66-1.89.94-.33c0,0,1.93,2.51,1.64,4.72a6.85,6.85,0,0,0,.54,3.78l.94.33Z"/><path class="cls-4" d="M47.71,131.2s-.82,11.68,8.22,3.66c0,0,3.25-7.31,3.87-13.6s-15.12-17.68-15.12-17.68l-2.54,3.25s8.22,13.51,11,14.73C53.1,121.56,48.42,127.14,47.71,131.2Z"/><path class="cls-6" d="M41.43,141.53S43,137,57,146c0,0,12,2,5-34l1-18H36l3,9s1,13-1.7,17C34.81,123.7,28.86,130.06,41.43,141.53Z"/><path class="cls-3" d="M33.39,110.56l-9,2.88s-2.18.48-.72-1.21a3.55,3.55,0,0,1,3.4-1.2l-7.28.22s-1.94-.49-.72-1.21l1.21-.72s-4.12,0-.72-1.21c0,0-1.69-1.46.49-1.94l3.15-.23s-1.94-.49.25-1c0,0,3.15-.23,4.85,1.23a6.85,6.85,0,0,0,3.45,1.63l.79-.61Z"/></g><g id="arme_copy_4" data-name="arme copy 4"><path class="cls-4" d="M49.53,127.86s6.84,9.5,8.66-2.45c0,0-2.18-7.7-5.73-12.93s-22.93-3.91-22.93-3.91l.13,4.12s15,5.12,17.84,4.31C47.5,117,47.48,124.28,49.53,127.86Z"/></g></symbol><symbol id="_5_2" data-name=" 5 2" viewBox="0 0 100 200"><g id="baggrund-3"><rect class="cls-1" width="100" height="200"/></g><g id="ben-2"><path class="cls-3" d="M59.12,64.55s-1.56-3.25,3.24-8.63,7.47-17.12,9.7-33-5-.7-5-.7L50.2,56.92l-1.46,1.72.15,6.46Z"/><path class="cls-8" d="M50.68,59.71S47.39,58.24,47.57,51,42.19,33.14,33.65,19.61s-4.23,2.67-4.23,2.67L39,59.64V61.9l4.29,4.83Z"/><path class="cls-4" d="M72.28,19.05l-4.44-.62s-.16-5.35-5.48-6.53,0-5.9,0-5.9l8,4.72L77,14.27S78.21,17.93,72.28,19.05Z"/><path class="cls-2" d="M33,17.42l-3.14,3.19s-4.39-3.06-8.5.51-4.74-3.52-4.74-3.52L25.16,14,32,10.78S35.64,12,33,17.42Z"/></g><g id="krop"><path class="cls-9" d="M32.19,196"/><path class="cls-3" d="M34.08,188.62,31.64,172.8l2.2-5.4-.46-3s-1.72-3.29,1-3.69c0,0,1-.15-.15-1s.11-2.55,2.09-2.85c0,0-2.13-.68-.31-2a3.19,3.19,0,0,1,1-3.69c1-1,2.13-1,4-.61,6.45,1.44,15.45,4.44,15.87,7.57L58,163.69a1.76,1.76,0,0,1,2.72.57c1.29,1.82,1.6,2.67,3.24,4s-.77,5.74-3.36,2.08c0,0-18.24,8.56-19.11,10.55S34.08,188.62,34.08,188.62Z"/><path class="cls-7" d="M34.08,188.62s5.48,9.27,21.14,5.83,13.59-23.36,13.59-23.36S66,155,55,156l3,8s2.31-1.49,4,3c.34.92,2.41,1.89,2.24,2.86-.23,1.29-1.06,2.38-3.64.48,0,0-16.44,5-19.39,8.17a13.24,13.24,0,0,1-1.92,1.82C37.72,181.45,35.3,183.86,34.08,188.62Z"/><path class="cls-10" d="M36,154.93S34,148,45,152c1,.37,3.52-26.06,3-27l-18-3-2.85,54.53s1.53,9.88,6.93,12.08L31.64,172.8l2.2-5.4-.46-3s-1.45-2.81.53-3.12.84-1.14.84-1.14-1.45-2.81,1.52-3.27C36.26,156.91,34.13,156.23,36,154.93Z"/><path class="cls-8" d="M44.55,151.53S47,146,44,144s-8-10-8-10-5-6,0-12,3-19,3-19l-3-9H63l-1,18c4,36-2,32-5,34s-2,10-2,10"/><path class="cls-11" d="M71,53c0,40-8,41-8,41H36L27,53Z"/><path class="cls-8" d="M63.43,110.8l-1.6-9.3s-.17-2.23,1.3-.55a3.55,3.55,0,0,1,.72,3.53l.8-7.24s.76-1.85,1.3-.55L66.5,98s.59-4.08,1.3-.55c0,0,1.68-1.47,1.85.76l-.21,3.16s.76-1.85.93.38c0,0-.21,3.16-1.89,4.63a6.85,6.85,0,0,0-2.1,3.19l.49.87Z"/><path class="cls-4" d="M50.14,131.35s-8.63,7.91,3.45,8.31c0,0,7.39-3.06,12.17-7.21S67,109.22,67,109.22l-4.08.61s-3.33,15.46-2.18,18.23C60.69,128.06,53.45,128.89,50.14,131.35Z"/><path class="cls-6" d="M41.43,141.53S43,137,57,146c0,0,12,2,5-34l1-18H36l3,9s1,13-1.7,17C34.81,123.7,28.86,130.06,41.43,141.53Z"/><path class="cls-3" d="M32.29,111.72l-9.22,2s-2.22.26-.6-1.28a3.55,3.55,0,0,1,3.5-.86l-7.26-.5s-1.88-.68-.6-1.28l1.28-.6s-4.1-.42-.6-1.28c0,0-1.54-1.62.68-1.88l3.16.08s-1.88-.68.34-.94c0,0,3.16.08,4.7,1.7a6.85,6.85,0,0,0,3.28,2l.85-.53Z"/></g><g id="arme"><path class="cls-4" d="M48.65,129s6,10,8.83-1.73c0,0-1.54-7.85-4.65-13.36s-22.53-5.82-22.53-5.82l-.21,4.12s14.48,6.34,17.42,5.79C47.51,118,46.9,125.22,48.65,129Z"/></g></symbol></defs><title>offer_spritesheet</title><g id="baggrund_copy_8" data-name="baggrund copy 8"><rect class="cls-1" x="-1.11" y="200" width="100" height="200"/></g><use width="100" height="200" transform="matrix(1, 0, 0, -1, -1.11, 400)" xlink:href="#_1"/><use id="_2-3" data-name=" 2-3" width="100" height="200" transform="matrix(1, 0, 0, -1, 101.11, 400)" xlink:href="#_2"/><use id="_3-3" data-name=" 3-3" width="100" height="200" transform="matrix(1, 0, 0, -1, 201.11, 400)" xlink:href="#_3"/><use id="_4-3" data-name=" 4-3" width="100" height="200" transform="matrix(1, 0, 0, -1, 301.11, 400)" xlink:href="#_4"/><use id="_5-3" data-name=" 5-3" width="100" height="200" transform="matrix(1, 0, 0, -1, 401.11, 400)" xlink:href="#_5"/><use id="_6-3" data-name=" 6-3" width="100" height="200" transform="matrix(1, 0, 0, -1, 501.11, 400)" xlink:href="#_6"/><use id="_7-3" data-name=" 7-3" width="100" height="200" transform="matrix(1, 0, 0, -1, 601.11, 400)" xlink:href="#_7"/><use id="_8-3" data-name=" 8-3" width="100" height="200" transform="matrix(1, 0, 0, -1, 701.11, 400)" xlink:href="#_8"/><use id="_9-3" data-name=" 9-3" width="100" height="200" transform="matrix(1, 0, 0, -1, 801.11, 400)" xlink:href="#_9"/><polygon class="cls-10" points="31.61 433.5 45.27 447.21 41.61 455.5 27.61 451.5 31.61 433.5"/><polygon class="cls-7" points="62.61 423.5 64.61 455.5 43.61 446.5 62.61 423.5"/><path class="cls-11" d="M33.11,490s-4,2-5,45l46-1s-6-35-10-44S33.11,490,33.11,490Z"/><path class="cls-3" d="M37.61,532.5s4,9,2,16,5,33,5,33,5,6,5-2,2-33,2-33l-3-15Z"/><path class="cls-3" d="M58.61,533.5s-2,3,2,9,5,18,5,34-5,0-5,0L48.77,539.79l-1.21-1.91,1-6.38Z"/><path class="cls-14" d="M48.11,534s-3,8,5,6"/><path class="cls-4" d="M61.11,578s3.63,3.06,4.75-.5l2.25,9.5s-4.5-5.94-9,0Z"/><path class="cls-2" d="M61.35,584.4a3.29,3.29,0,0,1,4.53,0c2.5,2.37,5.25,6.1-2.26,6.1S58.85,586.77,61.35,584.4Z"/><path class="cls-4" d="M44.11,579s3.88,3.56,5,0l2,9s-4.5-5.94-9,0Z"/><path class="cls-2" d="M44.35,585.4a3.29,3.29,0,0,1,4.53,0c2.5,2.37,5.25,6.1-2.26,6.1S41.85,587.77,44.35,585.4Z"/><path class="cls-8" d="M53.11,442s-2,10,10,8-19,11-19,11l-11-11s11,2,9-7S53.11,442,53.11,442Z"/><path class="cls-6" d="M36.11,450s12,15,21-1h8s7.25-2.72,10.54,22A41.09,41.09,0,0,0,77,477c.4,1.38.31,2.53-1.89,3-5,1,2,1-22-5l1-5,14,4s-3-2-6-14c0,0-5,23,2,28s-29,5-29,5-6,0-2-7,0-23,0-23l-1,11,14,11-2,4s-17-8-20-13c0,0-3,0-2-5s2-16,2-16S24.11,448,36.11,450Z"/><path class="cls-3" d="M56.11,471l-8-5s-2-1-1,1a3.55,3.55,0,0,0,3,2l-7-2s-2,0-1,1l1,1s-4-1-1,1c0,0-2,1,0,2l3,1s-2,0,0,1c0,0,3,1,5,0s3,0,3,0l1,1Z"/><path class="cls-3" d="M45.11,484l8.48,3s2,.85-.11,1.4a3.52,3.52,0,0,1-3.46-1l6,4s1.3,1.5-.11,1.4l-1.41-.1s3.35,2.35-.11,1.4c0,0,.54,2.16-1.51,1.31l-2.7-1.6s1.3,1.5-.76.65c0,0-2.7-1.6-3.24-3.76s-2-2.25-2-2.25l-1.17-.5Z"/><path class="cls-3" d="M31.11,425s-3,13,12,20a7.39,7.39,0,0,0,10-1l6-6s2-3,1-9c0,0,3,0,4-6,0,0-1-4-4-1l-15-13-12,9Z"/><path class="cls-7" d="M46.61,413.5s-22-2-12,58c0,0,2,8-5,12,0,0-5,9-4-53,0,0-2-20,17-23s20,13,20,13v2S49.61,423.5,46.61,413.5Z"/><path class="cls-6" d="M55.61,427.5a13.06,13.06,0,0,1-8,0s-1,0,0,1a3.1,3.1,0,0,0,2,1s1,2,1,0h1s1,6,1,0h1s1,12,1,0C54.61,429.5,58.61,426.5,55.61,427.5Z"/><path class="cls-12" d="M49.56,506.73s-9,0-4.48,4,0,4,0,4,0,4,4.48,0,4.48,0,4.48,0,4.48,0,0-4C54,510.71,54,498.78,49.56,506.73Z"/><rect class="cls-1" x="1.11" y="400" width="100" height="200"/><polygon class="cls-10" points="131.61 433.5 145.27 447.21 141.61 455.5 127.61 451.5 131.61 433.5"/><polygon class="cls-7" points="162.61 423.5 164.61 455.5 143.61 446.5 162.61 423.5"/><path class="cls-11" d="M133.11,490s-4,2-5,45l46-1s-6-35-10-44S133.11,490,133.11,490Z"/><path class="cls-3" d="M137.61,532.5s4,9,2,16,5,33,5,33,5,6,5-2,2-33,2-33l-3-15Z"/><path class="cls-3" d="M158.61,533.5s-2,3,2,9,5,18,5,34-5,0-5,0l-11.84-36.71-1.21-1.91,1.05-6.38Z"/><path class="cls-14" d="M148.11,534s-3,8,5,6"/><path class="cls-4" d="M161.11,578s3.63,3.06,4.75-.5l2.25,9.5s-4.5-5.94-9,0Z"/><path class="cls-2" d="M161.35,584.4a3.29,3.29,0,0,1,4.53,0c2.5,2.37,5.25,6.1-2.26,6.1S158.85,586.77,161.35,584.4Z"/><path class="cls-4" d="M144.11,579s3.88,3.56,5,0l2,9s-4.5-5.94-9,0Z"/><path class="cls-2" d="M144.35,585.4a3.29,3.29,0,0,1,4.53,0c2.5,2.37,5.25,6.1-2.26,6.1S141.85,587.77,144.35,585.4Z"/><path class="cls-8" d="M153.11,442s-2,10,10,8-19,11-19,11l-11-11s11,2,9-7S153.11,442,153.11,442Z"/><path class="cls-6" d="M136.11,450s12,15,21-1h8s7.25-2.72,10.54,22a41.09,41.09,0,0,0,1.35,6c.4,1.38.31,2.53-1.89,3-5,1,2,1-22-5l1-5,14,4s-3-2-6-14c0,0-5,23,2,28s-29,5-29,5-6,0-2-7,0-23,0-23l-1,11,14,11-2,4s-17-8-20-13c0,0-3,0-2-5s2-16,2-16S124.11,448,136.11,450Z"/><path class="cls-3" d="M156.11,471l-8-5s-2-1-1,1a3.55,3.55,0,0,0,3,2l-7-2s-2,0-1,1l1,1s-4-1-1,1c0,0-2,1,0,2l3,1s-2,0,0,1c0,0,3,1,5,0s3,0,3,0l1,1Z"/><path class="cls-3" d="M145.11,484l8.48,3s2.05.85-.11,1.4a3.52,3.52,0,0,1-3.46-1l6.05,4s1.3,1.5-.11,1.4l-1.41-.1s3.35,2.35-.11,1.4c0,0,.54,2.16-1.51,1.31l-2.7-1.6s1.3,1.5-.76.65c0,0-2.7-1.6-3.24-3.76s-1.95-2.25-1.95-2.25l-1.17-.5Z"/><path class="cls-3" d="M131.11,425s-3,13,12,20a7.39,7.39,0,0,0,10-1l6-6s2-3,1-9c0,0,3,0,4-6,0,0-1-4-4-1l-15-13-12,9Z"/><path class="cls-7" d="M146.61,413.5s-22-2-12,58c0,0,2,8-5,12,0,0-5,9-4-53,0,0-2-20,17-23s20,13,20,13v2S149.61,423.5,146.61,413.5Z"/><path class="cls-6" d="M155.61,427.5a13.06,13.06,0,0,1-8,0s-1,0,0,1a3.1,3.1,0,0,0,2,1s1.5,6.5,1,0h1s1.5,11.5,1,0h1s1.5,17.5,1,0C154.61,429.5,158.61,426.5,155.61,427.5Z"/><path class="cls-12" d="M149.56,506.73s-9,0-4.48,4,0,4,0,4,0,4,4.48,0,4.48,0,4.48,0,4.48,0,0-4C154,510.71,154,498.78,149.56,506.73Z"/><rect class="cls-1" x="101.11" y="400" width="100" height="200"/><use width="100" height="200" transform="matrix(1, 0, 0, -1, 1.11, 800)" xlink:href="#_1_2"/><use width="100" height="200" transform="matrix(1, 0, 0, -1, 101.11, 800)" xlink:href="#_2_2"/><use width="100" height="200" transform="matrix(1, 0, 0, -1, 201.11, 800)" xlink:href="#_3_2"/><use width="100" height="200" transform="matrix(1, 0, 0, -1, 301.11, 800)" xlink:href="#_4_2"/><use width="100" height="200" transform="matrix(1, 0, 0, -1, 401.11, 800)" xlink:href="#_5_2"/><rect class="cls-1" x="1.95" width="100" height="200"/><path class="cls-8" d="M65.95,47l-6-13s-3,1-3,0l.5,7.5s-1.5,4.5-4.5,5.5Z"/><path class="cls-3" d="M30.45,13.5v16l3,5v3S32.26,41,34.95,41c0,0,1,0,0,1s.5,2.5,2.5,2.5c0,0-2,1,0,2h17s3.19-.7,3.09-6.35l.31-5.67a1.76,1.76,0,0,0,2.6-1c1-2,1.18-2.89,2.59-4.44s-1.59-5.54-3.59-1.54c0,0-19.33-5.66-20.5-7.5S30.45,13.5,30.45,13.5Z"/><path class="cls-2" d="M58.37,187.74s-5.19-12.11.23-11.43S58.37,187.74,58.37,187.74Z"/><path class="cls-2" d="M45.37,187.74s-5.19-12.11.23-11.43S45.37,187.74,45.37,187.74Z"/><path class="cls-3" d="M42.95,134s2,7,0,11c0,0-2.9,5.79,1.74,23.06a7.69,7.69,0,0,1,.27,1.87A57.76,57.76,0,0,0,46,181c1,4,6,3,5,0s0-16,0-16,2.3-14.55,1.53-18.85a23.24,23.24,0,0,1-.42-5.2,31.8,31.8,0,0,1,.88-6.95C53.95,131,42.95,134,42.95,134Z"/><path class="cls-4" d="M47.27,182.69c.42.53,1.39,1,3.58-.24a.32.32,0,0,1,.44.12h0c.66,1.29,3,6.43-1.34,6.43-5.76,0-5,.26-3.22-6.17a.32.32,0,0,1,.54-.14Z"/><path class="cls-3" d="M67.06,134s-2,7,0,11c0,0,2.85,5.71-1.65,22.7a10.86,10.86,0,0,0-.37,2.57A59.51,59.51,0,0,1,64,181c-1,4-6,3-5,0s0-16,0-16-2.46-15.58-1.44-19.27a9.93,9.93,0,0,0,.4-2.93c-.07-2.59-.3-6.8-1-8.8C56.08,131,67.06,134,67.06,134Z"/><path class="cls-4" d="M60.57,183a7,7,0,0,0,3.38-1c.66,1.28,3.38,7-1,7-5.62,0-5.68-.06-4-6C59.07,182.57,59.95,183,60.57,183Z"/><path class="cls-5" d="M38.95,94s-5-2-6,41h45s-3-30-10-41Z"/><path class="cls-7" d="M30.45,13.5s4-10,20-9,17,21,17,21,1,10-5,14L59.95,34s.58-3,2-4a2.49,2.49,0,0,0,1.17-2.58c-.43-1.24-1.41-2.19-3.67.08,0,0-17-2.43-20.41-5.1a13.24,13.24,0,0,0-2.17-1.5A14.25,14.25,0,0,1,30.45,13.5Z"/><path class="cls-10" d="M37.45,46.5s-4,1-3.5,12.5c0,1.08.37,2,0,3l-7,18-1.5-53.5s0-10,5-13v16l3,5v3s-1,3,1,3,1,1,1,1-1,3,2,3C37.45,44.5,35.45,45.5,37.45,46.5Z"/><path class="cls-6" d="M75.95,53c-.6-2.57-2.46-7.69-8-7h-29s-5.17-1-5.58,9.5c0,0,.58,6.34-1.92,10.92S26.95,79,26.95,79s-2,4-1,7a15.77,15.77,0,0,1,1,4s1,2,4,0,6-3,6-8c0,0,0-2,2-6,0,0,2,13-1,17s3,2,3,2,23,1,24-1c0,0,6,2,3-3s-3-7-3-7S76.18,54,75.95,53Z"/><path class="cls-2" d="M75.95,53c-1,9,1.5,25.5,1.5,25.5s1,3-1,3c0,0-2,5-8,10,0,0-3-4-3-7l5-7-2-4s2.5-8.5,2.5-14.5Z"/></svg>
