<svg id="Layer_1" data-name="Layer 1" xmlns="http://www.w3.org/2000/svg" viewBox="0 0 100 200"><defs><style>.cls-1{fill:none;}.cls-2{fill:#c4628a;}.cls-3{fill:#ef8ee6;}.cls-4{fill:#0c508f;}.cls-5{fill:#3785bf;}.cls-6{fill:#fafcfc;}.cls-7{fill:#f3912e;}.cls-8{fill:#db761b;}.cls-9{fill:#89cde5;}</style></defs><title>offer</title><rect class="cls-1" width="100" height="200"/><path class="cls-2" d="M64,47,58,34s-3,1-3,0l.5,7.5S54,46,51,47Z"/><path class="cls-3" d="M28.5,13.5v16l3,5v3S30.31,41,33,41c0,0,1,0,0,1s.5,2.5,2.5,2.5c0,0-2,1,0,2h17s3.19-.7,3.09-6.35l.31-5.67a1.76,1.76,0,0,0,2.6-1c1-2,1.18-2.89,2.59-4.44S59.5,23.5,57.5,27.5c0,0-19.33-5.66-20.5-7.5S28.5,13.5,28.5,13.5Z"/><path class="cls-4" d="M56.42,187.74s-5.19-12.11.23-11.43S56.42,187.74,56.42,187.74Z"/><path class="cls-4" d="M43.42,187.74s-5.19-12.11.23-11.43S43.42,187.74,43.42,187.74Z"/><path class="cls-3" d="M41,134s2,7,0,11c0,0-2.9,5.79,1.74,23.06a7.69,7.69,0,0,1,.27,1.87c0,2.22.2,7.9,1,11.07,1,4,6,3,5,0s0-16,0-16,2.3-14.55,1.53-18.85a23.24,23.24,0,0,1-.42-5.2A31.8,31.8,0,0,1,51,134C52,131,41,134,41,134Z"/><path class="cls-5" d="M45.32,182.69c.42.53,1.39,1,3.58-.24a.32.32,0,0,1,.44.12c.66,1.29,3,6.43-1.34,6.43-5.76,0-5,.26-3.22-6.17A.32.32,0,0,1,45.32,182.69Z"/><path class="cls-3" d="M65.11,134s-2,7,0,11c0,0,2.85,5.71-1.65,22.7a10.86,10.86,0,0,0-.37,2.57,59.51,59.51,0,0,1-1,10.72c-1,4-6,3-5,0s0-16,0-16-2.46-15.58-1.44-19.27a9.93,9.93,0,0,0,.4-2.93c-.07-2.59-.3-6.8-1-8.8C54.13,131,65.11,134,65.11,134Z"/><path class="cls-5" d="M58.62,183A7,7,0,0,0,62,182c.66,1.28,3.38,7-1,7-5.62,0-5.68-.06-4-6C57.12,182.57,58,183,58.62,183Z"/><path class="cls-6" d="M37,94s-5-2-6,41H76s-3-30-10-41Z"/><path class="cls-7" d="M28.5,13.5s4-10,20-9,17,21,17,21,1,10-5,14L58,34s.58-3,2-4a2.49,2.49,0,0,0,1.17-2.58c-.43-1.24-1.41-2.19-3.67.08,0,0-17-2.43-20.41-5.1a13.24,13.24,0,0,0-2.17-1.5C33.19,20,30.43,18,28.5,13.5Z"/><path class="cls-8" d="M35.5,46.5s-4,1-3.5,12.5c0,1.08.37,2,0,3L25,80,23.5,26.5s0-10,5-13v16l3,5v3s-1,3,1,3,1,1,1,1-1,3,2,3C35.5,44.5,33.5,45.5,35.5,46.5Z"/><path class="cls-9" d="M74,53c-.6-2.57-2.46-7.69-8-7H37s-5.17-1-5.58,9.5c0,0,.58,6.34-1.92,10.92S25,79,25,79s-2,4-1,7a15.77,15.77,0,0,1,1,4s1,2,4,0,6-3,6-8c0,0,0-2,2-6,0,0,2,13-1,17s3,2,3,2,23,1,24-1c0,0,6,2,3-3s-3-7-3-7S74.23,54,74,53Z"/><path class="cls-4" d="M74,53c-1,9,1.5,25.5,1.5,25.5s1,3-1,3c0,0-2,5-8,10,0,0-3-4-3-7l5-7-2-4S69,65,69,59Z"/></svg>
