<svg id="offer9" xmlns="http://www.w3.org/2000/svg" xmlns:xlink="http://www.w3.org/1999/xlink" viewBox="0 0 900 600"><defs><style>.cls-1,.cls-14,.cls-9{fill:none;}.cls-2{fill:#0c508f;}.cls-3{fill:#ef8ee6;}.cls-4{fill:#3785bf;}.cls-5{fill:#fafcfc;}.cls-6{fill:#89cde5;}.cls-7{fill:#f3912e;}.cls-8{fill:#b83917;}.cls-9{stroke:#000;stroke-width:0.5px;}.cls-14,.cls-9{stroke-miterlimit:10;}.cls-10{fill:#c4628a;}.cls-11{fill:#d27c9d;}.cls-12{fill:#db761b;}.cls-13{fill:#fcfafc;}.cls-14{stroke:#c4628a;}</style><symbol id="_1" data-name="1" viewBox="0 0 100 200"><g id="baggrund"><rect class="cls-1" width="100" height="200"/></g><g id="ben"><path class="cls-2" d="M56.42,187.74s-5.19-12.11.23-11.43S56.42,187.74,56.42,187.74Z"/><path class="cls-2" d="M43.42,187.74s-5.19-12.11.23-11.43S43.42,187.74,43.42,187.74Z"/><path class="cls-3" d="M41,134s2,7,0,11c0,0-2.9,5.79,1.74,23.06a7.69,7.69,0,0,1,.27,1.87c0,2.22.2,7.9,1,11.07,1,4,6,3,5,0s0-16,0-16,2.3-14.55,1.53-18.85a23.24,23.24,0,0,1-.42-5.2A31.8,31.8,0,0,1,51,134C52,131,41,134,41,134Z"/><path class="cls-4" d="M45.32,182.69c.42.53,1.39,1,3.58-.24a.32.32,0,0,1,.44.12c.66,1.29,3,6.43-1.34,6.43-5.76,0-5,.26-3.22-6.17A.32.32,0,0,1,45.32,182.69Z"/><path class="cls-3" d="M65.11,134s-2,7,0,11c0,0,2.85,5.71-1.65,22.7a10.86,10.86,0,0,0-.37,2.57,59.51,59.51,0,0,1-1,10.72c-1,4-6,3-5,0s0-16,0-16-2.46-15.58-1.44-19.27a9.93,9.93,0,0,0,.4-2.93c-.07-2.59-.3-6.8-1-8.8C54.13,131,65.11,134,65.11,134Z"/><path class="cls-4" d="M58.62,183A7,7,0,0,0,62,182c.66,1.28,3.38,7-1,7-5.62,0-5.68-.06-4-6C57.12,182.57,58,183,58.62,183Z"/><path class="cls-5" d="M37,94s-5-2-6,41H76s-3-30-10-41Z"/></g><g id="trøje"><path class="cls-6" d="M74,53c-.6-2.57-2.46-7.69-8-7H37s-5.17-1-5.58,9.5c0,0,.58,6.34-1.92,10.92S25,79,25,79s-2,4-1,7a15.77,15.77,0,0,1,1,4s1,2,4,0,6-3,6-8c0,0,0-2,2-6,0,0,2,13-1,17s3,2,3,2,23,1,24-1c0,0,6,2,3-3s-3-7-3-7S74.23,54,74,53Z"/><path class="cls-2" d="M74,53c-1,9,1.5,25.5,1.5,25.5s1,3-1,3c0,0-2,5-8,10,0,0-3-4-3-7l5-7-2-4S69,65,69,59Z"/></g><g id="hår2"><path class="cls-7" d="M69,26.5a21.11,21.11,0,0,1-2.5,10C63.44,42.21,57.87,46,51.5,46c-6,0-10.77,2.19-13.91-3C35.7,39.89,34,30.54,34,26.5,34,15.73,41.84,7,51.5,7S69,15.73,69,26.5Z"/><path class="cls-7" d="M42,73,36,39.21,68,33,60,73S47.47,79.09,42,73Z"/></g></symbol><symbol id="_2" data-name="2" viewBox="0 0 100 200"><g id="baggrund_copy" data-name="baggrund copy"><rect class="cls-1" width="100" height="200"/></g><g id="ben_copy" data-name="ben copy"><path class="cls-2" d="M56.42,187.74s-5.19-12.11.23-11.43S56.42,187.74,56.42,187.74Z"/><path class="cls-2" d="M43.42,187.74s-5.19-12.11.23-11.43S43.42,187.74,43.42,187.74Z"/><path class="cls-3" d="M41,134s2,7,0,11c0,0-2.9,5.79,1.74,23.06a7.69,7.69,0,0,1,.27,1.87c0,2.22.2,7.9,1,11.07,1,4,6,3,5,0s0-16,0-16,2.3-14.55,1.53-18.85a23.24,23.24,0,0,1-.42-5.2A31.8,31.8,0,0,1,51,134C52,131,41,134,41,134Z"/><path class="cls-4" d="M45.32,182.69c.42.53,1.39,1,3.58-.24a.32.32,0,0,1,.44.12c.66,1.29,3,6.43-1.34,6.43-5.76,0-5,.26-3.22-6.17A.32.32,0,0,1,45.32,182.69Z"/><path class="cls-3" d="M65.11,134s-2,7,0,11c0,0,2.85,5.71-1.65,22.7a10.86,10.86,0,0,0-.37,2.57,59.51,59.51,0,0,1-1,10.72c-1,4-6,3-5,0s0-16,0-16-2.46-15.58-1.44-19.27a9.93,9.93,0,0,0,.4-2.93c-.07-2.59-.3-6.8-1-8.8C54.13,131,65.11,134,65.11,134Z"/><path class="cls-4" d="M58.62,183A7,7,0,0,0,62,182c.66,1.28,3.38,7-1,7-5.62,0-5.68-.06-4-6C57.12,182.57,58,183,58.62,183Z"/><path class="cls-5" d="M37,94s-5-2-6,41H76s-3-30-10-41Z"/></g><g id="trøje_copy" data-name="trøje copy"><path class="cls-6" d="M74,53c-.6-2.57-2.46-7.69-8-7H37s-5.17-1-5.58,9.5c0,0,.58,6.34-1.92,10.92S25,79,25,79s-2,4-1,7a15.77,15.77,0,0,1,1,4s1,2,4,0,6-3,6-8c0,0,0-2,2-6,0,0,2,13-1,17s3,2,3,2,23,1,24-1c0,0,6,2,3-3s-3-7-3-7S74.23,54,74,53Z"/><path class="cls-2" d="M74,53c-1,9,1.5,25.5,1.5,25.5s1,3-1,3c0,0-2,5-8,10,0,0-3-4-3-7l5-7-2-4S69,65,69,59Z"/></g><g id="blod"><path class="cls-8" d="M52,114s-2,0-1,1,0,1,0,1,0,1,1,0,1,0,1,0,1,0,0-1C53,115,53,112,52,114Z"/><g id="hår2_copy" data-name="hår2 copy"><path class="cls-7" d="M69,26.5a21.11,21.11,0,0,1-2.5,10C63.44,42.21,57.87,46,51.5,46c-6,0-10.77,2.19-13.91-3C35.7,39.89,34,30.54,34,26.5,34,15.73,41.84,7,51.5,7S69,15.73,69,26.5Z"/><path class="cls-7" d="M42,73,36,39.21,68,33,60,73S47.47,79.09,42,73Z"/></g></g></symbol><symbol id="_3" data-name="3" viewBox="0 0 100 200"><g id="baggrund_copy_2" data-name="baggrund copy 2"><rect class="cls-1" width="100" height="200"/></g><g id="ansigt_copy_2" data-name="ansigt copy 2"><path class="cls-9" d="M25.5,6.5"/><path class="cls-10" d="M64,47,58,34s-3,1-3,0l.5,7.5S54,46,51,47Z"/><path class="cls-3" d="M28.5,13.5v16l3,5v3S30.31,41,33,41c0,0,1,0,0,1s.5,2.5,2.5,2.5c0,0-2,1,0,2h17s3.19-.7,3.09-6.35l.31-5.67a1.76,1.76,0,0,0,2.6-1c1-2,1.18-2.89,2.59-4.44S59.5,23.5,57.5,27.5c0,0-19.33-5.66-20.5-7.5S28.5,13.5,28.5,13.5Z"/><path class="cls-11" d="M13,35"/></g><g id="ben_copy_2" data-name="ben copy 2"><path class="cls-2" d="M56.42,187.74s-5.19-12.11.23-11.43S56.42,187.74,56.42,187.74Z"/><path class="cls-2" d="M43.42,187.74s-5.19-12.11.23-11.43S43.42,187.74,43.42,187.74Z"/><path class="cls-3" d="M41,134s2,7,0,11c0,0-2.9,5.79,1.74,23.06a7.69,7.69,0,0,1,.27,1.87c0,2.22.2,7.9,1,11.07,1,4,6,3,5,0s0-16,0-16,2.3-14.55,1.53-18.85a23.24,23.24,0,0,1-.42-5.2A31.8,31.8,0,0,1,51,134C52,131,41,134,41,134Z"/><path class="cls-4" d="M45.32,182.69c.42.53,1.39,1,3.58-.24a.32.32,0,0,1,.44.12c.66,1.29,3,6.43-1.34,6.43-5.76,0-5,.26-3.22-6.17A.32.32,0,0,1,45.32,182.69Z"/><path class="cls-3" d="M65.11,134s-2,7,0,11c0,0,2.85,5.71-1.65,22.7a10.86,10.86,0,0,0-.37,2.57,59.51,59.51,0,0,1-1,10.72c-1,4-6,3-5,0s0-16,0-16-2.46-15.58-1.44-19.27a9.93,9.93,0,0,0,.4-2.93c-.07-2.59-.3-6.8-1-8.8C54.13,131,65.11,134,65.11,134Z"/><path class="cls-4" d="M58.62,183A7,7,0,0,0,62,182c.66,1.28,3.38,7-1,7-5.62,0-5.68-.06-4-6C57.12,182.57,58,183,58.62,183Z"/><path class="cls-5" d="M37,94s-5-2-6,41H76s-3-30-10-41Z"/></g><g id="hår_copy_2" data-name="hår copy 2"><path class="cls-7" d="M28.5,13.5s4-10,20-9,17,21,17,21,1,10-5,14L58,34s.58-3,2-4a2.49,2.49,0,0,0,1.17-2.58c-.43-1.24-1.41-2.19-3.67.08,0,0-17-2.43-20.41-5.1a13.24,13.24,0,0,0-2.17-1.5C33.19,20,30.43,18,28.5,13.5Z"/><path class="cls-12" d="M35.5,46.5s-4,1-3.5,12.5c0,1.08.37,2,0,3L25,80,23.5,26.5s0-10,5-13v16l3,5v3s-1,3,1,3,1,1,1,1-1,3,2,3C35.5,44.5,33.5,45.5,35.5,46.5Z"/></g><g id="trøje_copy_2" data-name="trøje copy 2"><path class="cls-6" d="M74,53c-.6-2.57-2.46-7.69-8-7H37s-5.17-1-5.58,9.5c0,0,.58,6.34-1.92,10.92S25,79,25,79s-2,4-1,7a15.77,15.77,0,0,1,1,4s1,2,4,0,6-3,6-8c0,0,0-2,2-6,0,0,2,13-1,17s3,2,3,2,23,1,24-1c0,0,6,2,3-3s-3-7-3-7S74.23,54,74,53Z"/><path class="cls-2" d="M74,53c-1,9,1.5,25.5,1.5,25.5s1,3-1,3c0,0-2,5-8,10,0,0-3-4-3-7l5-7-2-4S69,65,69,59Z"/></g><g id="blod_copy" data-name="blod copy"><path class="cls-8" d="M51.73,114s-3.14,0-1.57,1.42,0,1.42,0,1.42,0,1.42,1.57,0,1.57,0,1.57,0,1.57,0,0-1.42C53.3,115.39,53.3,111.14,51.73,114Z"/></g></symbol><symbol id="_4" data-name="4" viewBox="0 0 100 200"><g id="baggrund_copy_3" data-name="baggrund copy 3"><rect class="cls-1" width="100" height="200"/></g><g id="ansigt_copy_3" data-name="ansigt copy 3"><path class="cls-9" d="M25.5,6.5"/><path class="cls-10" d="M64,47,58,34s-3,1-3,0l.5,7.5S54,46,51,47Z"/><path class="cls-3" d="M28.5,13.5v16l3,5v3S30.31,41,33,41c0,0,1,0,0,1s.5,2.5,2.5,2.5c0,0-2,1,0,2h17s3.19-.7,3.09-6.35l.31-5.67a1.76,1.76,0,0,0,2.6-1c1-2,1.18-2.89,2.59-4.44S59.5,23.5,57.5,27.5c0,0-19.33-5.66-20.5-7.5S28.5,13.5,28.5,13.5Z"/><path class="cls-11" d="M13,35"/></g><g id="ben_copy_3" data-name="ben copy 3"><path class="cls-2" d="M56.42,187.74s-5.19-12.11.23-11.43S56.42,187.74,56.42,187.74Z"/><path class="cls-2" d="M43.42,187.74s-5.19-12.11.23-11.43S43.42,187.74,43.42,187.74Z"/><path class="cls-3" d="M41,134s2,7,0,11c0,0-2.9,5.79,1.74,23.06a7.69,7.69,0,0,1,.27,1.87c0,2.22.2,7.9,1,11.07,1,4,6,3,5,0s0-16,0-16,2.3-14.55,1.53-18.85a23.24,23.24,0,0,1-.42-5.2A31.8,31.8,0,0,1,51,134C52,131,41,134,41,134Z"/><path class="cls-4" d="M45.32,182.69c.42.53,1.39,1,3.58-.24a.32.32,0,0,1,.44.12c.66,1.29,3,6.43-1.34,6.43-5.76,0-5,.26-3.22-6.17A.32.32,0,0,1,45.32,182.69Z"/><path class="cls-3" d="M65.11,134s-2,7,0,11c0,0,2.85,5.71-1.65,22.7a10.86,10.86,0,0,0-.37,2.57,59.51,59.51,0,0,1-1,10.72c-1,4-6,3-5,0s0-16,0-16-2.46-15.58-1.44-19.27a9.93,9.93,0,0,0,.4-2.93c-.07-2.59-.3-6.8-1-8.8C54.13,131,65.11,134,65.11,134Z"/><path class="cls-4" d="M58.62,183A7,7,0,0,0,62,182c.66,1.28,3.38,7-1,7-5.62,0-5.68-.06-4-6C57.12,182.57,58,183,58.62,183Z"/><path class="cls-5" d="M37,94s-5-2-6,41H76s-3-30-10-41Z"/></g><g id="hår_copy_3" data-name="hår copy 3"><path class="cls-7" d="M28.5,13.5s4-10,20-9,17,21,17,21,1,10-5,14L58,34s.58-3,2-4a2.49,2.49,0,0,0,1.17-2.58c-.43-1.24-1.41-2.19-3.67.08,0,0-17-2.43-20.41-5.1a13.24,13.24,0,0,0-2.17-1.5C33.19,20,30.43,18,28.5,13.5Z"/><path class="cls-12" d="M35.5,46.5s-4,1-3.5,12.5c0,1.08.37,2,0,3L25,80,23.5,26.5s0-10,5-13v16l3,5v3s-1,3,1,3,1,1,1,1-1,3,2,3C35.5,44.5,33.5,45.5,35.5,46.5Z"/></g><g id="trøje_copy_3" data-name="trøje copy 3"><path class="cls-6" d="M74,53c-.6-2.57-2.46-7.69-8-7H37s-5.17-1-5.58,9.5c0,0,.58,6.34-1.92,10.92S25,79,25,79s-2,4-1,7a15.77,15.77,0,0,1,1,4s1,2,4,0,6-3,6-8c0,0,0-2,2-6,0,0,2,13-1,17s3,2,3,2,23,1,24-1c0,0,6,2,3-3s-3-7-3-7S74.23,54,74,53Z"/><path class="cls-2" d="M74,53c-1,9,1.5,25.5,1.5,25.5s1,3-1,3c0,0-2,5-8,10,0,0-3-4-3-7l5-7-2-4S69,65,69,59Z"/></g><g id="blod_copy_2" data-name="blod copy 2"><path class="cls-8" d="M52.18,113.2s-3.85,0-1.92,1.74,0,1.74,0,1.74,0,1.74,1.92,0,1.92,0,1.92,0,1.92,0,0-1.74C54.11,114.93,54.11,109.72,52.18,113.2Z"/></g></symbol><symbol id="_5" data-name="5" viewBox="0 0 100 200"><g id="baggrund_copy_4" data-name="baggrund copy 4"><rect class="cls-1" width="100" height="200"/></g><g id="ansigt_copy_4" data-name="ansigt copy 4"><path class="cls-9" d="M25.5,6.5"/><path class="cls-10" d="M64,47,58,34s-3,1-3,0l.5,7.5S54,46,51,47Z"/><path class="cls-3" d="M28.5,13.5v16l3,5v3S30.31,41,33,41c0,0,1,0,0,1s.5,2.5,2.5,2.5c0,0-2,1,0,2h17s3.19-.7,3.09-6.35l.31-5.67a1.76,1.76,0,0,0,2.6-1c1-2,1.18-2.89,2.59-4.44S59.5,23.5,57.5,27.5c0,0-19.33-5.66-20.5-7.5S28.5,13.5,28.5,13.5Z"/><path class="cls-11" d="M13,35"/></g><g id="ben_copy_4" data-name="ben copy 4"><path class="cls-2" d="M56.42,187.74s-5.19-12.11.23-11.43S56.42,187.74,56.42,187.74Z"/><path class="cls-2" d="M43.42,187.74s-5.19-12.11.23-11.43S43.42,187.74,43.42,187.74Z"/><path class="cls-3" d="M41,134s2,7,0,11c0,0-2.9,5.79,1.74,23.06a7.69,7.69,0,0,1,.27,1.87c0,2.22.2,7.9,1,11.07,1,4,6,3,5,0s0-16,0-16,2.3-14.55,1.53-18.85a23.24,23.24,0,0,1-.42-5.2A31.8,31.8,0,0,1,51,134C52,131,41,134,41,134Z"/><path class="cls-4" d="M45.32,182.69c.42.53,1.39,1,3.58-.24a.32.32,0,0,1,.44.12c.66,1.29,3,6.43-1.34,6.43-5.76,0-5,.26-3.22-6.17A.32.32,0,0,1,45.32,182.69Z"/><path class="cls-3" d="M65.11,134s-2,7,0,11c0,0,2.85,5.71-1.65,22.7a10.86,10.86,0,0,0-.37,2.57,59.51,59.51,0,0,1-1,10.72c-1,4-6,3-5,0s0-16,0-16-2.46-15.58-1.44-19.27a9.93,9.93,0,0,0,.4-2.93c-.07-2.59-.3-6.8-1-8.8C54.13,131,65.11,134,65.11,134Z"/><path class="cls-4" d="M58.62,183A7,7,0,0,0,62,182c.66,1.28,3.38,7-1,7-5.62,0-5.68-.06-4-6C57.12,182.57,58,183,58.62,183Z"/><path class="cls-5" d="M37,94s-5-2-6,41H76s-3-30-10-41Z"/></g><g id="hår_copy_4" data-name="hår copy 4"><path class="cls-7" d="M28.5,13.5s4-10,20-9,17,21,17,21,1,10-5,14L58,34s.58-3,2-4a2.49,2.49,0,0,0,1.17-2.58c-.43-1.24-1.41-2.19-3.67.08,0,0-17-2.43-20.41-5.1a13.24,13.24,0,0,0-2.17-1.5C33.19,20,30.43,18,28.5,13.5Z"/><path class="cls-12" d="M35.5,46.5s-4,1-3.5,12.5c0,1.08.37,2,0,3L25,80,23.5,26.5s0-10,5-13v16l3,5v3s-1,3,1,3,1,1,1,1-1,3,2,3C35.5,44.5,33.5,45.5,35.5,46.5Z"/></g><g id="trøje_copy_4" data-name="trøje copy 4"><path class="cls-6" d="M74,53c-.6-2.57-2.46-7.69-8-7H37s-5.17-1-5.58,9.5c0,0,.58,6.34-1.92,10.92S25,79,25,79s-2,4-1,7a15.77,15.77,0,0,1,1,4s1,2,4,0,6-3,6-8c0,0,0-2,2-6,0,0,2,13-1,17s3,2,3,2,23,1,24-1c0,0,6,2,3-3s-3-7-3-7S74.23,54,74,53Z"/><path class="cls-2" d="M74,53c-1,9,1.5,25.5,1.5,25.5s1,3-1,3c0,0-2,5-8,10,0,0-3-4-3-7l5-7-2-4S69,65,69,59Z"/></g><g id="blod_copy_3" data-name="blod copy 3"><path class="cls-8" d="M51.64,112.41s-4.56,0-2.28,2.06,0,2.06,0,2.06,0,2.06,2.28,0,2.28,0,2.28,0,2.28,0,0-2.06C53.91,114.47,53.91,108.3,51.64,112.41Z"/></g></symbol><symbol id="_6" data-name="6" viewBox="0 0 100 200"><g id="baggrund_copy_5" data-name="baggrund copy 5"><rect class="cls-1" width="100" height="200"/></g><g id="ansigt_copy_5" data-name="ansigt copy 5"><path class="cls-9" d="M25.5,6.5"/><path class="cls-10" d="M64,47,58,34s-3,1-3,0l.5,7.5S54,46,51,47Z"/><path class="cls-3" d="M28.5,13.5v16l3,5v3S30.31,41,33,41c0,0,1,0,0,1s.5,2.5,2.5,2.5c0,0-2,1,0,2h17s3.19-.7,3.09-6.35l.31-5.67a1.76,1.76,0,0,0,2.6-1c1-2,1.18-2.89,2.59-4.44S59.5,23.5,57.5,27.5c0,0-19.33-5.66-20.5-7.5S28.5,13.5,28.5,13.5Z"/><path class="cls-11" d="M13,35"/></g><g id="ben_copy_5" data-name="ben copy 5"><path class="cls-2" d="M56.42,187.74s-5.19-12.11.23-11.43S56.42,187.74,56.42,187.74Z"/><path class="cls-2" d="M43.42,187.74s-5.19-12.11.23-11.43S43.42,187.74,43.42,187.74Z"/><path class="cls-3" d="M41,134s2,7,0,11c0,0-2.9,5.79,1.74,23.06a7.69,7.69,0,0,1,.27,1.87c0,2.22.2,7.9,1,11.07,1,4,6,3,5,0s0-16,0-16,2.3-14.55,1.53-18.85a23.24,23.24,0,0,1-.42-5.2A31.8,31.8,0,0,1,51,134C52,131,41,134,41,134Z"/><path class="cls-4" d="M45.32,182.69c.42.53,1.39,1,3.58-.24a.32.32,0,0,1,.44.12c.66,1.29,3,6.43-1.34,6.43-5.76,0-5,.26-3.22-6.17A.32.32,0,0,1,45.32,182.69Z"/><path class="cls-3" d="M65.11,134s-2,7,0,11c0,0,2.85,5.71-1.65,22.7a10.86,10.86,0,0,0-.37,2.57,59.51,59.51,0,0,1-1,10.72c-1,4-6,3-5,0s0-16,0-16-2.46-15.58-1.44-19.27a9.93,9.93,0,0,0,.4-2.93c-.07-2.59-.3-6.8-1-8.8C54.13,131,65.11,134,65.11,134Z"/><path class="cls-4" d="M58.62,183A7,7,0,0,0,62,182c.66,1.28,3.38,7-1,7-5.62,0-5.68-.06-4-6C57.12,182.57,58,183,58.62,183Z"/><path class="cls-5" d="M37,94s-5-2-6,41H76s-3-30-10-41Z"/></g><g id="hår_copy_5" data-name="hår copy 5"><path class="cls-7" d="M28.5,13.5s4-10,20-9,17,21,17,21,1,10-5,14L58,34s.58-3,2-4a2.49,2.49,0,0,0,1.17-2.58c-.43-1.24-1.41-2.19-3.67.08,0,0-17-2.43-20.41-5.1a13.24,13.24,0,0,0-2.17-1.5C33.19,20,30.43,18,28.5,13.5Z"/><path class="cls-12" d="M35.5,46.5s-4,1-3.5,12.5c0,1.08.37,2,0,3L25,80,23.5,26.5s0-10,5-13v16l3,5v3s-1,3,1,3,1,1,1,1-1,3,2,3C35.5,44.5,33.5,45.5,35.5,46.5Z"/></g><g id="trøje_copy_5" data-name="trøje copy 5"><path class="cls-6" d="M74,53c-.6-2.57-2.46-7.69-8-7H37s-5.17-1-5.58,9.5c0,0,.58,6.34-1.92,10.92S25,79,25,79s-2,4-1,7a15.77,15.77,0,0,1,1,4s1,2,4,0,6-3,6-8c0,0,0-2,2-6,0,0,2,13-1,17s3,2,3,2,23,1,24-1c0,0,6,2,3-3s-3-7-3-7S74.23,54,74,53Z"/><path class="cls-2" d="M74,53c-1,9,1.5,25.5,1.5,25.5s1,3-1,3c0,0-2,5-8,10,0,0-3-4-3-7l5-7-2-4S69,65,69,59Z"/></g><g id="blod_copy_4" data-name="blod copy 4"><path class="cls-8" d="M51.09,111.63s-5.26,0-2.63,2.38,0,2.38,0,2.38,0,2.38,2.63,0,2.63,0,2.63,0,2.63,0,0-2.38C53.72,114,53.72,106.88,51.09,111.63Z"/></g></symbol><symbol id="_7" data-name="7" viewBox="0 0 100 200"><g id="baggrund_copy_6" data-name="baggrund copy 6"><rect class="cls-1" width="100" height="200"/></g><g id="ansigt_copy_6" data-name="ansigt copy 6"><path class="cls-9" d="M25.5,6.5"/><path class="cls-10" d="M64,47,58,34s-3,1-3,0l.5,7.5S54,46,51,47Z"/><path class="cls-3" d="M28.5,13.5v16l3,5v3S30.31,41,33,41c0,0,1,0,0,1s.5,2.5,2.5,2.5c0,0-2,1,0,2h17s3.19-.7,3.09-6.35l.31-5.67a1.76,1.76,0,0,0,2.6-1c1-2,1.18-2.89,2.59-4.44S59.5,23.5,57.5,27.5c0,0-19.33-5.66-20.5-7.5S28.5,13.5,28.5,13.5Z"/><path class="cls-11" d="M13,35"/></g><g id="ben_copy_6" data-name="ben copy 6"><path class="cls-2" d="M56.42,187.74s-5.19-12.11.23-11.43S56.42,187.74,56.42,187.74Z"/><path class="cls-2" d="M43.42,187.74s-5.19-12.11.23-11.43S43.42,187.74,43.42,187.74Z"/><path class="cls-3" d="M41,134s2,7,0,11c0,0-2.9,5.79,1.74,23.06a7.69,7.69,0,0,1,.27,1.87c0,2.22.2,7.9,1,11.07,1,4,6,3,5,0s0-16,0-16,2.3-14.55,1.53-18.85a23.24,23.24,0,0,1-.42-5.2A31.8,31.8,0,0,1,51,134C52,131,41,134,41,134Z"/><path class="cls-4" d="M45.32,182.69c.42.53,1.39,1,3.58-.24a.32.32,0,0,1,.44.12c.66,1.29,3,6.43-1.34,6.43-5.76,0-5,.26-3.22-6.17A.32.32,0,0,1,45.32,182.69Z"/><path class="cls-3" d="M65.11,134s-2,7,0,11c0,0,2.85,5.71-1.65,22.7a10.86,10.86,0,0,0-.37,2.57,59.51,59.51,0,0,1-1,10.72c-1,4-6,3-5,0s0-16,0-16-2.46-15.58-1.44-19.27a9.93,9.93,0,0,0,.4-2.93c-.07-2.59-.3-6.8-1-8.8C54.13,131,65.11,134,65.11,134Z"/><path class="cls-4" d="M58.62,183A7,7,0,0,0,62,182c.66,1.28,3.38,7-1,7-5.62,0-5.68-.06-4-6C57.12,182.57,58,183,58.62,183Z"/><path class="cls-5" d="M37,94s-5-2-6,41H76s-3-30-10-41Z"/></g><g id="hår_copy_6" data-name="hår copy 6"><path class="cls-7" d="M28.5,13.5s4-10,20-9,17,21,17,21,1,10-5,14L58,34s.58-3,2-4a2.49,2.49,0,0,0,1.17-2.58c-.43-1.24-1.41-2.19-3.67.08,0,0-17-2.43-20.41-5.1a13.24,13.24,0,0,0-2.17-1.5C33.19,20,30.43,18,28.5,13.5Z"/><path class="cls-12" d="M35.5,46.5s-4,1-3.5,12.5c0,1.08.37,2,0,3L25,80,23.5,26.5s0-10,5-13v16l3,5v3s-1,3,1,3,1,1,1,1-1,3,2,3C35.5,44.5,33.5,45.5,35.5,46.5Z"/></g><g id="trøje_copy_6" data-name="trøje copy 6"><path class="cls-6" d="M74,53c-.6-2.57-2.46-7.69-8-7H37s-5.17-1-5.58,9.5c0,0,.58,6.34-1.92,10.92S25,79,25,79s-2,4-1,7a15.77,15.77,0,0,1,1,4s1,2,4,0,6-3,6-8c0,0,0-2,2-6,0,0,2,13-1,17s3,2,3,2,23,1,24-1c0,0,6,2,3-3s-3-7-3-7S74.23,54,74,53Z"/><path class="cls-2" d="M74,53c-1,9,1.5,25.5,1.5,25.5s1,3-1,3c0,0-2,5-8,10,0,0-3-4-3-7l5-7-2-4S69,65,69,59Z"/></g><g id="blod_copy_5" data-name="blod copy 5"><path class="cls-8" d="M50.61,110.85s-6.08,0-3,2.7,0,2.7,0,2.7,0,2.7,3,0,3,0,3,0,3,0,0-2.7C53.65,113.55,53.65,105.46,50.61,110.85Z"/></g></symbol><symbol id="_8" data-name="8" viewBox="0 0 100 200"><g id="baggrund_copy_7" data-name="baggrund copy 7"><rect class="cls-1" width="100" height="200"/></g><g id="ansigt_copy_7" data-name="ansigt copy 7"><path class="cls-9" d="M25.5,6.5"/><path class="cls-10" d="M64,47,58,34s-3,1-3,0l.5,7.5S54,46,51,47Z"/><path class="cls-3" d="M28.5,13.5v16l3,5v3S30.31,41,33,41c0,0,1,0,0,1s.5,2.5,2.5,2.5c0,0-2,1,0,2h17s3.19-.7,3.09-6.35l.31-5.67a1.76,1.76,0,0,0,2.6-1c1-2,1.18-2.89,2.59-4.44S59.5,23.5,57.5,27.5c0,0-19.33-5.66-20.5-7.5S28.5,13.5,28.5,13.5Z"/><path class="cls-11" d="M13,35"/></g><g id="ben_copy_7" data-name="ben copy 7"><path class="cls-2" d="M56.42,187.74s-5.19-12.11.23-11.43S56.42,187.74,56.42,187.74Z"/><path class="cls-2" d="M43.42,187.74s-5.19-12.11.23-11.43S43.42,187.74,43.42,187.74Z"/><path class="cls-3" d="M41,134s2,7,0,11c0,0-2.9,5.79,1.74,23.06a7.69,7.69,0,0,1,.27,1.87c0,2.22.2,7.9,1,11.07,1,4,6,3,5,0s0-16,0-16,2.3-14.55,1.53-18.85a23.24,23.24,0,0,1-.42-5.2A31.8,31.8,0,0,1,51,134C52,131,41,134,41,134Z"/><path class="cls-4" d="M45.32,182.69c.42.53,1.39,1,3.58-.24a.32.32,0,0,1,.44.12c.66,1.29,3,6.43-1.34,6.43-5.76,0-5,.26-3.22-6.17A.32.32,0,0,1,45.32,182.69Z"/><path class="cls-3" d="M65.11,134s-2,7,0,11c0,0,2.85,5.71-1.65,22.7a10.86,10.86,0,0,0-.37,2.57,59.51,59.51,0,0,1-1,10.72c-1,4-6,3-5,0s0-16,0-16-2.46-15.58-1.44-19.27a9.93,9.93,0,0,0,.4-2.93c-.07-2.59-.3-6.8-1-8.8C54.13,131,65.11,134,65.11,134Z"/><path class="cls-4" d="M58.62,183A7,7,0,0,0,62,182c.66,1.28,3.38,7-1,7-5.62,0-5.68-.06-4-6C57.12,182.57,58,183,58.62,183Z"/><path class="cls-5" d="M37,94s-5-2-6,41H76s-3-30-10-41Z"/></g><g id="hår_copy_7" data-name="hår copy 7"><path class="cls-7" d="M28.5,13.5s4-10,20-9,17,21,17,21,1,10-5,14L58,34s.58-3,2-4a2.49,2.49,0,0,0,1.17-2.58c-.43-1.24-1.41-2.19-3.67.08,0,0-17-2.43-20.41-5.1a13.24,13.24,0,0,0-2.17-1.5C33.19,20,30.43,18,28.5,13.5Z"/><path class="cls-12" d="M35.5,46.5s-4,1-3.5,12.5c0,1.08.37,2,0,3L25,80,23.5,26.5s0-10,5-13v16l3,5v3s-1,3,1,3,1,1,1,1-1,3,2,3C35.5,44.5,33.5,45.5,35.5,46.5Z"/></g><g id="trøje_copy_7" data-name="trøje copy 7"><path class="cls-6" d="M74,53c-.6-2.57-2.46-7.69-8-7H37s-5.17-1-5.58,9.5c0,0,.58,6.34-1.92,10.92S25,79,25,79s-2,4-1,7a15.77,15.77,0,0,1,1,4s1,2,4,0,6-3,6-8c0,0,0-2,2-6,0,0,2,13-1,17s3,2,3,2,23,1,24-1c0,0,6,2,3-3s-3-7-3-7S74.23,54,74,53Z"/><path class="cls-2" d="M74,53c-1,9,1.5,25.5,1.5,25.5s1,3-1,3c0,0-2,5-8,10,0,0-3-4-3-7l5-7-2-4S69,65,69,59Z"/></g><g id="blod_copy_6" data-name="blod copy 6"><path class="cls-8" d="M51.53,109.29s-7.52,0-3.76,3.33,0,3.33,0,3.33,0,3.33,3.76,0,3.76,0,3.76,0,3.76,0,0-3.33C55.29,112.63,55.29,102.62,51.53,109.29Z"/></g></symbol><symbol id="_9" data-name="9" viewBox="0 0 100 200"><g id="ansigt_copy_8" data-name="ansigt copy 8"><path class="cls-9" d="M25.5,6.5"/><path class="cls-10" d="M64,47,58,34s-3,1-3,0l.5,7.5S54,46,51,47Z"/><path class="cls-3" d="M28.5,13.5v16l3,5v3S30.31,41,33,41c0,0,1,0,0,1s.5,2.5,2.5,2.5c0,0-2,1,0,2h17s3.19-.7,3.09-6.35l.31-5.67a1.76,1.76,0,0,0,2.6-1c1-2,1.18-2.89,2.59-4.44S59.5,23.5,57.5,27.5c0,0-19.33-5.66-20.5-7.5S28.5,13.5,28.5,13.5Z"/><path class="cls-11" d="M13,35"/></g><g id="ben_copy_8" data-name="ben copy 8"><path class="cls-2" d="M56.42,187.74s-5.19-12.11.23-11.43S56.42,187.74,56.42,187.74Z"/><path class="cls-2" d="M43.42,187.74s-5.19-12.11.23-11.43S43.42,187.74,43.42,187.74Z"/><path class="cls-3" d="M41,134s2,7,0,11c0,0-2.9,5.79,1.74,23.06a7.69,7.69,0,0,1,.27,1.87c0,2.22.2,7.9,1,11.07,1,4,6,3,5,0s0-16,0-16,2.3-14.55,1.53-18.85a23.24,23.24,0,0,1-.42-5.2A31.8,31.8,0,0,1,51,134C52,131,41,134,41,134Z"/><path class="cls-4" d="M45.32,182.69c.42.53,1.39,1,3.58-.24a.32.32,0,0,1,.44.12c.66,1.29,3,6.43-1.34,6.43-5.76,0-5,.26-3.22-6.17A.32.32,0,0,1,45.32,182.69Z"/><path class="cls-3" d="M65.11,134s-2,7,0,11c0,0,2.85,5.71-1.65,22.7a10.86,10.86,0,0,0-.37,2.57,59.51,59.51,0,0,1-1,10.72c-1,4-6,3-5,0s0-16,0-16-2.46-15.58-1.44-19.27a9.93,9.93,0,0,0,.4-2.93c-.07-2.59-.3-6.8-1-8.8C54.13,131,65.11,134,65.11,134Z"/><path class="cls-4" d="M58.62,183A7,7,0,0,0,62,182c.66,1.28,3.38,7-1,7-5.62,0-5.68-.06-4-6C57.12,182.57,58,183,58.62,183Z"/><path class="cls-5" d="M37,94s-5-2-6,41H76s-3-30-10-41Z"/></g><g id="hår_copy_8" data-name="hår copy 8"><path class="cls-7" d="M28.5,13.5s4-10,20-9,17,21,17,21,1,10-5,14L58,34s.58-3,2-4a2.49,2.49,0,0,0,1.17-2.58c-.43-1.24-1.41-2.19-3.67.08,0,0-17-2.43-20.41-5.1a13.24,13.24,0,0,0-2.17-1.5C33.19,20,30.43,18,28.5,13.5Z"/><path class="cls-12" d="M35.5,46.5s-4,1-3.5,12.5c0,1.08.37,2,0,3L25,80,23.5,26.5s0-10,5-13v16l3,5v3s-1,3,1,3,1,1,1,1-1,3,2,3C35.5,44.5,33.5,45.5,35.5,46.5Z"/></g><g id="trøje_copy_8" data-name="trøje copy 8"><path class="cls-6" d="M74,53c-.6-2.57-2.46-7.69-8-7H37s-5.17-1-5.58,9.5c0,0,.58,6.34-1.92,10.92S25,79,25,79s-2,4-1,7a15.77,15.77,0,0,1,1,4s1,2,4,0,6-3,6-8c0,0,0-2,2-6,0,0,2,13-1,17s3,2,3,2,23,1,24-1c0,0,6,2,3-3s-3-7-3-7S74.23,54,74,53Z"/><path class="cls-2" d="M74,53c-1,9,1.5,25.5,1.5,25.5s1,3-1,3c0,0-2,5-8,10,0,0-3-4-3-7l5-7-2-4S69,65,69,59Z"/></g><g id="blod_copy_7" data-name="blod copy 7"><path class="cls-8" d="M51.45,107.73s-9,0-4.48,4,0,4,0,4,0,4,4.48,0,4.48,0,4.48,0,4.48,0,0-4C55.93,111.71,55.93,99.78,51.45,107.73Z"/></g><rect id="baggrund-2" data-name="baggrund" class="cls-1" width="100" height="200"/></symbol><symbol id="_1_2" data-name="1 2" viewBox="0 0 100 200"><g id="baggrund_copy-2" data-name="baggrund copy"><rect class="cls-1" width="100" height="200"/></g><g id="ben_copy-2" data-name="ben copy"><path class="cls-10" d="M59.12,135.45s-1.56,3.25,3.24,8.63,7.47,17.12,9.7,33-5,.7-5,.7l-16.86-34.7-1.46-1.72.15-6.46Z"/><path class="cls-3" d="M50.68,140.29s-3.29,1.47-3.11,8.68-5.38,17.89-13.92,31.42-4.23-2.67-4.23-2.67L39,140.36V138.1l4.29-4.83Z"/><path class="cls-2" d="M72.28,180.95l-4.44.62s-.16,5.35-5.48,6.53,0,5.9,0,5.9l8-4.72L77,185.73S78.21,182.07,72.28,180.95Z"/><path class="cls-4" d="M33,182.58l-3.14-3.19s-4.39,3.06-8.5-.51-4.74,3.52-4.74,3.52L25.16,186l6.8,3.22S35.64,188,33,182.58Z"/></g><g id="krop_copy" data-name="krop copy"><path class="cls-9" d="M32.19,4"/><path class="cls-3" d="M34.08,11.38,31.64,27.2l2.2,5.4-.46,3s-1.72,3.29.95,3.69c0,0,1,.15-.15,1s.11,2.55,2.09,2.85c0,0-2.13.68-.31,2a3.19,3.19,0,0,0,.95,3.69c1,1,2.13,1,4,.61C47.36,48,56.36,45,56.78,41.87L58,36.31a1.76,1.76,0,0,0,2.72-.57c1.29-1.82,1.6-2.67,3.24-4S63.19,26,60.6,29.66c0,0-18.24-8.56-19.11-10.55S34.08,11.38,34.08,11.38Z"/><path class="cls-7" d="M34.08,11.38s5.48-9.27,21.14-5.83S68.81,28.91,68.81,28.91,66,45,55,44l3-8s2.31,1.49,4-3c.34-.92,2.41-1.89,2.24-2.86-.23-1.29-1.06-2.38-3.64-.48,0,0-16.44-5-19.39-8.17a13.24,13.24,0,0,0-1.92-1.82C37.72,18.55,35.3,16.14,34.08,11.38Z"/><path class="cls-12" d="M36,45.07S34,52,45,48c1-.37,3.52,26.06,3,27L30,78,27.15,23.47s1.53-9.88,6.93-12.08L31.64,27.2l2.2,5.4-.46,3s-1.45,2.81.53,3.12.84,1.14.84,1.14-1.45,2.81,1.52,3.27C36.26,43.09,34.13,43.77,36,45.07Z"/><path class="cls-10" d="M44.55,48.47S47,54,44,56s-8,10-8,10-5,6,0,12,3,19,3,19l-3,9H63L62,88c4-36-2-32-5-34s-2-10-2-10"/><path class="cls-13" d="M71,147c0-40-8-41-8-41H36l-9,41Z"/><path class="cls-10" d="M17.65,84.52l-9.21-2s-2.22-.27-.61,1.28a3.55,3.55,0,0,0,3.5.88l-7.27.47s-1.88.67-.61,1.28L4.73,87s-4.1.4-.61,1.28c0,0-1.55,1.61.67,1.88L8,90.09s-1.88.67.34.94c0,0,3.16-.07,4.71-1.68a6.85,6.85,0,0,1,3.29-1.95l.85.53Z"/><path class="cls-4" d="M38.77,72.18s8.29-8.26,8.15,3.82c0,0-3.4,7.24-7.76,11.83S15.91,88,15.91,88l.79-4S32.29,81.29,35,82.56C35,82.56,36.17,75.38,38.77,72.18Z"/><path class="cls-6" d="M41.43,58.47S43,63,57,54c0,0,12-2,5,34l1,18H36l3-9s1-13-1.7-17C34.81,76.3,28.86,69.94,41.43,58.47Z"/><path class="cls-3" d="M44.62,93.83,35.73,97s-2,1,.17,1.4a3.55,3.55,0,0,0,3.43-1.12l-5.91,4.26s-1.24,1.57.17,1.4l1.4-.17s-3.26,2.52.17,1.4c0,0-.45,2.19,1.57,1.24l2.64-1.74s-1.24,1.57.78.62c0,0,2.64-1.74,3.1-3.92A6.85,6.85,0,0,1,45,97h1Z"/></g><g id="arme_copy" data-name="arme copy"><path class="cls-4" d="M49.41,70.56s-.16-11.7,8.41-3.19c0,0,2.84,7.48,3.1,13.8S44.84,98,44.84,98l-2.35-3.38s9-13,11.76-14.09C54.25,80.49,49.9,74.65,49.41,70.56Z"/></g></symbol><symbol id="_2_2" data-name="2 2" viewBox="0 0 100 200"><g id="baggrund_copy_2-2" data-name="baggrund copy 2"><rect class="cls-1" width="100" height="200"/></g><g id="ben_copy_2-2" data-name="ben copy 2"><path class="cls-10" d="M59.12,135.45s7.68.38,6.88,7.55c-1,9,37.76,26,21,26-7,0-34.61-22.19-37-26l.25.05-1.46-1.72.15-6.46Z"/><path class="cls-3" d="M47.38,135.88S44.47,138,46.18,145s-1.47,18.62-7,33.65-4.7-1.71-4.7-1.71L36,138.42l-.48-2.21,3.17-5.63Z"/><path class="cls-2" d="M89.25,165.06l-3,3.31s3.29,4.22-.05,8.52,3.77,4.55,3.77,4.55l3.12-8.72,2.85-7S94.54,162.14,89.25,165.06Z"/><path class="cls-4" d="M38.13,180.5l-3.8-2.38s-3.56,4-8.39,1.48-3.79,4.52-3.79,4.52l9.14,1.5,7.37,1.55S42,185.17,38.13,180.5Z"/></g><g id="krop_copy_2" data-name="krop copy 2"><path class="cls-9" d="M32.19,4"/><path class="cls-3" d="M34.08,11.38,31.64,27.2l2.2,5.4-.46,3s-1.72,3.29.95,3.69c0,0,1,.15-.15,1s.11,2.55,2.09,2.85c0,0-2.13.68-.31,2a3.19,3.19,0,0,0,.95,3.69c1,1,2.13,1,4,.61C47.36,48,56.36,45,56.78,41.87L58,36.31a1.76,1.76,0,0,0,2.72-.57c1.29-1.82,1.6-2.67,3.24-4S63.19,26,60.6,29.66c0,0-18.24-8.56-19.11-10.55S34.08,11.38,34.08,11.38Z"/><path class="cls-7" d="M34.08,11.38s5.48-9.27,21.14-5.83S68.81,28.91,68.81,28.91,66,45,55,44l3-8s2.31,1.49,4-3c.34-.92,2.41-1.89,2.24-2.86-.23-1.29-1.06-2.38-3.64-.48,0,0-16.44-5-19.39-8.17a13.24,13.24,0,0,0-1.92-1.82C37.72,18.55,35.3,16.14,34.08,11.38Z"/><path class="cls-12" d="M36,45.07S34,52,45,48c1-.37,3.52,26.06,3,27L30,78,27.15,23.47s1.53-9.88,6.93-12.08L31.64,27.2l2.2,5.4-.46,3s-1.45,2.81.53,3.12.84,1.14.84,1.14-1.45,2.81,1.52,3.27C36.26,43.09,34.13,43.77,36,45.07Z"/><path class="cls-10" d="M44.55,48.47S47,54,44,56s-8,10-8,10-5,6,0,12,3,19,3,19l-3,9H63L62,88c4-36-2-32-5-34s-2-10-2-10"/><path class="cls-13" d="M71,147c0-40-8-41-8-41H36l-9,41Z"/><path class="cls-10" d="M26.83,87.42l-9.4.76s-2.2.39-.21,1.4a3.55,3.55,0,0,0,3.6-.18L14,92s-1.61,1.19-.21,1.4l1.4.21S11.39,95.15,15,95c0,0-1,2,1.19,1.61l3-1s-1.61,1.19.6.8c0,0,3-1,4-3a6.85,6.85,0,0,1,2.57-2.83l1,.26Z"/><path class="cls-4" d="M42.65,70.69s5.9-10.11,8.86,1.6c0,0-1.43,7.87-4.46,13.42s-22.45,6.1-22.45,6.1l-.27-4.11s14.4-6.54,17.35-6C41.68,81.69,41,74.45,42.65,70.69Z"/><path class="cls-6" d="M41.43,58.47S43,63,57,54c0,0,12-2,5,34l1,18H36l3-9s1-13-1.7-17C34.81,76.3,28.86,69.94,41.43,58.47Z"/><path class="cls-3" d="M47.7,93l-8.27,4.54s-1.85,1.26.38,1.36A3.55,3.55,0,0,0,43,97.31l-5.16,5.13s-1,1.75.38,1.36l1.36-.38s-2.83,3,.38,1.36c0,0-.1,2.23,1.75,1l2.34-2.13s-1,1.75.87.49c0,0,2.34-2.13,2.44-4.36a6.85,6.85,0,0,1,1.19-3.63l1-.16Z"/></g><g id="arme_copy_2" data-name="arme copy 2"><path class="cls-4" d="M47.69,70.81s-2.19-11.5,7.73-4.6c0,0,4.09,6.87,5.44,13.05S47.94,98.59,47.94,98.59L45,95.67s6.57-14.38,9.14-15.92C54.18,79.75,48.88,74.76,47.69,70.81Z"/></g></symbol><symbol id="_3_2" data-name="3 2" viewBox="0 0 100 200"><g id="baggrund_copy_3-2" data-name="baggrund copy 3"><rect class="cls-1" width="100" height="200"/></g><g id="ben_copy_3-2" data-name="ben copy 3"><path class="cls-10" d="M40.12,135.45s7.68.38,6.88,7.55c-1,9,37.76,26,21,26-7,0-34.61-22.19-37-26l.25.05-1.46-1.72.15-6.46Z"/><path class="cls-3" d="M51.84,134.55s-2.56,2.54.16,9.22,1.3,18.64-1.9,34.31-4.9-1-4.9-1l-4.26-38.34-.8-2.11,2.3-6Z"/><path class="cls-2" d="M70.25,165.06l-3,3.31s3.29,4.22-.05,8.52,3.77,4.55,3.77,4.55l3.12-8.72,2.85-7S75.54,162.14,70.25,165.06Z"/><path class="cls-4" d="M49.29,180l-4.11-1.79s-2.93,4.47-8.08,2.71S34,186,34,186l9.26.13,7.51.45S53.77,184.1,49.29,180Z"/></g><g id="krop_copy_3" data-name="krop copy 3"><path class="cls-9" d="M32.19,4"/><path class="cls-3" d="M34.08,11.38,31.64,27.2l2.2,5.4-.46,3s-1.72,3.29.95,3.69c0,0,1,.15-.15,1s.11,2.55,2.09,2.85c0,0-2.13.68-.31,2a3.19,3.19,0,0,0,.95,3.69c1,1,2.13,1,4,.61C47.36,48,56.36,45,56.78,41.87L58,36.31a1.76,1.76,0,0,0,2.72-.57c1.29-1.82,1.6-2.67,3.24-4S63.19,26,60.6,29.66c0,0-18.24-8.56-19.11-10.55S34.08,11.38,34.08,11.38Z"/><path class="cls-7" d="M34.08,11.38s5.48-9.27,21.14-5.83S68.81,28.91,68.81,28.91,66,45,55,44l3-8s2.31,1.49,4-3c.34-.92,2.41-1.89,2.24-2.86-.23-1.29-1.06-2.38-3.64-.48,0,0-16.44-5-19.39-8.17a13.24,13.24,0,0,0-1.92-1.82C37.72,18.55,35.3,16.14,34.08,11.38Z"/><path class="cls-12" d="M36,45.07S34,52,45,48c1-.37,3.52,26.06,3,27L30,78,27.15,23.47s1.53-9.88,6.93-12.08L31.64,27.2l2.2,5.4-.46,3s-1.45,2.81.53,3.12.84,1.14.84,1.14-1.45,2.81,1.52,3.27C36.26,43.09,34.13,43.77,36,45.07Z"/><path class="cls-10" d="M44.55,48.47S47,54,44,56s-8,10-8,10-5,6,0,12,3,19,3,19l-3,9H63L62,88c4-36-2-32-5-34s-2-10-2-10"/><path class="cls-13" d="M71,147c0-40-8-41-8-41H36l-9,41Z"/><path class="cls-10" d="M44.05,91.53l-7.35,5.92s-1.6,1.56.62,1.27a3.55,3.55,0,0,0,2.87-2.18l-4.18,6s-.66,1.89.62,1.27l1.27-.62s-2.26,3.45.62,1.27c0,0,.29,2.22,1.89.66l1.93-2.51s-.66,1.89.94.33c0,0,1.93-2.51,1.64-4.72a6.85,6.85,0,0,1,.54-3.78l.94-.33Z"/><path class="cls-4" d="M47.71,68.8s-.82-11.68,8.22-3.66c0,0,3.25,7.31,3.87,13.6S44.68,96.42,44.68,96.42l-2.54-3.25s8.22-13.51,11-14.73C53.1,78.44,48.42,72.86,47.71,68.8Z"/><path class="cls-6" d="M41.43,58.47S43,63,57,54c0,0,12-2,5,34l1,18H36l3-9s1-13-1.7-17C34.81,76.3,28.86,69.94,41.43,58.47Z"/><path class="cls-3" d="M33.39,89.44l-9-2.88s-2.18-.48-.72,1.21a3.55,3.55,0,0,0,3.4,1.2l-7.28-.22s-1.94.49-.72,1.21l1.21.72s-4.12,0-.72,1.21c0,0-1.69,1.46.49,1.94l3.15.23s-1.94.49.25,1c0,0,3.15.23,4.85-1.23a6.85,6.85,0,0,1,3.45-1.63l.79.61Z"/></g><g id="arme_copy_3" data-name="arme copy 3"><path class="cls-4" d="M49.53,72.14s6.84-9.5,8.66,2.45c0,0-2.18,7.7-5.73,12.93s-22.93,3.91-22.93,3.91l.13-4.12s15-5.12,17.84-4.31C47.5,83,47.48,75.72,49.53,72.14Z"/></g></symbol><symbol id="_4_2" data-name="4 2" viewBox="0 0 100 200"><g id="baggrund_copy_4-2" data-name="baggrund copy 4"><rect class="cls-1" width="100" height="200"/></g><g id="ben_copy_4-2" data-name="ben copy 4"><path class="cls-10" d="M49.63,134.81s1.91,7.45-5.18,8.8c-8.89,1.7-13.68,43.76-18.64,27.74-2.07-6.69,11-39.63,13.91-43l0,.25L41,126.68l6.22-1.77Z"/><path class="cls-3" d="M53.55,129.16s-1.59,3.24,3.16,8.66S64,155,66.09,170.88s-5,.65-5,.65L44.61,136.67l-1.45-1.73.21-6.46Z"/><path class="cls-2" d="M30.24,172.35l-4.06-1.91s-3.06,4.39-8.15,2.47-3.23,4.94-3.23,4.94l9.26.41,7.5.67S34.59,176.53,30.24,172.35Z"/><path class="cls-4" d="M66,173l-4.47-.35s-1.31,5.18-6.75,5.19-1.27,5.77-1.27,5.77l8.8-2.89,7.25-2S71.52,175.37,66,173Z"/></g><g id="krop_copy_4" data-name="krop copy 4"><path class="cls-9" d="M32.19,4"/><path class="cls-3" d="M34.08,11.38,31.64,27.2l2.2,5.4-.46,3s-1.72,3.29.95,3.69c0,0,1,.15-.15,1s.11,2.55,2.09,2.85c0,0-2.13.68-.31,2a3.19,3.19,0,0,0,.95,3.69c1,1,2.13,1,4,.61C47.36,48,56.36,45,56.78,41.87L58,36.31a1.76,1.76,0,0,0,2.72-.57c1.29-1.82,1.6-2.67,3.24-4S63.19,26,60.6,29.66c0,0-18.24-8.56-19.11-10.55S34.08,11.38,34.08,11.38Z"/><path class="cls-7" d="M34.08,11.38s5.48-9.27,21.14-5.83S68.81,28.91,68.81,28.91,66,45,55,44l3-8s2.31,1.49,4-3c.34-.92,2.41-1.89,2.24-2.86-.23-1.29-1.06-2.38-3.64-.48,0,0-16.44-5-19.39-8.17a13.24,13.24,0,0,0-1.92-1.82C37.72,18.55,35.3,16.14,34.08,11.38Z"/><path class="cls-12" d="M36,45.07S34,52,45,48c1-.37,3.52,26.06,3,27L30,78,27.15,23.47s1.53-9.88,6.93-12.08L31.64,27.2l2.2,5.4-.46,3s-1.45,2.81.53,3.12.84,1.14.84,1.14-1.45,2.81,1.52,3.27C36.26,43.09,34.13,43.77,36,45.07Z"/><path class="cls-10" d="M44.55,48.47S47,54,44,56s-8,10-8,10-5,6,0,12,3,19,3,19l-3,9H63L62,88c4-36-2-32-5-34s-2-10-2-10"/><path class="cls-13" d="M71,147c0-40-8-41-8-41H36l-9,41Z"/><path class="cls-10" d="M44.05,91.53l-7.35,5.92s-1.6,1.56.62,1.27a3.55,3.55,0,0,0,2.87-2.18l-4.18,6s-.66,1.89.62,1.27l1.27-.62s-2.26,3.45.62,1.27c0,0,.29,2.22,1.89.66l1.93-2.51s-.66,1.89.94.33c0,0,1.93-2.51,1.64-4.72a6.85,6.85,0,0,1,.54-3.78l.94-.33Z"/><path class="cls-4" d="M47.71,68.8s-.82-11.68,8.22-3.66c0,0,3.25,7.31,3.87,13.6S44.68,96.42,44.68,96.42l-2.54-3.25s8.22-13.51,11-14.73C53.1,78.44,48.42,72.86,47.71,68.8Z"/><path class="cls-6" d="M41.43,58.47S43,63,57,54c0,0,12-2,5,34l1,18H36l3-9s1-13-1.7-17C34.81,76.3,28.86,69.94,41.43,58.47Z"/><path class="cls-3" d="M33.39,89.44l-9-2.88s-2.18-.48-.72,1.21a3.55,3.55,0,0,0,3.4,1.2l-7.28-.22s-1.94.49-.72,1.21l1.21.72s-4.12,0-.72,1.21c0,0-1.69,1.46.49,1.94l3.15.23s-1.94.49.25,1c0,0,3.15.23,4.85-1.23a6.85,6.85,0,0,1,3.45-1.63l.79.61Z"/></g><g id="arme_copy_4" data-name="arme copy 4"><path class="cls-4" d="M49.53,72.14s6.84-9.5,8.66,2.45c0,0-2.18,7.7-5.73,12.93s-22.93,3.91-22.93,3.91l.13-4.12s15-5.12,17.84-4.31C47.5,83,47.48,75.72,49.53,72.14Z"/></g></symbol><symbol id="_5_2" data-name="5 2" viewBox="0 0 100 200"><g id="baggrund-3" data-name="baggrund"><rect class="cls-1" width="100" height="200"/></g><g id="ben-2" data-name="ben"><path class="cls-3" d="M59.12,135.45s-1.56,3.25,3.24,8.63,7.47,17.12,9.7,33-5,.7-5,.7l-16.86-34.7-1.46-1.72.15-6.46Z"/><path class="cls-10" d="M50.68,140.29s-3.29,1.47-3.11,8.68-5.38,17.89-13.92,31.42-4.23-2.67-4.23-2.67L39,140.36V138.1l4.29-4.83Z"/><path class="cls-4" d="M72.28,180.95l-4.44.62s-.16,5.35-5.48,6.53,0,5.9,0,5.9l8-4.72L77,185.73S78.21,182.07,72.28,180.95Z"/><path class="cls-2" d="M33,182.58l-3.14-3.19s-4.39,3.06-8.5-.51-4.74,3.52-4.74,3.52L25.16,186l6.8,3.22S35.64,188,33,182.58Z"/></g><g id="krop"><path class="cls-9" d="M32.19,4"/><path class="cls-3" d="M34.08,11.38,31.64,27.2l2.2,5.4-.46,3s-1.72,3.29.95,3.69c0,0,1,.15-.15,1s.11,2.55,2.09,2.85c0,0-2.13.68-.31,2a3.19,3.19,0,0,0,.95,3.69c1,1,2.13,1,4,.61C47.36,48,56.36,45,56.78,41.87L58,36.31a1.76,1.76,0,0,0,2.72-.57c1.29-1.82,1.6-2.67,3.24-4S63.19,26,60.6,29.66c0,0-18.24-8.56-19.11-10.55S34.08,11.38,34.08,11.38Z"/><path class="cls-7" d="M34.08,11.38s5.48-9.27,21.14-5.83S68.81,28.91,68.81,28.91,66,45,55,44l3-8s2.31,1.49,4-3c.34-.92,2.41-1.89,2.24-2.86-.23-1.29-1.06-2.38-3.64-.48,0,0-16.44-5-19.39-8.17a13.24,13.24,0,0,0-1.92-1.82C37.72,18.55,35.3,16.14,34.08,11.38Z"/><path class="cls-12" d="M36,45.07S34,52,45,48c1-.37,3.52,26.06,3,27L30,78,27.15,23.47s1.53-9.88,6.93-12.08L31.64,27.2l2.2,5.4-.46,3s-1.45,2.81.53,3.12.84,1.14.84,1.14-1.45,2.81,1.52,3.27C36.26,43.09,34.13,43.77,36,45.07Z"/><path class="cls-10" d="M44.55,48.47S47,54,44,56s-8,10-8,10-5,6,0,12,3,19,3,19l-3,9H63L62,88c4-36-2-32-5-34s-2-10-2-10"/><path class="cls-13" d="M71,147c0-40-8-41-8-41H36l-9,41Z"/><path class="cls-10" d="M63.43,89.2l-1.6,9.3s-.17,2.23,1.3.55a3.55,3.55,0,0,0,.72-3.53l.8,7.24s.76,1.85,1.3.55l.55-1.3s.59,4.08,1.3.55c0,0,1.68,1.47,1.85-.76l-.21-3.16s.76,1.85.93-.38c0,0-.21-3.16-1.89-4.63a6.85,6.85,0,0,1-2.1-3.19l.49-.87Z"/><path class="cls-4" d="M50.14,68.65s-8.63-7.91,3.45-8.31c0,0,7.39,3.06,12.17,7.21s1.19,23.23,1.19,23.23l-4.08-.61s-3.33-15.46-2.18-18.23C60.69,71.94,53.45,71.11,50.14,68.65Z"/><path class="cls-6" d="M41.43,58.47S43,63,57,54c0,0,12-2,5,34l1,18H36l3-9s1-13-1.7-17C34.81,76.3,28.86,69.94,41.43,58.47Z"/><path class="cls-3" d="M32.29,88.28l-9.22-2s-2.22-.26-.6,1.28a3.55,3.55,0,0,0,3.5.86l-7.26.5s-1.88.68-.6,1.28l1.28.6s-4.1.42-.6,1.28c0,0-1.54,1.62.68,1.88l3.16-.08s-1.88.68.34.94c0,0,3.16-.08,4.7-1.7a6.85,6.85,0,0,1,3.28-2l.85.53Z"/></g><g id="arme"><path class="cls-4" d="M48.65,71s6-10,8.83,1.73c0,0-1.54,7.85-4.65,13.36S30.3,91.91,30.3,91.91l-.21-4.12S44.57,81.45,47.51,82C47.51,82,46.9,74.78,48.65,71Z"/></g></symbol></defs><title>offer_spritesheet</title><g id="baggrund_copy_8" data-name="baggrund copy 8"><rect class="cls-1" width="100" height="200"/></g><use width="100" height="200" xlink:href="#_1"/><use id="_2-3" data-name="2" width="100" height="200" transform="translate(100)" xlink:href="#_2"/><use id="_3-3" data-name="3" width="100" height="200" transform="translate(200)" xlink:href="#_3"/><use id="_4-3" data-name="4" width="100" height="200" transform="translate(300)" xlink:href="#_4"/><use id="_5-3" data-name="5" width="100" height="200" transform="translate(400)" xlink:href="#_5"/><use id="_6-3" data-name="6" width="100" height="200" transform="translate(500)" xlink:href="#_6"/><use id="_7-3" data-name="7" width="100" height="200" transform="translate(600)" xlink:href="#_7"/><use id="_8-3" data-name="8" width="100" height="200" transform="translate(700)" xlink:href="#_8"/><use id="_9-3" data-name="9" width="100" height="200" transform="translate(800)" xlink:href="#_9"/><polygon class="cls-12" points="30.5 233.5 44.16 247.21 40.5 255.5 26.5 251.5 30.5 233.5"/><polygon class="cls-7" points="61.5 223.5 63.5 255.5 42.5 246.5 61.5 223.5"/><path class="cls-13" d="M32,290s-4,2-5,45l46-1s-6-35-10-44S32,290,32,290Z"/><path class="cls-3" d="M36.5,332.5s4,9,2,16,5,33,5,33,5,6,5-2,2-33,2-33l-3-15Z"/><path class="cls-3" d="M57.5,333.5s-2,3,2,9,5,18,5,34-5,0-5,0L47.66,339.79l-1.21-1.91,1.05-6.38Z"/><path class="cls-14" d="M47,334s-3,8,5,6"/><path class="cls-4" d="M60,378s3.63,3.06,4.75-.5L67,387s-4.5-5.94-9,0Z"/><path class="cls-2" d="M60.24,384.4a3.29,3.29,0,0,1,4.53,0c2.5,2.37,5.25,6.1-2.26,6.1S57.74,386.77,60.24,384.4Z"/><path class="cls-4" d="M43,379s3.88,3.56,5,0l2,9s-4.5-5.94-9,0Z"/><path class="cls-2" d="M43.24,385.4a3.29,3.29,0,0,1,4.53,0c2.5,2.37,5.25,6.1-2.26,6.1S40.74,387.77,43.24,385.4Z"/><path class="cls-10" d="M52,242s-2,10,10,8-19,11-19,11L32,250s11,2,9-7S52,242,52,242Z"/><path class="cls-6" d="M35,250s12,15,21-1h8s7.25-2.72,10.54,22.05a41.09,41.09,0,0,0,1.35,6c.4,1.38.31,2.53-1.89,3-5,1,2,1-22-5l1-5,14,4s-3-2-6-14c0,0-5,23,2,28s-29,5-29,5-6,0-2-7,0-23,0-23l-1,11,14,11-2,4s-17-8-20-13c0,0-3,0-2-5s2-16,2-16S23,248,35,250Z"/><path class="cls-3" d="M55,271l-8-5s-2-1-1,1a3.55,3.55,0,0,0,3,2l-7-2s-2,0-1,1l1,1s-4-1-1,1c0,0-2,1,0,2l3,1s-2,0,0,1c0,0,3,1,5,0s3,0,3,0l1,1Z"/><path class="cls-3" d="M44,284l8.48,3s2.05.85-.11,1.4a3.52,3.52,0,0,1-3.46-.95l6.05,4s1.3,1.5-.11,1.4l-1.41-.1s3.35,2.35-.11,1.4c0,0,.54,2.16-1.51,1.31l-2.7-1.6s1.3,1.5-.76.65c0,0-2.7-1.6-3.24-3.76s-1.95-2.25-1.95-2.25L42,288Z"/><path class="cls-3" d="M30,225s-3,13,12,20a7.39,7.39,0,0,0,10-1l6-6s2-3,1-9c0,0,3,0,4-6,0,0-1-4-4-1L44,209l-12,9Z"/><path class="cls-7" d="M45.5,213.5s-22-2-12,58c0,0,2,8-5,12,0,0-5,9-4-53,0,0-2-20,17-23s20,13,20,13v2S48.5,223.5,45.5,213.5Z"/><path class="cls-6" d="M54.5,227.5a13.06,13.06,0,0,1-8,0s-1,0,0,1a3.1,3.1,0,0,0,2,1s1,2,1,0h1s1,6,1,0h1s1,12,1,0C53.5,229.5,57.5,226.5,54.5,227.5Z"/><path class="cls-8" d="M48.45,306.73s-9,0-4.48,4,0,4,0,4,0,4,4.48,0,4.48,0,4.48,0,4.48,0,0-4C52.93,310.71,52.93,298.78,48.45,306.73Z"/><rect class="cls-1" y="200" width="100" height="200"/><polygon class="cls-12" points="130.5 233.5 144.16 247.21 140.5 255.5 126.5 251.5 130.5 233.5"/><polygon class="cls-7" points="161.5 223.5 163.5 255.5 142.5 246.5 161.5 223.5"/><path class="cls-13" d="M132,290s-4,2-5,45l46-1s-6-35-10-44S132,290,132,290Z"/><path class="cls-3" d="M136.5,332.5s4,9,2,16,5,33,5,33,5,6,5-2,2-33,2-33l-3-15Z"/><path class="cls-3" d="M157.5,333.5s-2,3,2,9,5,18,5,34-5,0-5,0l-11.84-36.71-1.21-1.91,1.05-6.38Z"/><path class="cls-14" d="M147,334s-3,8,5,6"/><path class="cls-4" d="M160,378s3.63,3.06,4.75-.5L167,387s-4.5-5.94-9,0Z"/><path class="cls-2" d="M160.24,384.4a3.29,3.29,0,0,1,4.53,0c2.5,2.37,5.25,6.1-2.26,6.1S157.74,386.77,160.24,384.4Z"/><path class="cls-4" d="M143,379s3.88,3.56,5,0l2,9s-4.5-5.94-9,0Z"/><path class="cls-2" d="M143.24,385.4a3.29,3.29,0,0,1,4.53,0c2.5,2.37,5.25,6.1-2.26,6.1S140.74,387.77,143.24,385.4Z"/><path class="cls-10" d="M152,242s-2,10,10,8-19,11-19,11l-11-11s11,2,9-7S152,242,152,242Z"/><path class="cls-6" d="M135,250s12,15,21-1h8s7.25-2.72,10.54,22.05a41.09,41.09,0,0,0,1.35,6c.4,1.38.31,2.53-1.89,3-5,1,2,1-22-5l1-5,14,4s-3-2-6-14c0,0-5,23,2,28s-29,5-29,5-6,0-2-7,0-23,0-23l-1,11,14,11-2,4s-17-8-20-13c0,0-3,0-2-5s2-16,2-16S123,248,135,250Z"/><path class="cls-3" d="M155,271l-8-5s-2-1-1,1a3.55,3.55,0,0,0,3,2l-7-2s-2,0-1,1l1,1s-4-1-1,1c0,0-2,1,0,2l3,1s-2,0,0,1c0,0,3,1,5,0s3,0,3,0l1,1Z"/><path class="cls-3" d="M144,284l8.48,3s2.05.85-.11,1.4a3.52,3.52,0,0,1-3.46-.95l6.05,4s1.3,1.5-.11,1.4l-1.41-.1s3.35,2.35-.11,1.4c0,0,.54,2.16-1.51,1.31l-2.7-1.6s1.3,1.5-.76.65c0,0-2.7-1.6-3.24-3.76s-1.95-2.25-1.95-2.25L142,288Z"/><path class="cls-3" d="M130,225s-3,13,12,20a7.39,7.39,0,0,0,10-1l6-6s2-3,1-9c0,0,3,0,4-6,0,0-1-4-4-1l-15-13-12,9Z"/><path class="cls-7" d="M145.5,213.5s-22-2-12,58c0,0,2,8-5,12,0,0-5,9-4-53,0,0-2-20,17-23s20,13,20,13v2S148.5,223.5,145.5,213.5Z"/><path class="cls-6" d="M154.5,227.5a13.06,13.06,0,0,1-8,0s-1,0,0,1a3.1,3.1,0,0,0,2,1s1.5,6.5,1,0h1s1.5,11.5,1,0h1s1.5,17.5,1,0C153.5,229.5,157.5,226.5,154.5,227.5Z"/><path class="cls-8" d="M148.45,306.73s-9,0-4.48,4,0,4,0,4,0,4,4.48,0,4.48,0,4.48,0,4.48,0,0-4C152.93,310.71,152.93,298.78,148.45,306.73Z"/><rect class="cls-1" x="100" y="200" width="100" height="200"/><use width="100" height="200" transform="translate(0 400)" xlink:href="#_1_2"/><use width="100" height="200" transform="translate(100 400)" xlink:href="#_2_2"/><use width="100" height="200" transform="translate(200 400)" xlink:href="#_3_2"/><use width="100" height="200" transform="translate(300 400)" xlink:href="#_4_2"/><use width="100" height="200" transform="translate(400 400)" xlink:href="#_5_2"/></svg>
