<svg id="Layer_1" data-name="Layer 1" xmlns="http://www.w3.org/2000/svg" viewBox="0 0 400 800"><defs><style>.cls-1{fill:#995c8a;}.cls-2{fill:#c786b8;}.cls-3{fill:#995c89;}.cls-4{fill:none;}</style></defs><title>purple_pos</title><path class="cls-1" d="M200.15,691c-.79,2.16-35.55,5.87-37,7.19,0,0-35.23-1-28.24,16.84l82.05.17-.13-19.52Z"/><path class="cls-1" d="M216,495.36s-3.56,63.66-3.31,71.11l4.19,129.18-17-2s-18.77-96.07-11.68-111.51c0,0-25.58-65.07.6-94.13Z"/><path class="cls-2" d="M166.29,683.09c.7,5.48-38.71,20.48-57,20.41-6.79,0-2.7,9.94-2.38,12.42,0,0,71.13,8.07,82.51-4.58,0,0,3-20.38-3.11-23.24Z"/><path class="cls-2" d="M152,491s-14.83,41.66-14.45,86.44a71.79,71.79,0,0,0,3.27,20.64L169,689l20,2c1.26,3.25-17-59-17-110,0-49.61,31.9-83.49,35.69-87.28Z"/><path class="cls-3" d="M214,210.23s8.14,3.67,7.81,53.67c0,0-24.18,43.5-12.52,114.5l-55.27,7s-2-76.67-9-78.33c0,0-18.35-4.29-21.35-17.46s3.93-21.44,3.93-21.44S189.35,267.91,214,210.23Z"/><path class="cls-1" d="M204,377.79s25.68-7.09,28,63.57c0,0-.33,37,8,57.33,0,0-68.33,27.67-121.5,18.33,0,0,42.83-115,35.5-131.67Z"/><path class="cls-2" d="M201.73,431.26s9-3.92,14.36,2.76l39.44-85-24-12.09Z"/><path class="cls-2" d="M233.74,346.18,192,282s-22.18-28.27,13.43-28.48l46.76,79.36Z"/><circle class="cls-2" cx="242.85" cy="342.95" r="13.8"/><circle class="cls-2" cx="195.97" cy="258.28" r="16.21"/><path class="cls-1" d="M218.36,184.75c2.33.93-3.78,10.88-4.32,24.62,9,4.82-39.82,63.3-86.42,58.75,0,0,43.81-32.25,49.35-39,2.9-3.53,15.4-21.58,16.35-26L196,182Z"/><path class="cls-1" d="M172.9,131s-22.83,57.45-12,74,66.9-26.64,61.29-22.25c0,0-6.39-6.73-1.09-38.76C221.56,145.25,191.55,142.75,172.9,131Z"/><path class="cls-1" d="M222.92,108.79s-28.68-19.69-54.84,20.66c0,0,40.08,19.84,52.86,15.19C220.94,144.64,230.31,126.52,222.92,108.79Z"/><path class="cls-1" d="M226.22,205.46s58.43-15,36.59-65.75c0,0-9.84-28.71-39.88-30.92,2,4.56,2.6,18.17-2,35.85C215.88,164.19,221,193.07,226.22,205.46Z"/><path class="cls-1" d="M260.93,120.41S288.78,72.7,328.38,134c0,0,17,35.05-37,106.95,0,0-17.07,23.19-17.44,82.39,0,0-40.87-38.8-17.42-105.93C256.55,217.43,309.26,155,260.93,120.41Z"/><polygon class="cls-1" points="263.14 117.2 269.12 127.48 261.12 136.19 250.02 121.26 263.14 117.2"/><path class="cls-2" d="M206.64,421.21s7.83-1.44,12.47,7.64c0,0-8.49,32.73-3.93,38.47,0,0-7.34,16.48-24.69,4.3C190.5,471.61,190.77,437.14,206.64,421.21Z"/><rect class="cls-4" width="400" height="800"/></svg>
