<svg id="Layer_1" data-name="Layer 1" xmlns="http://www.w3.org/2000/svg" viewBox="0 0 400 800"><defs><style>.cls-1{fill:#b73d32;}.cls-2{fill:#ed736e;}.cls-3{fill:none;}</style></defs><title>red_pos</title><path class="cls-1" d="M224.42,688.69c-.81,2.15-35.62,5.48-37,6.78,0,0-35.22-1.37-28.42,16.53l82,1.07.08-19.52Z"/><path class="cls-1" d="M242.41,493.26s-4.26,63.61-4.09,71.07l2.77,129.22-16.93-2.16s-17.71-96.27-10.45-111.64c0,0-24.86-65.35,1.63-94.12Z"/><path class="cls-2" d="M181.67,675.86c.69,5.49-38.76,20.4-57,20.28-6.79,0-2.72,9.94-2.41,12.41,0,0,71.11,8.23,82.52-4.39,0,0,3-20.37-3.06-23.25Z"/><path class="cls-2" d="M187,491s-24.48,43.11-21,92l18,102,21,2c1.26,3.24-13-49-9-101,3.81-49.59,49.23-90.76,53-94.55Z"/><path class="cls-1" d="M240.36,208s8.14,3.67,7.81,53.67c0,0-24.18,43.5-12.52,114.5l-55.27,7s-2-76.67-9-78.33c0,0-18.35-4.29-21.35-17.46S154,265.85,154,265.85,215.69,265.64,240.36,208Z"/><path class="cls-1" d="M230.37,375.51s25.68-7.09,28,63.57c0,0-.33,37,8,57.33,0,0-68.33,27.67-121.5,18.33,0,0,42.83-115,35.5-131.67Z"/><path class="cls-2" d="M215.53,424.67s9.25-3.39,14.18,3.59L274,345.67l-23.25-13.46Z"/><path class="cls-2" d="M253.82,343.1,217.7,275.59S198,245.53,233.52,248.36l39.8,83.07Z"/><circle class="cls-2" cx="263.19" cy="340.68" r="13.8"/><circle class="cls-2" cx="222.31" cy="256" r="16.21"/><path class="cls-1" d="M244.7,182.47c2.33.93-3.78,10.88-4.32,24.62,9,4.82-39.82,63.3-86.42,58.75,0,0,43.81-32.25,49.35-39,2.9-3.53,15.4-21.58,16.35-26l2.65-21.09Z"/><path class="cls-1" d="M199.23,128.68s-22.83,57.45-12,74,66.9-26.64,61.29-22.25c0,0-6.39-6.73-1.09-38.76C247.9,143,217.89,140.47,199.23,128.68Z"/><path class="cls-1" d="M249.26,106.51s-28.68-19.69-54.84,20.66c0,0,40.08,19.84,52.86,15.19C247.28,142.36,256.65,124.24,249.26,106.51Z"/><path class="cls-1" d="M252.55,203.18s58.43-15,36.59-65.75c0,0-9.84-28.71-39.88-30.92,2,4.56,2.6,18.17-2,35.85C242.21,161.92,247.31,190.8,252.55,203.18Z"/><path class="cls-1" d="M287.26,118.13s27.85-47.7,67.45,13.62c0,0,17,35.05-37,106.95,0,0-17.07,23.19-17.44,82.39,0,0-40.87-38.8-17.42-105.93C282.88,215.15,335.6,152.67,287.26,118.13Z"/><polygon class="cls-1" points="289.48 114.92 295.46 125.21 287.46 133.91 276.36 118.98 289.48 114.92"/><path class="cls-2" d="M222.33,416.68s7.91.9,9.71,10.94c0,0-17.67,28.83-15,35.65,0,0-11.83,13.62-24.87-3.09C192.19,460.19,202.5,427.29,222.33,416.68Z"/><rect class="cls-3" width="400" height="800"/></svg>
