<svg id="step_4" data-name="step 4" xmlns="http://www.w3.org/2000/svg" xmlns:xlink="http://www.w3.org/1999/xlink" viewBox="0 0 1600 1600"><defs><style>.cls-1{fill:none;}.cls-2{fill:#ee736e;}.cls-3{fill:#b83e32;}.cls-4{fill:#b93d33;}.cls-5{fill:#ee746f;}.cls-6{opacity:0.38;}</style><symbol id="w1_v2" data-name="w1_v2" viewBox="0 0 400 800"><rect class="cls-1" width="400" height="800"/><path class="cls-2" d="M321.68,662.48c4.72,2.82-28.38,25.3-33.91,27.31,0,0-17.74,12.49-2.77,24.42l72.11-39.39-17.27-25.94Z"/><path class="cls-2" d="M228.33,476.28s31.09,66.93,34.81,73.39l80,103.49L325.57,668.9s-71.4-66.5-72.4-83.47c0,0-56.19-52.6-46.74-90.55Z"/><path class="cls-3" d="M120.19,679c5.75,2.87-32.54,10.27-58.37,13.7-6.71.89-3.47,8.73-3.35,11-3.18-3.55,64.44,6.63,82.59,2.66,0,0,4.54-18.11-1.28-21.19Z"/><path class="cls-3" d="M150.08,506c5.46,2.31-15.55,48.63-14.94,93.11l-20.63,85.86,26.5,5.83c8-3.46,44.39-192.51,47.44-194.15Z"/><path class="cls-3" d="M226.13,204.39s8.14,3.67,7.81,53.67c0,0-24.18,43.5-12.52,114.5l-55.27,7s-2-76.67-9-78.33c0,0-18.35-4.29-21.35-17.46s3.93-21.44,3.93-21.44S201.46,262.06,226.13,204.39Z"/><path class="cls-3" d="M215.76,369.47s25.68-7.09,28,63.57c0,0-.33,37,8,57.33,0,0-68.33,27.67-121.5,18.33,0,0,42.83-115,35.5-131.67Z"/><path class="cls-2" d="M124.54,400.16s9.52-2.56,13.8,4.84l42.11-66.5-17.06-21Z"/><path class="cls-2" d="M162.45,319.61l32.7-60.85s1.17-27.17,27.77-8.21l-39,82.36Z"/><circle class="cls-2" cx="170.1" cy="331.31" r="13.8"/><circle class="cls-2" cx="209.42" cy="251.09" r="14.87"/><path class="cls-3" d="M230.47,178.9c2.33.93-3.78,10.88-4.32,24.62,8.56,4.24-40.24,62.8-86.42,58.75,0,0,43.81-32.25,49.35-39,2.9-3.53,15.4-21.58,16.35-26l2.65-21.09Z"/><path class="cls-3" d="M185,125.11s-22.83,57.45-12,74,66.9-26.64,61.29-22.25c0,0-6.39-6.73-1.09-38.76C233.67,139.4,203.66,136.9,185,125.11Z"/><path class="cls-3" d="M235,102.94s-28.68-19.69-54.84,20.66c0,0,40.08,19.84,52.86,15.19C233,138.79,242.41,120.67,235,102.94Z"/><path class="cls-3" d="M238.32,199.61s58.43-15,36.59-65.75c0,0-9.84-28.71-39.88-30.92,2,4.56,2.6,18.17-2,35.85C228,158.35,233.08,187.22,238.32,199.61Z"/><path class="cls-3" d="M273,114.56s27.85-47.7,67.45,13.62c0,0,17,35.05-37,106.95,0,0-17.07,23.19-17.44,82.39,0,0-40.87-38.8-17.42-105.93C268.65,211.58,321.37,149.1,273,114.56Z"/><polygon class="cls-3" points="275.24 111.35 281.23 121.64 273.23 130.34 262.13 115.41 275.24 111.35"/><path class="cls-2" d="M136.78,389s6.87,4,4.47,13.92c0,0-27.78,19.27-28.07,26.6,0,0-16.31,7.7-21.52-12.85C91.67,416.65,114.36,390.7,136.78,389Z"/></symbol><symbol id="w2_v2" data-name="w2_v2" viewBox="0 0 400 800"><rect class="cls-1" width="400" height="800"/><path class="cls-3" d="M180.51,682.47c-3.5,9.12-37.61,14.21-50,10.6-6.52-1.9-3.08,9.83-2.86,12.32,0,0,63.09,18.41,75,6.21,0,0,3.73-20.25-2.22-23.35Z"/><path class="cls-3" d="M177.33,510.36s-12.67,52.23,5.21,97.87l-6.74,79.38,26.16.91s5-180,13.41-186Z"/><path class="cls-2" d="M273.8,692.17c7.39.47-26.21,13-40.77,15.26,0,0-20.76,6.28-10.31,22.31L313,709.86l-8.24-30Z"/><path class="cls-2" d="M244,481.51s-3,99-1.54,106.26l62.31,92L272.13,694c9.55-3.24-61.52-84.55-60.78-99.74,0,0-26.59-73.81-5.69-106.87Z"/><path class="cls-3" d="M240.77,210.53s8.14,3.67,7.81,53.67c0,0-24.18,43.5-12.52,114.5l-55.27,7s-2-76.67-9-78.33c0,0-18.35-4.29-21.35-17.46s3.93-21.44,3.93-21.44S216.09,268.2,240.77,210.53Z"/><path class="cls-3" d="M230.39,375.61s25.68-7.09,28,63.57c0,0-.33,37,8,57.33,0,0-68.33,27.67-121.5,18.33,0,0,42.83-115,35.5-131.67Z"/><path class="cls-2" d="M134.42,393.25s9.79-1.17,13,6.75l51.15-59.82L184.64,317Z"/><path class="cls-2" d="M172.7,330.71l35.64-66.33s1.27-29.61,30.27-8.95l-42.47,89.77Z"/><circle class="cls-2" cx="184.74" cy="337.45" r="13.8"/><circle class="cls-2" cx="222.71" cy="258.57" r="16.21"/><path class="cls-3" d="M245.11,185c2.33.93-3.78,10.88-4.32,24.62,8.56,4.24-40.24,62.8-86.42,58.75,0,0,43.81-32.25,49.35-39,2.9-3.53,15.4-21.58,16.35-26l2.65-21.09Z"/><path class="cls-3" d="M199.64,131.25s-22.83,57.45-12,74S254.58,178.62,249,183c0,0-6.39-6.73-1.09-38.76C248.3,145.54,218.3,143,199.64,131.25Z"/><path class="cls-3" d="M249.66,109.08S221,89.39,194.82,129.73c0,0,40.08,19.84,52.86,15.19C247.68,144.93,257.05,126.81,249.66,109.08Z"/><path class="cls-3" d="M253,205.75s67.93-20.2,46.09-70.91c0,0-19.34-23.56-49.38-25.77,2,4.56,2.6,18.17-2,35.85C242.62,164.48,247.72,193.36,253,205.75Z"/><path class="cls-3" d="M297.17,115.54s27.85-47.7,67.45,13.62c0,0,17,35.05-37,106.95,0,0-17.07,23.19-17.44,82.39,0,0-50.37-33.64-26.92-100.78C283.29,217.72,345.51,150.08,297.17,115.54Z"/><polygon class="cls-3" points="299.38 112.33 305.37 122.62 297.37 131.32 276.76 121.55 299.38 112.33"/><path class="cls-2" d="M136.2,389.73s7.53-2.57,13.45,5.74c0,0-3.64,33.61,1.71,38.63,0,0-4.86,17.37-23.8,7.85C127.56,441.94,122.82,407.8,136.2,389.73Z"/></symbol><symbol id="w3_v2" data-name="w3_v2" viewBox="0 0 400 800"><rect class="cls-1" width="400" height="800"/><path class="cls-3" d="M249.73,636.93c4.16,1.89-1.67,53.74-1.4,55.77,0,0-6,21.51,13,19.38l25.48-79-15.52-13.89Z"/><path class="cls-3" d="M196.9,465.4s16.75,61.52,19.33,68.51l59.56,89.34-26.06,13.68S196.15,573.42,198,556.52c0,0-44.84-53.65-29.18-89.5Z"/><path class="cls-2" d="M148.14,679.39c2.84,5.37-36.59,16.46-57.41,19.11-6.74.86-2.92,9.88-2.67,12.36,0,0,61.26,2.45,79.65-1.8-3.33-.49,2.89-21.72.36-24.2Z"/><path class="cls-2" d="M154.27,511.72s-14.79,51.67,1.21,98l-12.67,74.67L169.47,688s14.47-177,23.14-182.66Z"/><path class="cls-3" d="M226.15,207.39s8.14,3.67,7.81,53.67c0,0-24.18,43.5-12.52,114.5l-55.27,7s-2-76.67-9-78.33c0,0-18.35-4.29-21.35-17.46s3.93-21.44,3.93-21.44S201.48,265.07,226.15,207.39Z"/><path class="cls-3" d="M216.16,374.95s25.68-7.09,28,63.57c0,0-.33,37,8,57.33,0,0-68.33,27.67-121.5,18.33,0,0,42.83-115,35.5-131.67Z"/><path class="cls-2" d="M212.41,428.06s5.74-8,13.74-5l-9.62-78.12L190,339.52Z"/><path class="cls-2" d="M190,337.72l3.69-76.48s-1.44-35.9,27.56-15.24l-4.61,91.71Z"/><circle class="cls-2" cx="203.84" cy="339.52" r="13.8"/><circle class="cls-2" cx="208.1" cy="255.44" r="16.21"/><path class="cls-3" d="M230.49,181.9c2.33.93-3.78,10.88-4.32,24.62,9,4.82-39.82,63.3-86.42,58.75,0,0,43.81-32.25,49.35-39,2.9-3.53,15.4-21.58,16.35-26l2.65-21.09Z"/><path class="cls-3" d="M185,128.12s-22.83,57.45-12,74,66.9-26.64,61.29-22.25c0,0-6.39-6.73-1.09-38.76C233.69,142.41,203.68,139.9,185,128.12Z"/><path class="cls-3" d="M235,105.94s-28.68-19.69-54.84,20.66c0,0,40.08,19.84,52.86,15.19C233.07,141.79,242.44,123.67,235,105.94Z"/><path class="cls-3" d="M238.34,202.62s58.43-15,36.59-65.75c0,0-9.84-28.71-39.88-30.92,2,4.56,2.6,18.17-2,35.85C228,161.35,233.1,190.23,238.34,202.62Z"/><path class="cls-3" d="M273.05,117.56s27.85-47.7,67.45,13.62c0,0,17,35.05-37,106.95,0,0-17.07,23.19-17.44,82.39,0,0-40.87-38.8-17.42-105.93C268.67,214.58,321.39,152.11,273.05,117.56Z"/><polygon class="cls-3" points="275.26 114.36 281.25 124.64 273.25 133.34 262.15 118.42 275.26 114.36"/><path class="cls-2" d="M212.41,428.06s3.74-7,13.74-5c0,0,20.33,27,27.67,27,0,0,8.33,16-12,22C241.82,472.06,215,450.39,212.41,428.06Z"/></symbol><symbol id="w4_v2" data-name="w4_v2" viewBox="0 0 400 800"><rect class="cls-1" width="400" height="800"/><path class="cls-3" d="M327.57,678c.18,2.3-29.86,20.17-30.59,22,0,0-32.43,13.81-18.64,27.09L353,693l-8.27-17.69Z"/><path class="cls-3" d="M260.33,493.65s23.33,59.33,26.67,66L344.71,675.3l-16.23,5.28s-57.15-79.47-57.15-96.47c0,0-50.4-48.46-38.74-85.8Z"/><path class="cls-2" d="M102.92,684.74c-.87,5.46-42.9,8.8-60.4,3.61-6.51-1.93-5.38,8.79-5.77,11.25,0,0,66,27.7,80.48,18.75,0,0,8.55-18.73,3.53-23.18Z"/><path class="cls-2" d="M160,506.32S131.42,546.15,134.89,595L96.49,688.2l26.18,13.58C125.07,708,194,513.43,202,505.45Z"/><path class="cls-3" d="M246.36,206s8.14,3.67,7.81,53.67c0,0-24.18,43.5-12.52,114.5l-55.27,7s-2-76.67-9-78.33c0,0-18.35-4.29-21.35-17.46S160,263.85,160,263.85,221.69,263.64,246.36,206Z"/><path class="cls-3" d="M236.37,373.51s25.68-7.09,28,63.57c0,0-.33,37,8,57.33,0,0-68.33,27.67-121.5,18.33,0,0,42.83-115,35.5-131.67Z"/><path class="cls-2" d="M276.65,440.27s4.41-8.82,12.78-7.12L265,342.68l-26.15,6.16Z"/><path class="cls-2" d="M239.76,344.47,219,270.77s-12.75-33.6,21.31-23.19l21,89.69Z"/><circle class="cls-2" cx="251.19" cy="342.68" r="13.8"/><circle class="cls-2" cx="228.31" cy="254" r="16.21"/><path class="cls-3" d="M250.7,180.47c2.33.93-3.78,10.88-4.32,24.62,9,4.82-39.82,63.3-86.42,58.75,0,0,43.81-32.25,49.35-39,2.9-3.53,15.4-21.58,16.35-26l2.65-21.09Z"/><path class="cls-3" d="M205.23,126.68s-22.83,57.45-12,74,66.9-26.64,61.29-22.25c0,0-6.39-6.73-1.09-38.76C253.9,141,223.89,138.47,205.23,126.68Z"/><path class="cls-3" d="M255.26,104.51s-28.68-19.69-54.84,20.66c0,0,40.08,19.84,52.86,15.19C253.28,140.36,262.65,122.24,255.26,104.51Z"/><path class="cls-3" d="M258.55,201.18s58.43-15,36.59-65.75c0,0-9.84-28.71-39.88-30.92,2,4.56,2.6,18.17-2,35.85C248.21,159.92,253.31,188.8,258.55,201.18Z"/><path class="cls-3" d="M293.26,116.13s27.85-47.7,67.45,13.62c0,0,17,35.05-37,106.95,0,0-17.07,23.19-17.44,82.39,0,0-40.87-38.8-17.42-105.93C288.88,213.15,341.6,150.67,293.26,116.13Z"/><polygon class="cls-3" points="295.48 112.92 301.46 123.21 293.46 131.91 282.36 116.98 295.48 112.92"/><path class="cls-2" d="M275.72,436.51s3.74-7,13.74-5c0,0,20.33,27,27.67,27,0,0,8.33,16-12,22C305.13,480.51,278.31,458.84,275.72,436.51Z"/></symbol></defs><title>veninde</title><use id="w1_v2-3" data-name="w1_v2" width="400" height="800" transform="translate(1204.78 800)" xlink:href="#w1_v2"/><use id="w2_v2-3" data-name="w2_v2" width="400" height="800" transform="translate(795.33 794.14)" xlink:href="#w2_v2"/><use id="w3_v2-3" data-name="w3_v2" width="400" height="800" transform="translate(401.59 800)" xlink:href="#w3_v2"/><use id="w4_v2-3" data-name="w4_v2" width="400" height="800" transform="translate(0 800)" xlink:href="#w4_v2"/><path class="cls-4" d="M224.42,688.69c-.81,2.15-35.62,5.48-37,6.78,0,0-35.22-1.37-28.42,16.53l82,1.07.08-19.52Z"/><path class="cls-4" d="M242.41,493.26s-4.26,63.61-4.09,71.07l2.77,129.22-16.93-2.16s-17.71-96.27-10.45-111.64c0,0-24.86-65.35,1.63-94.12Z"/><path class="cls-5" d="M181.67,675.86c.69,5.49-38.76,20.4-57,20.28-6.79,0-2.72,9.94-2.41,12.41,0,0,71.11,8.23,82.52-4.39,0,0,3-20.37-3.06-23.25Z"/><path class="cls-5" d="M187,491s-24.48,43.11-21,92l18,102,21,2c1.26,3.24-13-49-9-101,3.81-49.59,49.23-90.76,53-94.55Z"/><path class="cls-4" d="M240.36,208s8.14,3.67,7.81,53.67c0,0-24.18,43.5-12.52,114.5l-55.27,7s-2-76.67-9-78.33c0,0-18.35-4.29-21.35-17.46S154,265.85,154,265.85,215.69,265.64,240.36,208Z"/><path class="cls-4" d="M230.37,375.51s25.68-7.09,28,63.57c0,0-.33,37,8,57.33,0,0-68.33,27.67-121.5,18.33,0,0,42.83-115,35.5-131.67Z"/><path class="cls-5" d="M215.53,424.67s9.25-3.39,14.18,3.59L274,345.67l-23.25-13.46Z"/><path class="cls-5" d="M253.82,343.1,217.7,275.59S198,245.53,233.52,248.36l39.8,83.07Z"/><circle class="cls-5" cx="263.19" cy="340.68" r="13.8"/><circle class="cls-5" cx="222.31" cy="256" r="16.21"/><path class="cls-4" d="M244.7,182.47c2.33.93-3.78,10.88-4.32,24.62,9,4.82-39.82,63.3-86.42,58.75,0,0,43.81-32.25,49.35-39,2.9-3.53,15.4-21.58,16.35-26l2.65-21.09Z"/><path class="cls-4" d="M199.23,128.68s-22.83,57.45-12,74,66.9-26.64,61.29-22.25c0,0-6.39-6.73-1.09-38.76C247.9,143,217.89,140.47,199.23,128.68Z"/><path class="cls-4" d="M249.26,106.51s-28.68-19.69-54.84,20.66c0,0,40.08,19.84,52.86,15.19C247.28,142.36,256.65,124.24,249.26,106.51Z"/><path class="cls-4" d="M252.55,203.18s58.43-15,36.59-65.75c0,0-9.84-28.71-39.88-30.92,2,4.56,2.6,18.17-2,35.85C242.21,161.92,247.31,190.8,252.55,203.18Z"/><path class="cls-4" d="M287.26,118.13s27.85-47.7,67.45,13.62c0,0,17,35.05-37,106.95,0,0-17.07,23.19-17.44,82.39,0,0-40.87-38.8-17.42-105.93C282.88,215.15,335.6,152.67,287.26,118.13Z"/><polygon class="cls-4" points="289.48 114.92 295.46 125.21 287.46 133.91 276.36 118.98 289.48 114.92"/><path class="cls-5" d="M222.33,416.68s7.91.9,9.71,10.94c0,0-17.67,28.83-15,35.65,0,0-11.83,13.62-24.87-3.09C192.19,460.19,202.5,427.29,222.33,416.68Z"/><rect class="cls-1" width="400" height="800"/></svg>
