<svg id="step_4" data-name="step 4" xmlns="http://www.w3.org/2000/svg" xmlns:xlink="http://www.w3.org/1999/xlink" viewBox="0 0 1600 800"><defs><style>.cls-1{fill:none;}.cls-2{fill:#b83e32;}</style><symbol id="w1_v2" data-name="w1_v2" viewBox="0 0 400 800"><rect class="cls-1" width="400" height="800"/><path class="cls-2" d="M305.26,670.2c4.19,3.55-32.14,20.32-37.92,21.4,0,0-19.54,9.42-6.73,23.64l77.58-27.08-12.8-28.41Z"/><path class="cls-2" d="M243.59,471.24s19.74,71.11,22.35,78.09l62,115.18L308,677.17S248.47,599.9,250.26,583c0,0-46.84-61.07-31.32-97Z"/><path class="cls-2" d="M156.15,684.16c5.84,2.94-32.2,12.71-57.9,17.57-6.68,1.26-3.19,9.79-3,12.28-3.29-3.79,64.62,4.66,82.64-.48,0,0,4-20.21-2-23.37Z"/><path class="cls-2" d="M154.82,509.83c5.78,1.34-7,50.58,1.22,94.29l-5.62,88.12,27.11,1.21C184.85,688.66,188.31,496.18,191,494Z"/><path class="cls-2" d="M226.13,204.39s8.14,3.66,7.81,53.66c0,0-24.18,43.51-12.52,114.51l-55.27,7s-2-76.67-9-78.34c0,0-18.35-4.29-21.35-17.46s3.93-21.44,3.93-21.44S201.46,262.06,226.13,204.39Z"/><path class="cls-2" d="M215.76,369.47s25.68-7.09,28,63.57c0,0-.33,37,8,57.34,0,0-68.32,27.66-121.49,18.33,0,0,42.83-115,35.49-131.67Z"/><path class="cls-2" d="M120.36,378.21s9.83-.75,12.67,7.31L186.71,328l-12.88-23.77Z"/><path class="cls-2" d="M158.06,324.57l35.65-66.33S195,228.63,224,249.3l-42.47,89.77Z"/><circle class="cls-2" cx="170.1" cy="331.31" r="13.8"/><circle class="cls-2" cx="208.08" cy="252.43" r="16.21"/><path class="cls-2" d="M230.47,178.9c2.33.93-3.78,10.89-4.33,24.63,8.57,4.24-40.23,62.79-86.41,58.75,0,0,43.81-32.26,49.35-39,2.9-3.52,15.4-21.58,16.35-26l2.65-21.09Z"/><path class="cls-2" d="M185,125.11s-22.83,57.45-12,74,66.9-26.64,61.28-22.25c0,0-6.39-6.72-1.08-38.75C233.67,139.4,203.66,136.9,185,125.11Z"/><path class="cls-2" d="M235,102.94s-28.67-19.69-54.83,20.66c0,0,40.07,19.84,52.86,15.19C233.05,138.79,242.41,120.67,235,102.94Z"/><path class="cls-2" d="M238.32,199.61s58.43-15,36.59-65.75c0,0-9.84-28.71-39.89-30.92,2,4.56,2.6,18.17-2,35.85C228,158.35,233.08,187.22,238.32,199.61Z"/><path class="cls-2" d="M273,114.56s27.85-47.71,67.46,13.62c0,0,17,35-37,106.94,0,0-17.07,23.19-17.43,82.39,0,0-40.88-38.8-17.42-105.93C268.65,211.58,321.37,149.1,273,114.56Z"/><polygon class="cls-2" points="275.24 111.35 281.23 121.64 273.23 130.34 262.13 115.41 275.24 111.35"/><path class="cls-2" d="M124.15,372.73s8,0,10.89,9.76c0,0-14.25,30.66-10.79,37.13,0,0-10.19,14.89-25.06-.22C99.19,419.4,105.67,385.54,124.15,372.73Z"/></symbol><symbol id="w2_v2" data-name="w2_v2" viewBox="0 0 400 800"><rect class="cls-1" width="400" height="800"/><path class="cls-2" d="M278.82,686.31c7.4.47-26.21,13-40.77,15.27,0,0-20.77,6.27-10.31,22.31L318.07,704l-8.23-30Z"/><path class="cls-2" d="M249.07,475.66s8.47,73.31,10,80.61L309.84,674,277.2,688.18c9.55-3.24-39.61-85.9-38.87-101.09,0,0-36.33-72.76-15.43-105.82Z"/><path class="cls-2" d="M97.9,672.38c-5.92,7.77-40.09,3.1-51-3.85-5.73-3.65-5.71,8.57-6.2,11,0,0,55.4,35.36,70.2,27,0,0,9.26-18.39,4.42-23Z"/><path class="cls-2" d="M143.09,506.28s-26.8,46.58-22.43,95.41L91.94,676l24.85,8.21s55.26-171.41,65-174.82Z"/><path class="cls-2" d="M232.91,204.67s8.14,3.67,7.8,53.67c0,0-24.18,43.5-12.51,114.5l-55.27,7s-2-76.67-9-78.34c0,0-18.36-4.29-21.36-17.46s3.93-21.44,3.93-21.44S208.23,262.35,232.91,204.67Z"/><path class="cls-2" d="M222.53,369.75s25.68-7.09,28,63.58c0,0-.34,37,8,57.33,0,0-68.33,27.67-121.5,18.33,0,0,42.83-115,35.5-131.66Z"/><path class="cls-2" d="M126.55,387.39s9.79-1.17,13,6.75l51.15-59.82-13.9-23.2Z"/><path class="cls-2" d="M164.84,324.85l35.64-66.32s1.28-29.62,30.28-8.95l-42.47,89.77Z"/><circle class="cls-2" cx="176.88" cy="331.59" r="13.8"/><circle class="cls-2" cx="214.85" cy="252.71" r="16.21"/><path class="cls-2" d="M237.24,179.18c2.34.93-3.78,10.89-4.32,24.63,8.56,4.24-40.24,62.79-86.42,58.75,0,0,43.81-32.26,49.36-39,2.89-3.53,15.4-21.58,16.34-26l2.65-21.1Z"/><path class="cls-2" d="M191.78,125.39s-22.84,57.45-12,74,66.9-26.64,61.29-22.25c0,0-6.39-6.73-1.09-38.76C240.44,139.69,210.43,137.18,191.78,125.39Z"/><path class="cls-2" d="M241.8,103.22S213.12,83.53,187,123.88c0,0,40.08,19.84,52.86,15.19C239.82,139.07,249.19,121,241.8,103.22Z"/><path class="cls-2" d="M245.1,199.89S313,179.7,291.18,129c0,0-19.33-23.56-49.38-25.77,2,4.56,2.6,18.18-2,35.85C234.76,158.63,239.85,187.51,245.1,199.89Z"/><path class="cls-2" d="M289.31,109.68S317.16,62,356.76,123.3c0,0,17,35.06-37,107,0,0-17.07,23.19-17.44,82.39,0,0-50.37-33.65-26.91-100.78C275.43,211.86,337.64,144.23,289.31,109.68Z"/><polygon class="cls-2" points="291.52 106.48 297.5 116.76 289.5 125.46 268.9 115.69 291.52 106.48"/><path class="cls-2" d="M128.33,383.87s7.54-2.57,13.46,5.74c0,0-3.64,33.61,1.71,38.63,0,0-4.86,17.37-23.8,7.84C119.7,436.08,115,401.94,128.33,383.87Z"/></symbol><symbol id="w3_v2" data-name="w3_v2" viewBox="0 0 400 800"><rect class="cls-1" width="400" height="800"/><path class="cls-2" d="M249.73,636.93c4.16,1.9-1.67,53.75-1.4,55.77,0,0-6,21.52,13,19.39l25.48-79-15.51-13.89Z"/><path class="cls-2" d="M196.9,465.4s16.75,61.52,19.33,68.51l59.56,89.34-26.06,13.68S196.15,573.42,198,556.52c0,0-44.84-53.65-29.18-89.49Z"/><path class="cls-2" d="M148.14,679.39c2.84,5.37-36.59,16.46-57.41,19.11-6.74.85-2.93,9.87-2.67,12.36,0,0,61.26,2.45,79.65-1.8-3.33-.5,2.9-21.72.36-24.2Z"/><path class="cls-2" d="M154.27,511.72s-14.78,51.67,1.22,98l-12.67,74.67,26.65,3.66s14.47-177,23.14-182.66Z"/><path class="cls-2" d="M226.15,207.39s8.14,3.67,7.81,53.67c0,0-24.18,43.5-12.52,114.5l-55.27,7s-2-76.67-9-78.33c0,0-18.35-4.29-21.35-17.47s3.93-21.44,3.93-21.44S201.48,265.07,226.15,207.39Z"/><path class="cls-2" d="M216.16,375s25.68-7.1,28,63.57c0,0-.33,37,8,57.33,0,0-68.32,27.67-121.49,18.34,0,0,42.83-115,35.49-131.67Z"/><path class="cls-2" d="M212.41,428.06s5.74-8,13.74-5l-9.61-78.11L190,339.52Z"/><path class="cls-2" d="M190,337.72l3.69-76.47s-1.44-35.91,27.56-15.24l-4.62,91.71Z"/><circle class="cls-2" cx="203.84" cy="339.52" r="13.8"/><circle class="cls-2" cx="208.1" cy="255.44" r="16.21"/><path class="cls-2" d="M230.49,181.9c2.33.93-3.78,10.89-4.33,24.63,9.05,4.82-39.81,63.3-86.41,58.75,0,0,43.81-32.25,49.35-39,2.9-3.53,15.4-21.58,16.35-26l2.65-21.09Z"/><path class="cls-2" d="M185,128.12s-22.83,57.44-12,74,66.9-26.64,61.29-22.25c0,0-6.39-6.73-1.09-38.76C233.69,142.41,203.68,139.9,185,128.12Z"/><path class="cls-2" d="M235.05,105.94s-28.68-19.68-54.84,20.66c0,0,40.07,19.84,52.86,15.19C233.07,141.79,242.44,123.67,235.05,105.94Z"/><path class="cls-2" d="M238.34,202.62s58.43-15.05,36.59-65.75c0,0-9.84-28.72-39.88-30.93,2,4.56,2.59,18.18-2,35.85C228,161.35,233.1,190.23,238.34,202.62Z"/><path class="cls-2" d="M273.05,117.56s27.86-47.7,67.46,13.62c0,0,17,35.06-37,107,0,0-17.07,23.18-17.44,82.39,0,0-40.87-38.8-17.42-105.94C268.67,214.58,321.39,152.11,273.05,117.56Z"/><polygon class="cls-2" points="275.26 114.36 281.25 124.64 273.25 133.34 262.15 118.42 275.26 114.36"/><path class="cls-2" d="M212.41,428.06s3.74-7,13.74-5c0,0,20.34,27,27.67,27,0,0,8.33,16-12,22C241.82,472.06,215,450.39,212.41,428.06Z"/></symbol><symbol id="w4_v2" data-name="w4_v2" viewBox="0 0 400 800"><rect class="cls-1" width="400" height="800"/><path class="cls-2" d="M327.57,678c.18,2.29-29.86,20.17-30.59,22,0,0-32.43,13.81-18.64,27.09L353,693l-8.27-17.68Z"/><path class="cls-2" d="M260.33,493.65s23.33,59.33,26.67,66L344.71,675.3l-16.23,5.28s-57.15-79.47-57.15-96.47c0,0-50.4-48.46-38.74-85.79Z"/><path class="cls-2" d="M102.92,684.74c-.87,5.46-42.9,8.81-60.4,3.62-6.51-1.93-5.37,8.78-5.77,11.25,0,0,66,27.7,80.48,18.75,0,0,8.55-18.73,3.53-23.18Z"/><path class="cls-2" d="M160,506.32s-28.54,39.83-25.07,88.73L96.49,688.2l26.18,13.58C125.07,708,194,513.43,202,505.45Z"/><path class="cls-2" d="M246.36,206s8.14,3.67,7.81,53.67c0,0-24.18,43.5-12.52,114.5l-55.27,7s-2-76.67-9-78.34c0,0-18.35-4.29-21.35-17.46S160,263.85,160,263.85,221.69,263.64,246.36,206Z"/><path class="cls-2" d="M236.37,373.51s25.68-7.09,28,63.58c0,0-.33,37,8,57.33,0,0-68.32,27.67-121.49,18.33,0,0,42.83-115,35.49-131.66Z"/><path class="cls-2" d="M276.65,440.27s4.4-8.82,12.78-7.12L265,342.68l-26.15,6.15Z"/><path class="cls-2" d="M239.76,344.47,219,270.77s-12.75-33.6,21.31-23.19l21,89.69Z"/><circle class="cls-2" cx="251.19" cy="342.68" r="13.8"/><circle class="cls-2" cx="228.31" cy="254" r="16.21"/><path class="cls-2" d="M250.7,180.47c2.33.93-3.78,10.89-4.33,24.63,9,4.82-39.81,63.3-86.41,58.75,0,0,43.81-32.26,49.35-39,2.9-3.53,15.4-21.58,16.35-26l2.65-21.1Z"/><path class="cls-2" d="M205.23,126.68s-22.83,57.45-12,74,66.9-26.64,61.29-22.25c0,0-6.39-6.73-1.09-38.76C253.9,141,223.89,138.47,205.23,126.68Z"/><path class="cls-2" d="M255.26,104.51s-28.68-19.69-54.84,20.66c0,0,40.07,19.84,52.86,15.19C253.28,140.36,262.65,122.24,255.26,104.51Z"/><path class="cls-2" d="M258.55,201.18s58.43-15,36.59-65.75c0,0-9.84-28.71-39.88-30.92,2,4.56,2.59,18.18-2,35.85C248.21,159.92,253.31,188.8,258.55,201.18Z"/><path class="cls-2" d="M293.26,116.13s27.86-47.71,67.46,13.62c0,0,17,35.05-37,107,0,0-17.07,23.18-17.44,82.38,0,0-40.87-38.8-17.42-105.93C288.88,213.15,341.6,150.67,293.26,116.13Z"/><polygon class="cls-2" points="295.48 112.92 301.46 123.21 293.46 131.91 282.36 116.98 295.48 112.92"/><path class="cls-2" d="M275.72,436.51s3.74-7,13.74-5c0,0,20.33,27,27.67,27,0,0,8.33,16-12,22C305.13,480.51,278.31,458.84,275.72,436.51Z"/></symbol></defs><title>veninde</title><use width="400" height="800" transform="translate(1202.8)" xlink:href="#w1_v2"/><use width="400" height="800" transform="translate(801.2)" xlink:href="#w2_v2"/><use width="400" height="800" transform="translate(399.61)" xlink:href="#w3_v2"/><use width="400" height="800" transform="translate(-1.99)" xlink:href="#w4_v2"/></svg>
