<svg xmlns="http://www.w3.org/2000/svg" xmlns:xlink="http://www.w3.org/1999/xlink" viewBox="0 0 1600 800"><defs><style>.cls-1{fill:none;}.cls-2{fill:#9a5c8a;}.cls-3{fill:#995c8a;}</style><symbol id="w1" data-name="w1" viewBox="0 0 400 800"><rect class="cls-1" width="400" height="800"/><path class="cls-2" d="M308,668.65c4.2,3.56-32.13,20.32-37.91,21.4,0,0-19.54,9.42-6.73,23.64L341,686.61l-12.8-28.41Z"/><path class="cls-2" d="M246.37,469.69s19.73,71.12,22.35,78.1l62,115.17-19.91,12.66S251.25,598.35,253,581.44c0,0-46.84-61.07-31.31-97Z"/><path class="cls-2" d="M158.92,682.62c5.84,2.94-32.19,12.7-57.9,17.56-6.67,1.27-3.18,9.8-3,12.29-3.3-3.79,64.62,4.65,82.63-.49,0,0,4-20.21-2-23.37Z"/><path class="cls-2" d="M157.6,508.28c5.77,1.34-7,50.58,1.22,94.3L153.2,690.7l27.11,1.21c7.32-4.79,10.77-197.27,13.49-199.41Z"/><path class="cls-2" d="M228.91,202.84s8.14,3.67,7.81,53.67c0,0-24.19,43.5-12.52,114.5l-55.27,7s-2-76.67-9-78.33c0,0-18.36-4.29-21.36-17.47s3.93-21.44,3.93-21.44S204.23,260.52,228.91,202.84Z"/><path class="cls-2" d="M218.53,367.92s25.68-7.09,28,63.58c0,0-.34,37,8,57.33,0,0-68.33,27.67-121.5,18.33,0,0,42.83-115,35.5-131.66Z"/><path class="cls-2" d="M123.14,376.66s9.82-.75,12.67,7.31l53.68-57.56L176.6,302.63Z"/><path class="cls-2" d="M160.84,323l35.64-66.33s1.28-29.62,30.28-8.95l-42.47,89.78Z"/><circle class="cls-2" cx="172.88" cy="329.76" r="13.8"/><circle class="cls-2" cx="210.85" cy="250.89" r="16.21"/><path class="cls-2" d="M233.24,177.36c2.34.92-3.77,10.88-4.32,24.62,8.56,4.24-40.24,62.8-86.42,58.75,0,0,43.82-32.25,49.36-39,2.89-3.53,15.4-21.58,16.34-26l2.65-21.09Z"/><path class="cls-2" d="M187.78,123.57s-22.84,57.44-12,74,66.91-26.64,61.29-22.25c0,0-6.39-6.73-1.09-38.76C236.44,137.86,206.44,135.35,187.78,123.57Z"/><path class="cls-2" d="M237.8,101.39S209.12,81.71,183,122.05c0,0,40.08,19.84,52.86,15.19C235.82,137.24,245.19,119.13,237.8,101.39Z"/><path class="cls-2" d="M241.1,198.07s58.43-15,36.58-65.75c0,0-9.83-28.72-39.88-30.93,2,4.56,2.6,18.18-2,35.85C230.76,156.8,235.85,185.68,241.1,198.07Z"/><path class="cls-2" d="M275.81,113s27.85-47.7,67.45,13.62c0,0,17,35.06-37,107,0,0-17.07,23.19-17.44,82.39,0,0-40.87-38.8-17.41-105.94C271.43,210,324.15,147.56,275.81,113Z"/><polygon class="cls-2" points="278.02 109.81 284.01 120.09 276.01 128.79 264.9 113.86 278.02 109.81"/><path class="cls-2" d="M126.93,371.18s8,0,10.89,9.76c0,0-14.25,30.66-10.8,37.13,0,0-10.19,14.89-25.06-.22C102,417.85,108.45,384,126.93,371.18Z"/></symbol><symbol id="w2" data-name="w2" viewBox="0 0 400 800"><rect class="cls-1" width="400" height="800"/><path class="cls-2" d="M283.7,682.83c7.4.47-26.21,13-40.77,15.27,0,0-20.77,6.28-10.31,22.31L323,700.53l-8.23-30Z"/><path class="cls-2" d="M254,472.18s8.47,73.31,10,80.61l50.8,117.69-32.64,14.23c9.55-3.24-39.61-85.91-38.87-101.1,0,0-36.33-72.76-15.43-105.82Z"/><path class="cls-2" d="M102.78,668.9c-5.92,7.77-40.09,3.1-51-3.85-5.73-3.65-5.71,8.57-6.2,11,0,0,55.4,35.36,70.2,27,0,0,9.27-18.39,4.42-23Z"/><path class="cls-2" d="M148,502.81s-26.81,46.58-22.44,95.4l-28.72,74.3,24.85,8.21s55.26-171.41,65-174.82Z"/><path class="cls-2" d="M237.79,201.19s8.14,3.67,7.81,53.67c0,0-24.19,43.5-12.52,114.5l-55.27,7s-2-76.67-9-78.33c0,0-18.36-4.29-21.36-17.46s3.93-21.45,3.93-21.45S213.11,258.87,237.79,201.19Z"/><path class="cls-2" d="M227.41,366.28s25.68-7.1,28,63.57c0,0-.34,37,8,57.33,0,0-68.33,27.67-121.5,18.34,0,0,42.83-115,35.5-131.67Z"/><path class="cls-2" d="M131.44,383.91s9.78-1.17,13,6.76l51.15-59.83-13.9-23.19Z"/><path class="cls-2" d="M169.72,321.38l35.64-66.33s1.28-29.61,30.28-9l-42.47,89.78Z"/><circle class="cls-2" cx="181.76" cy="328.12" r="13.8"/><circle class="cls-2" cx="219.73" cy="249.24" r="16.21"/><path class="cls-2" d="M242.12,175.71c2.34.93-3.78,10.88-4.32,24.62,8.56,4.24-40.24,62.8-86.42,58.75,0,0,43.81-32.25,49.36-39,2.89-3.53,15.4-21.58,16.34-26L219.73,173Z"/><path class="cls-2" d="M196.66,121.92s-22.84,57.45-12,74,66.9-26.64,61.29-22.25c0,0-6.39-6.73-1.09-38.76C245.32,136.21,215.32,133.7,196.66,121.92Z"/><path class="cls-2" d="M246.68,99.75S218,80.06,191.84,120.4c0,0,40.08,19.84,52.86,15.19C244.7,135.59,254.07,117.48,246.68,99.75Z"/><path class="cls-2" d="M250,196.42s67.93-20.2,46.08-70.91c0,0-19.33-23.56-49.38-25.76,2,4.56,2.6,18.17-2,35.84C239.64,155.15,244.73,184,250,196.42Z"/><path class="cls-2" d="M294.19,106.21S322,58.5,361.64,119.83c0,0,17,35.05-37,106.94,0,0-17.07,23.19-17.44,82.39,0,0-50.37-33.64-26.91-100.77C280.31,208.39,342.53,140.75,294.19,106.21Z"/><polygon class="cls-2" points="296.4 103 302.38 113.28 294.38 121.99 273.78 112.22 296.4 103"/><path class="cls-2" d="M136.21,381.69s7.54-2.57,13.46,5.74c0,0-3.64,33.61,1.71,38.63,0,0-4.86,17.37-23.8,7.84C127.58,433.9,122.83,399.76,136.21,381.69Z"/></symbol><symbol id="w3" data-name="w3" viewBox="0 0 400 800"><rect class="cls-1" width="400" height="800"/><path class="cls-2" d="M246,630.87c4.16,1.9-1.67,53.75-1.4,55.77,0,0-6,21.52,13,19.39l25.48-79-15.52-13.89Z"/><path class="cls-2" d="M193.18,459.34s16.74,61.52,19.33,68.51l59.56,89.34L246,630.87s-53.58-63.51-51.73-80.41c0,0-44.84-53.65-29.18-89.49Z"/><path class="cls-2" d="M144.41,673.33c2.84,5.37-36.59,16.46-57.41,19.11-6.73.85-2.92,9.87-2.66,12.36,0,0,61.26,2.45,79.65-1.8-3.33-.5,2.89-21.72.36-24.2Z"/><path class="cls-2" d="M150.55,505.66s-14.79,51.67,1.21,98L139.1,678.33,165.75,682s14.47-177,23.13-182.66Z"/><path class="cls-2" d="M222.43,201.33s8.14,3.67,7.81,53.67c0,0-24.18,43.5-12.52,114.5l-55.27,7s-2-76.67-9-78.33c0,0-18.35-4.29-21.35-17.47S136,259.22,136,259.22,197.76,259,222.43,201.33Z"/><path class="cls-2" d="M212.44,368.89s25.68-7.1,28,63.57c0,0-.33,37,8,57.33,0,0-68.33,27.67-121.5,18.34,0,0,42.83-115,35.5-131.67Z"/><path class="cls-2" d="M208.69,422s5.74-8,13.74-5l-9.61-78.12-26.5-5.41Z"/><path class="cls-2" d="M186.32,331.66,190,255.19s-1.45-35.91,27.55-15.24L213,331.66Z"/><circle class="cls-2" cx="200.12" cy="333.46" r="13.8"/><circle class="cls-2" cx="204.38" cy="249.38" r="16.21"/><path class="cls-2" d="M226.77,175.85c2.33.93-3.78,10.88-4.33,24.62,9.05,4.82-39.81,63.3-86.41,58.75,0,0,43.81-32.25,49.35-39,2.9-3.53,15.4-21.58,16.35-26l2.65-21.09Z"/><path class="cls-2" d="M181.3,122.06s-22.83,57.44-12,74,66.9-26.64,61.28-22.25c0,0-6.39-6.73-1.08-38.76C230,136.35,200,133.84,181.3,122.06Z"/><path class="cls-2" d="M231.32,99.88s-28.67-19.68-54.84,20.66c0,0,40.08,19.84,52.86,15.19C229.34,135.73,238.71,117.62,231.32,99.88Z"/><path class="cls-2" d="M234.62,196.56s58.43-15,36.59-65.75c0,0-9.84-28.72-39.89-30.93,2,4.56,2.6,18.18-2,35.85C224.28,155.29,229.38,184.17,234.62,196.56Z"/><path class="cls-2" d="M269.33,111.5s27.85-47.7,67.45,13.62c0,0,17,35.06-37,107,0,0-17.07,23.19-17.43,82.39,0,0-40.88-38.8-17.42-105.94C265,208.52,317.67,146.05,269.33,111.5Z"/><polygon class="cls-2" points="271.54 108.3 277.53 118.58 269.53 127.28 258.43 112.36 271.54 108.3"/><path class="cls-2" d="M208.69,422s3.74-7,13.74-5c0,0,20.33,27,27.67,27,0,0,8.33,16-12,22C238.1,466,211.28,444.33,208.69,422Z"/></symbol><symbol id="w4" data-name="w4" viewBox="0 0 400 800"><rect class="cls-1" width="400" height="800"/><path class="cls-2" d="M316.23,674.3c.19,2.3-29.86,20.17-30.59,22,0,0-32.43,13.81-18.64,27.09l74.64-34.09-8.27-17.68Z"/><path class="cls-2" d="M249,489.93s23.34,59.33,26.67,66l57.71,115.65-16.23,5.28S260,597.39,260,580.39c0,0-50.4-48.46-38.73-85.8Z"/><path class="cls-2" d="M91.58,681c-.86,5.46-42.9,8.8-60.39,3.61-6.52-1.93-5.38,8.79-5.78,11.26,0,0,66,27.69,80.49,18.75,0,0,8.55-18.74,3.53-23.19Z"/><path class="cls-2" d="M148.62,502.59s-28.54,39.84-25.06,88.73L85.15,684.47l26.19,13.58c2.4,6.18,71.36-188.35,79.35-196.33Z"/><path class="cls-3" d="M235,202.23s8.14,3.67,7.8,53.67c0,0-24.18,43.51-12.51,114.51l-55.27,6.95s-2-76.66-9-78.33c0,0-18.36-4.29-21.36-17.46s3.93-21.45,3.93-21.45S210.35,259.91,235,202.23Z"/><path class="cls-2" d="M225,369.79s25.68-7.09,28,63.57c0,0-.34,37,8,57.34,0,0-68.33,27.66-121.5,18.33,0,0,42.83-115,35.5-131.67Z"/><path class="cls-2" d="M265.31,436.54s4.41-8.81,12.78-7.11L253.65,339l-26.14,6.16Z"/><path class="cls-2" d="M228.42,340.74,207.68,267s-12.75-33.6,21.31-23.18l21,89.68Z"/><circle class="cls-2" cx="239.85" cy="338.95" r="13.8"/><circle class="cls-2" cx="216.97" cy="250.28" r="16.21"/><path class="cls-2" d="M239.36,176.75c2.34.93-3.78,10.88-4.32,24.62,9,4.83-39.82,63.31-86.42,58.75,0,0,43.81-32.25,49.36-39,2.89-3.53,15.4-21.58,16.34-26L217,174Z"/><path class="cls-2" d="M193.9,123s-22.84,57.45-12,74,66.9-26.64,61.29-22.25c0,0-6.39-6.73-1.09-38.76C242.56,137.25,212.55,134.75,193.9,123Z"/><path class="cls-2" d="M243.92,100.79s-28.68-19.69-54.84,20.65c0,0,40.08,19.85,52.86,15.2C241.94,136.64,251.31,118.52,243.92,100.79Z"/><path class="cls-2" d="M247.22,197.46s58.42-15,36.58-65.75c0,0-9.83-28.71-39.88-30.92,2,4.56,2.59,18.17-2,35.85C236.88,156.19,242,185.07,247.22,197.46Z"/><path class="cls-2" d="M281.93,112.41S309.78,64.7,349.38,126c0,0,17,35.05-37,106.94,0,0-17.07,23.19-17.44,82.39,0,0-40.87-38.8-17.41-105.93C277.55,209.43,330.26,147,281.93,112.41Z"/><polygon class="cls-2" points="284.14 109.2 290.12 119.48 282.12 128.19 271.02 113.26 284.14 109.2"/><path class="cls-2" d="M264.38,432.78s3.74-7,13.74-5c0,0,20.34,27,27.67,27,0,0,8.33,16-12,22C293.79,476.78,267,455.11,264.38,432.78Z"/></symbol></defs><title>veninde</title><g id="step_1" data-name="step 1"><use width="400" height="800" transform="translate(1197.71)" xlink:href="#w1"/><use width="400" height="800" transform="translate(798.82)" xlink:href="#w2"/><use width="400" height="800" transform="translate(399.93)" xlink:href="#w3"/><use width="400" height="800" transform="translate(1.04)" xlink:href="#w4"/></g></svg>
