<svg xmlns="http://www.w3.org/2000/svg" xmlns:xlink="http://www.w3.org/1999/xlink" viewBox="0 0 1600 1600"><defs><style>.cls-1{fill:none;}.cls-2{fill:#c887ba;}.cls-3{fill:#9a5c8a;}.cls-4{fill:#995c8a;}.cls-5{fill:#9a5d8b;}.cls-6{fill:#c787b9;}.cls-7{fill:#9a5d8a;}.cls-8{opacity:0.38;}</style><symbol id="w1" data-name="w1" viewBox="0 0 400 800"><rect class="cls-1" width="400" height="800"/><path class="cls-2" d="M326.76,659.23c4.7,2.86-28.59,25.05-34.14,27,0,0-17.84,12.33-3,24.4l72.44-38.77-17-26.08Z"/><path class="cls-2" d="M235,472.23s30.51,67.2,34.18,73.69L348.3,650.09l-17.71,15.59s-70.82-67.11-71.68-84.09c0,0-55.74-53.08-46-91Z"/><path class="cls-3" d="M134.3,674.1c5.93,2.74-31.76,13.76-57.28,19.48-6.63,1.48-2.86,9.9-2.59,12.38-3.42-3.68,64.74,2.5,82.57-3.23,0,0,3.29-20.33-2.73-23.29Z"/><path class="cls-3" d="M155.92,503.88c5.58,2-13,49.39-10,93.77l-16.07,86.83,26.77,4.42c7.84-3.88,34.18-194.58,37.13-196.39Z"/><path class="cls-3" d="M228.91,202.84s8.14,3.67,7.81,53.67c0,0-24.18,43.5-12.52,114.5l-55.27,7s-2-76.67-9-78.33c0,0-18.35-4.29-21.35-17.46s3.93-21.44,3.93-21.44S204.23,260.52,228.91,202.84Z"/><path class="cls-3" d="M218.53,367.92s25.68-7.09,28,63.57c0,0-.33,37,8,57.33,0,0-68.33,27.67-121.5,18.33,0,0,42.83-115,35.5-131.67Z"/><path class="cls-2" d="M127.49,387.11s9.67-1.92,13.45,5.74l46.39-63.58L171.7,307.2Z"/><path class="cls-2" d="M160.84,323l35.64-66.33s1.27-29.61,30.27-8.95l-42.47,89.77Z"/><circle class="cls-2" cx="172.88" cy="329.76" r="13.8"/><circle class="cls-2" cx="210.85" cy="250.89" r="16.21"/><path class="cls-3" d="M233.24,177.36c2.33.93-3.78,10.88-4.32,24.62,8.56,4.24-40.24,62.8-86.42,58.75,0,0,43.81-32.25,49.35-39,2.9-3.53,15.4-21.58,16.35-26l2.65-21.09Z"/><path class="cls-3" d="M187.78,123.57s-22.83,57.45-12,74,66.9-26.64,61.29-22.25c0,0-6.39-6.73-1.09-38.76C236.44,137.86,206.44,135.35,187.78,123.57Z"/><path class="cls-3" d="M237.8,101.39S209.12,81.71,183,122c0,0,40.08,19.84,52.86,15.19C235.82,137.24,245.19,119.13,237.8,101.39Z"/><path class="cls-3" d="M241.1,198.07s58.43-15,36.59-65.75c0,0-9.84-28.71-39.88-30.92,2,4.56,2.6,18.17-2,35.85C230.76,156.8,235.85,185.68,241.1,198.07Z"/><path class="cls-3" d="M275.81,113s27.85-47.7,67.45,13.62c0,0,17,35.05-37,106.95,0,0-17.07,23.19-17.44,82.39,0,0-40.87-38.8-17.42-105.93C271.43,210,324.15,147.56,275.81,113Z"/><polygon class="cls-3" points="278.02 109.81 284.01 120.09 276.01 128.79 264.9 113.86 278.02 109.81"/><path class="cls-2" d="M136.13,379.45s6.75,4.22,4,14.05c0,0-28.36,18.41-28.87,25.73,0,0-16.54,7.2-21.11-13.5C90.2,405.74,113.67,380.49,136.13,379.45Z"/></symbol><symbol id="w2" data-name="w2" viewBox="0 0 400 800"><rect class="cls-1" width="400" height="800"/><path class="cls-3" d="M204.11,665.7C201.9,675.21,168.83,685,156,683.1c-6.72-1-1.69,10.16-1.13,12.59,0,0,65,9.52,75.09-4.19,0,0,.9-20.57-5.42-22.82Z"/><path class="cls-3" d="M177.22,495.68s-5.34,53.47,18.66,96.21l4.28,79.55,26-2.71s-19.9-179-12.39-186.12Z"/><path class="cls-2" d="M284.82,658c7.4-.37-24.58,15.85-38.8,19.76,0,0-19.93,8.57-7.73,23.33L311.58,676a7.66,7.66,0,0,0,4.19-11l-10.09-17.83Z"/><path class="cls-2" d="M232.46,453.51s10.65,111.07,13,118.16l61.17,77-22.27,12.86c9.13-4.29-66.22-68.2-67.2-83.38,0,0-27.09-80.92-10-116.12Z"/><path class="cls-3" d="M241.63,200.91s8.14,3.67,7.81,53.67c0,0-24.18,43.5-12.52,114.5l-55.27,7s-2-76.67-9-78.33c0,0-18.35-4.29-21.35-17.46s3.93-21.44,3.93-21.44S217,258.58,241.63,200.91Z"/><path class="cls-3" d="M231.26,366s25.68-7.09,28,63.57c0,0-.33,37,8,57.33,0,0-68.33,27.67-121.5,18.33,0,0,42.83-115,35.5-131.67Z"/><path class="cls-2" d="M135.28,383.63s9.79-1.17,13,6.75l51.15-59.82-13.9-23.2Z"/><path class="cls-2" d="M173.57,321.09l35.64-66.33s1.27-29.61,30.27-8.95L197,335.59Z"/><circle class="cls-2" cx="185.61" cy="327.83" r="13.8"/><circle class="cls-2" cx="223.58" cy="248.95" r="16.21"/><path class="cls-3" d="M246,175.42c2.33.93-3.78,10.88-4.32,24.62,8.56,4.24-40.24,62.8-86.42,58.75,0,0,43.81-32.25,49.35-39,2.9-3.53,15.4-21.58,16.35-26l2.65-21.09Z"/><path class="cls-3" d="M200.51,121.63s-22.83,57.45-12,74,66.9-26.64,61.29-22.25c0,0-6.39-6.73-1.09-38.76C249.17,135.92,219.16,133.42,200.51,121.63Z"/><path class="cls-3" d="M250.53,99.46s-28.68-19.69-54.84,20.66c0,0,40.08,19.84,52.86,15.19C248.55,135.31,257.92,117.19,250.53,99.46Z"/><path class="cls-3" d="M253.82,196.13s67.93-20.2,46.09-70.91c0,0-19.34-23.56-49.38-25.77,2,4.56,2.6,18.17-2,35.85C243.48,154.87,248.58,183.74,253.82,196.13Z"/><path class="cls-3" d="M298,105.92s27.85-47.7,67.45,13.62c0,0,17,35.05-37,106.95,0,0-17.07,23.19-17.44,82.39,0,0-50.37-33.64-26.92-100.78C284.15,208.1,346.37,140.47,298,105.92Z"/><polygon class="cls-3" points="300.25 102.72 306.23 113 298.23 121.7 277.63 111.93 300.25 102.72"/><path class="cls-2" d="M137.39,379.41s7.53-2.57,13.45,5.74c0,0-3.64,33.61,1.71,38.63,0,0-4.86,17.37-23.8,7.85C128.76,431.62,124,397.47,137.39,379.41Z"/><path class="cls-1" d="M158,583.85"/></symbol><symbol id="w3" data-name="w3" viewBox="0 0 400 800"><rect class="cls-1" width="400" height="800"/><path class="cls-3" d="M246,630.87c4.16,1.89-1.67,53.74-1.4,55.77,0,0-6,21.51,13,19.38l25.48-79-15.52-13.89Z"/><path class="cls-3" d="M193.18,459.34s16.75,61.52,19.33,68.51l59.56,89.34L246,630.87s-53.58-63.51-51.73-80.41c0,0-44.84-53.65-29.18-89.5Z"/><path class="cls-2" d="M144.41,673.33c2.84,5.37-36.59,16.46-57.41,19.11-6.74.86-2.92,9.88-2.67,12.36,0,0,61.26,2.45,79.65-1.8-3.33-.49,2.89-21.72.36-24.2Z"/><path class="cls-2" d="M150.55,505.66s-14.79,51.67,1.21,98L139.1,678.33,165.75,682s14.47-177,23.14-182.66Z"/><path class="cls-3" d="M222.43,201.33s8.14,3.67,7.81,53.67c0,0-24.18,43.5-12.52,114.5l-55.27,7s-2-76.67-9-78.33c0,0-18.35-4.29-21.35-17.46S136,259.22,136,259.22,197.76,259,222.43,201.33Z"/><path class="cls-3" d="M212.44,368.89s25.68-7.09,28,63.57c0,0-.33,37,8,57.33,0,0-68.33,27.67-121.5,18.33,0,0,42.83-115,35.5-131.67Z"/><path class="cls-2" d="M208.69,422s5.74-8,13.74-5l-9.62-78.12-26.5-5.41Z"/><path class="cls-2" d="M186.32,331.66,190,255.19s-1.44-35.9,27.56-15.24l-4.61,91.71Z"/><circle class="cls-2" cx="200.12" cy="333.46" r="13.8"/><circle class="cls-2" cx="204.38" cy="249.38" r="16.21"/><path class="cls-3" d="M226.77,175.85c2.33.93-3.78,10.88-4.32,24.62,9,4.82-39.82,63.3-86.42,58.75,0,0,43.81-32.25,49.35-39,2.9-3.53,15.4-21.58,16.35-26l2.65-21.09Z"/><path class="cls-3" d="M181.3,122.06s-22.83,57.45-12,74,66.9-26.64,61.29-22.25c0,0-6.39-6.73-1.09-38.76C230,136.35,200,133.84,181.3,122.06Z"/><path class="cls-3" d="M231.32,99.88s-28.68-19.69-54.84,20.66c0,0,40.08,19.84,52.86,15.19C229.34,135.73,238.71,117.62,231.32,99.88Z"/><path class="cls-3" d="M234.62,196.56s58.43-15,36.59-65.75c0,0-9.84-28.71-39.88-30.92,2,4.56,2.6,18.17-2,35.85C224.28,155.29,229.38,184.17,234.62,196.56Z"/><path class="cls-3" d="M269.33,111.5s27.85-47.7,67.45,13.62c0,0,17,35.05-37,106.95,0,0-17.07,23.19-17.44,82.39,0,0-40.87-38.8-17.42-105.93C265,208.52,317.67,146,269.33,111.5Z"/><polygon class="cls-3" points="271.54 108.3 277.53 118.58 269.53 127.28 258.43 112.36 271.54 108.3"/><path class="cls-2" d="M208.69,422s3.74-7,13.74-5c0,0,20.33,27,27.67,27,0,0,8.33,16-12,22C238.1,466,211.28,444.33,208.69,422Z"/></symbol><symbol id="w4" data-name="w4" viewBox="0 0 400 800"><rect class="cls-1" width="400" height="800"/><path class="cls-3" d="M316.23,674.3c.18,2.3-29.86,20.17-30.59,22,0,0-32.43,13.81-18.64,27.09l74.64-34.09-8.27-17.69Z"/><path class="cls-3" d="M249,489.93s23.33,59.33,26.67,66l57.71,115.65-16.23,5.28S260,597.39,260,580.39c0,0-50.4-48.46-38.74-85.8Z"/><path class="cls-2" d="M91.58,681c-.87,5.46-42.9,8.8-60.4,3.61-6.51-1.93-5.38,8.79-5.77,11.25,0,0,66,27.7,80.48,18.75,0,0,8.55-18.73,3.53-23.18Z"/><path class="cls-2" d="M148.62,502.59s-28.54,39.84-25.06,88.73l-38.4,93.15,26.18,13.58c2.4,6.18,71.36-188.35,79.35-196.33Z"/><path class="cls-4" d="M235,202.23s8.14,3.67,7.81,53.67c0,0-24.18,43.5-12.52,114.5l-55.27,7s-2-76.67-9-78.33c0,0-18.35-4.29-21.35-17.46s3.93-21.44,3.93-21.44S210.35,259.91,235,202.23Z"/><path class="cls-3" d="M225,369.79s25.68-7.09,28,63.57c0,0-.33,37,8,57.33,0,0-68.33,27.67-121.5,18.33,0,0,42.83-115,35.5-131.67Z"/><path class="cls-2" d="M265.31,436.54s4.41-8.82,12.78-7.12L253.65,339l-26.15,6.16Z"/><path class="cls-2" d="M228.42,340.74,207.68,267s-12.75-33.6,21.31-23.19l21,89.69Z"/><circle class="cls-2" cx="239.85" cy="338.95" r="13.8"/><circle class="cls-2" cx="216.97" cy="250.28" r="16.21"/><path class="cls-3" d="M239.36,176.75c2.33.93-3.78,10.88-4.32,24.62,9,4.82-39.82,63.3-86.42,58.75,0,0,43.81-32.25,49.35-39,2.9-3.53,15.4-21.58,16.35-26L217,174Z"/><path class="cls-3" d="M193.9,123s-22.83,57.45-12,74,66.9-26.64,61.29-22.25c0,0-6.39-6.73-1.09-38.76C242.56,137.25,212.55,134.75,193.9,123Z"/><path class="cls-3" d="M243.92,100.79s-28.68-19.69-54.84,20.66c0,0,40.08,19.84,52.86,15.19C241.94,136.64,251.31,118.52,243.92,100.79Z"/><path class="cls-3" d="M247.22,197.46s58.43-15,36.59-65.75c0,0-9.84-28.71-39.88-30.92,2,4.56,2.6,18.17-2,35.85C236.88,156.19,242,185.07,247.22,197.46Z"/><path class="cls-3" d="M281.93,112.41S309.78,64.7,349.38,126c0,0,17,35.05-37,106.95,0,0-17.07,23.19-17.44,82.39,0,0-40.87-38.8-17.42-105.93C277.55,209.43,330.26,147,281.93,112.41Z"/><polygon class="cls-3" points="284.14 109.2 290.12 119.48 282.12 128.19 271.02 113.26 284.14 109.2"/><path class="cls-2" d="M264.38,432.78s3.74-7,13.74-5c0,0,20.33,27,27.67,27,0,0,8.33,16-12,22C293.79,476.78,267,455.11,264.38,432.78Z"/></symbol></defs><title>lillaveninde</title><g id="step_1" data-name="step 1"><use id="w1-3" data-name="w1" width="400" height="800" transform="translate(1197.71 799.18)" xlink:href="#w1"/><use id="w2-3" data-name="w2" width="400" height="800" transform="translate(794.97 799.14)" xlink:href="#w2"/><use id="w3-3" data-name="w3" width="400" height="800" transform="translate(399.93 799.18)" xlink:href="#w3"/><use id="w4-3" data-name="w4" width="400" height="800" transform="translate(1.04 799.18)" xlink:href="#w4"/><path class="cls-5" d="M201.49,691c-.79,2.16-35.55,5.87-37,7.19,0,0-35.23-1-28.24,16.84l82.05.17-.13-19.52Z"/><path class="cls-5" d="M217.32,495.36S213.77,559,214,566.47l4.19,129.18-17-2s-18.77-96.07-11.68-111.51c0,0-25.58-65.07.6-94.13Z"/><path class="cls-6" d="M167.62,683.09c.7,5.48-38.71,20.48-57,20.41-6.79,0-2.7,9.94-2.38,12.42,0,0,71.13,8.07,82.51-4.58,0,0,3-20.38-3.11-23.24Z"/><path class="cls-6" d="M153.33,491s-14.83,41.66-14.45,86.44a71.79,71.79,0,0,0,3.27,20.64L170.33,689l20,2c1.26,3.25-17-59-17-110,0-49.61,31.9-83.49,35.69-87.28Z"/><path class="cls-7" d="M215.36,210.23s8.14,3.67,7.81,53.67c0,0-24.18,43.5-12.52,114.5l-55.27,7s-2-76.67-9-78.33c0,0-18.35-4.29-21.35-17.46S129,268.12,129,268.12,190.69,267.91,215.36,210.23Z"/><path class="cls-5" d="M205.37,377.79s25.68-7.09,28,63.57c0,0-.33,37,8,57.33,0,0-68.33,27.67-121.5,18.33,0,0,42.83-115,35.5-131.67Z"/><path class="cls-6" d="M203.07,431.26s9-3.92,14.36,2.76l39.44-85-24-12.09Z"/><path class="cls-6" d="M235.07,346.18,193.3,282s-22.18-28.27,13.43-28.48l46.76,79.36Z"/><circle class="cls-6" cx="244.19" cy="342.95" r="13.8"/><circle class="cls-6" cx="197.3" cy="258.28" r="16.21"/><path class="cls-5" d="M219.7,184.75c2.33.93-3.78,10.88-4.32,24.62,9,4.82-39.82,63.3-86.42,58.75,0,0,43.81-32.25,49.35-39,2.9-3.53,15.4-21.58,16.35-26L197.3,182Z"/><path class="cls-5" d="M174.23,131s-22.83,57.45-12,74,66.9-26.64,61.29-22.25c0,0-6.39-6.73-1.09-38.76C222.9,145.25,192.89,142.75,174.23,131Z"/><path class="cls-5" d="M224.25,108.79s-28.68-19.69-54.84,20.66c0,0,40.08,19.84,52.86,15.19C222.27,144.64,231.64,126.52,224.25,108.79Z"/><path class="cls-5" d="M227.55,205.46s58.43-15,36.59-65.75c0,0-9.84-28.71-39.88-30.92,2,4.56,2.6,18.17-2,35.85C217.21,164.19,222.31,193.07,227.55,205.46Z"/><path class="cls-5" d="M262.26,120.41S290.11,72.7,329.71,134c0,0,17,35.05-37,106.95,0,0-17.07,23.19-17.44,82.39,0,0-40.87-38.8-17.42-105.93C257.88,217.43,310.6,155,262.26,120.41Z"/><polygon class="cls-5" points="264.47 117.2 270.46 127.48 262.46 136.19 251.35 121.26 264.47 117.2"/><path class="cls-6" d="M208,421.21s7.83-1.44,12.47,7.64c0,0-8.49,32.73-3.93,38.47,0,0-7.34,16.48-24.69,4.3C191.83,471.61,192.11,437.14,208,421.21Z"/><rect class="cls-1" x="1.33" width="400" height="800"/></g></svg>
